{
.appVersion = "3525";
.formatVersion = 3;
axes = (
{
name = Weight;
tag = wght;
}
);
classes = (
{
automatic = 1;

glyphs = (
{
glyphname = A;
kernLeft = A;
kernRight = A;
lastChange = "2025-02-26 16:35:17 +0000";
layers = (
{
anchors = (
{
name = bottom;
pos = (247,0);
},
{
name = ogonek;
pos = (581,0);
},
{
name = top;
pos = (401.291,660);
}
);
hints = (
{
horizontal = 1;
place = (660,-20);
target = down;
type = TopGhost;
},
{
horizontal = 1;
options = 4;
place = (0,53);
stem = -1;
type = TTStem;
},
{
horizontal = 1;
options = 4;
place = (211,77);
stem = -1;
type = TTStem;
},
{
horizontal = 1;
options = 4;
type = TTSnap;
},
{
horizontal = 1;
options = 4;
place = (660,115);
stem = -1;
type = TTStem;
}
);
layerId = m003;
shapes = (
{
closed = 1;
nodes = (
(444.153,649,ls),
(442.513,656,o),
(438.291,660,o),
(431.291,660,cs),
(375.291,660,ls),
(367.291,660,o),
(361.513,656,o),
(358.153,649,cs),
(43.689,91,ls),
(23.691,55,o),
(8.415,33,o),
(-17.585,33,cs),
(-29.585,33,o),
(-31.557,28,o),
(-33.112,20,cs),
(-34.473,13,ls),
(-36.222,4,o),
(-32,0,o),
(-24,0,cs),
(126,0,ls),
(134,0,o),
(139.778,4,o),
(141.527,13,cs),
(142.888,20,ls),
(144.443,28,o),
(144.415,33,o),
(132.415,33,cs),
(85.415,33,o),
(54.913,51,o),
(79.272,94,cs),
(167.789,251,l),
(138.902,231,l),
(455.902,231,l),
(433.401,249,l),
(456.827,102,ls),
(464.497,54,o),
(441.415,33,o),
(387.415,33,cs),
(375.415,33,o),
(373.443,28,o),
(371.888,20,cs),
(370.527,13,ls),
(368.778,4,o),
(373,0,o),
(381,0,cs),
(581,0,ls),
(590,0,o),
(594.778,4,o),
(596.527,13,cs),
(597.888,20,ls),
(599.443,28,o),
(599.415,33,o),
(587.415,33,cs),
(555.415,33,o),
(556.274,58,o),
(551.522,85,cs)
);
},
{
closed = 1;
nodes = (
(382.043,633,l),
(365.043,633,l),
(431.761,256,l),
(435.094,268,l),
(173.094,268,l),
(172.733,261,l)
);
}
);
width = 642;
},
{
anchors = (
{
name = bottom;
pos = (278,0);
},
{
name = ogonek;
pos = (631,0);
},
{
name = top;
pos = (427.291,660);
}
);
hints = (
{
horizontal = 1;
place = (660,-20);
target = down;
type = TopGhost;
},
{
horizontal = 1;
options = 4;
origin = (0,18);
stem = -1;
target = (0,11);
type = TTStem;
},
{
horizontal = 1;
options = 4;
origin = (0,30,0,32);
target = (1,4);
type = TTStem;
},
{
horizontal = 1;
options = 4;
origin = (0,4);
type = TTSnap;
},
{
horizontal = 1;
options = 4;
origin = (0,4);
stem = -1;
target = (1,0);
type = TTStem;
}
);
layerId = m004;
shapes = (
{
closed = 1;
nodes = (
(494.153,649,ls),
(492.513,656,o),
(488.291,660,o),
(481.291,660,cs),
(375.291,660,ls),
(367.291,660,o),
(361.513,656,o),
(358.153,649,cs),
(68.436,136,ls),
(43.689,91,o),
(22.302,53,o),
(-13.698,53,cs),
(-25.698,53,o),
(-27.67,48,o),
(-29.225,40,cs),
(-34.473,13,ls),
(-36.222,4,o),
(-32,0,o),
(-24,0,cs),
(196,0,ls),
(204,0,o),
(209.778,4,o),
(211.527,13,cs),
(216.775,40,ls),
(218.33,48,o),
(218.302,53,o),
(206.302,53,cs),
(152.302,53,o),
(133.466,95,o),
(156.436,136,cs),
(202.764,220,l),
(185.014,211,l),
(452.014,211,l),
(437.347,223,l),
(451.436,136,ls),
(458.689,91,o),
(425.302,53,o),
(371.302,53,cs),
(359.302,53,o),
(357.33,48,o),
(355.775,40,cs),
(350.527,13,ls),
(348.778,4,o),
(353,0,o),
(361,0,cs),
(631,0,ls),
(640,0,o),
(644.778,4,o),
(646.527,13,cs),
(651.775,40,ls),
(653.33,48,o),
(653.302,53,o),
(641.302,53,cs),
(609.302,53,o),
(602.105,88,o),
(592.436,136,cs)
);
},
{
closed = 1;
nodes = (
(391.63,564,l),
(377.63,564,l),
(431.761,256,l),
(438.982,288,l),
(226.982,288,l),
(224.733,261,l)
);
}
);
width = 692;
}
);
note = A;
unicode = 65;
},
{
glyphname = AE;
kernLeft = AE;
kernRight = E;
lastChange = "2025-02-26 16:37:54 +0000";
layers = (
{
anchors = (
{
name = bottom;
pos = (578.288,0);
},
{
name = ogonek;
pos = (770.288,0);
},
{
name = top;
pos = (661.601,660);
}
);
background = {
shapes = (
{
closed = 1;
nodes = (
(818.31,0,ls),
(828.31,0,o),
(832.31,-1,o),
(836.31,-4,cs),
(840.31,-9,ls),
(843.31,-11,o),
(845.31,-12,o),
(848.31,-12,cs),
(852.31,-12,o),
(856.31,-10,o),
(858.31,-4,cs),
(941.31,170,ls),
(943.31,173,o),
(944.31,176,o),
(944.31,179,cs),
(944.31,183,o),
(940.31,186,o),
(936.31,188,cs),
(908.31,205,ls),
(905.31,207,o),
(903.31,207,o),
(901.31,207,cs),
(895.31,207,o),
(892.31,204,o),
(889.31,200,cs),
(887.31,194,ls),
(837.31,96,o),
(789.31,62,o),
(660.31,62,cs),
(602.31,62,ls),
(563.31,62,o),
(542.31,92,o),
(542.31,146,cs),
(542.31,320,l),
(619.31,320,ls),
(673.31,320,o),
(703.31,301,o),
(703.31,261,cs),
(703.31,256,ls),
(703.31,247,o),
(707.31,243,o),
(716.31,243,cs),
(742.31,243,ls),
(751.31,243,o),
(755.31,247,o),
(755.31,256,cs),
(755.31,456,ls),
(755.31,465,o),
(751.31,469,o),
(742.31,469,cs),
(716.31,469,ls),
(707.31,469,o),
(703.31,465,o),
(703.31,456,cs),
(703.31,450,ls),
(703.31,411,o),
(672.31,391,o),
(619.31,391,cs),
(542.31,391,l),
(542.31,598,l),
(684.31,598,ls),
(752.31,598,o),
(789.31,576,o),
(825.31,516,cs),
(828.31,511,ls),
(830.31,506,o),
(834.31,503,o),
(838.31,503,cs),
(841.31,503,o),
(843.31,504,o),
(848.31,507,cs),
(883.31,526,ls),
(887.31,529,o),
(890.31,532,o),
(890.31,537,cs),
(890.31,539,o),
(889.31,542,o),
(887.31,545,cs),
(818.31,664,ls),
(815.31,669,o),
(811.31,671,o),
(806.31,671,cs),
(804.31,671,o),
(801.31,671,o),
(799.31,669,cs),
(794.31,664,ls),
(790.31,661,o),
(786.31,660,o),
(777.31,660,cs),
(271.31,660,ls),
(262.31,660,o),
(257.31,655,o),
(257.31,646,cs),
(257.31,620,ls),
(257.31,612,o),
(262.31,606,o),
(271.31,606,cs),
(300.31,606,o),
(311.31,601,o),
(311.31,589,cs),
(311.31,580,o),
(306.31,567,o),
(298.31,553,cs),
(58.31,136,ls),
(33.31,94,o),
(-1.69,57,o),
(-51.69,57,cs),
(-62.69,57,o),
(-65.69,52,o),
(-65.69,44,cs),
(-65.69,13,ls),
(-65.69,4,o),
(-60.69,0,o),
(-51.69,0,cs),
(167.31,0,ls),
(175.31,0,o),
(180.31,4,o),
(180.31,13,cs),
(180.31,44,ls),
(180.31,52,o),
(180.31,57,o),
(167.31,57,cs),
(146.31,57,o),
(130.31,69,o),
(130.31,88,cs),
(130.31,100,o),
(136.31,119,o),
(146.31,136,cs),
(187.31,210,l),
(396.31,210,l),
(396.31,136,ls),
(396.31,86,o),
(367.31,60,o),
(332.31,60,cs),
(322.31,60,o),
(319.31,55,o),
(319.31,47,cs),
(319.31,13,ls),
(319.31,4,o),
(324.31,0,o),
(332.31,0,cs)
);
},
{
closed = 1;
nodes = (
(396.31,582,l),
(396.31,287,l),
(230.31,287,l)
);
}
);
};
hints = (
{
horizontal = 1;
options = 4;
place = (0,53);
stem = -1;
type = TTStem;
},
{
horizontal = 1;
options = 4;
place = (211,77);
stem = -1;
type = TTStem;
},
{
horizontal = 1;
options = 4;
type = TTSnap;
},
{
horizontal = 1;
options = 4;
place = (660,115);
stem = -1;
type = TTStem;
}
);
layerId = m003;
shapes = (
{
closed = 1;
nodes = (
(784.672,-11.799,o),
(788.394,-9.507,o),
(792.227,-3.799,cs),
(909.049,170.201,ls),
(914.798,179.201,o),
(915.77,184.201,o),
(907.548,188.201,cs),
(894.908,195.201,ls),
(886.88,200.201,o),
(879.297,197.201,o),
(874.936,190.201,cs),
(870.77,184.201,ls),
(790.028,67.201,o),
(742.168,42.201,o),
(613.168,42.201,cs),
(538.168,42.201,ls),
(499.168,42.201,o),
(474,72.201,o),
(484.496,126.201,cs),
(524.15,330.201,l),
(638.15,330.201,ls),
(682.15,330.201,o),
(698.456,311.201,o),
(690.681,271.201,cs),
(689.709,266.201,ls),
(687.96,257.201,o),
(691.182,253.201,o),
(700.182,253.201,cs),
(706.182,253.201,ls),
(715.182,253.201,o),
(719.96,257.201,o),
(721.709,266.201,cs),
(754.754,436.201,ls),
(756.503,445.201,o),
(753.281,449.201,o),
(744.281,449.201,cs),
(738.281,449.201,ls),
(729.281,449.201,o),
(724.503,445.201,o),
(722.754,436.201,cs),
(721.588,430.201,ls),
(714.007,391.201,o),
(689.119,371.201,o),
(646.119,371.201,cs),
(532.119,371.201,l),
(580.131,618.201,l),
(759.131,618.201,ls),
(827.131,618.201,o),
(851.632,600.201,o),
(882.248,526.201,cs),
(884.276,521.201,ls),
(886.304,516.201,o),
(888.721,513.201,o),
(892.721,513.201,cs),
(895.721,513.201,o),
(897.916,514.201,o),
(903.499,517.201,cs),
(920.248,526.201,ls),
(924.831,529.201,o),
(928.414,532.201,o),
(929.386,537.201,cs),
(929.775,539.201,o),
(929.358,542.201,o),
(927.941,545.201,cs),
(882.073,664.201,ls),
(880.044,669.201,o),
(876.433,671.201,o),
(872.433,671.201,cs),
(869.433,671.201,o),
(866.433,671.201,o),
(864.044,669.201,cs),
(858.073,664.201,ls),
(853.489,661.201,o),
(849.295,660.201,o),
(840.295,660.201,cs),
(440.295,660.201,ls),
(431.295,660.201,o),
(425.323,655.201,o),
(423.574,646.201,cs),
(422.407,640.201,ls),
(420.852,632.201,o),
(425.686,626.201,o),
(433.686,626.201,cs),
(450.978,626.201,o),
(472.856,622.182,o),
(449.567,590.998,cs),
(76.175,91,ls),
(36.289,37.59,o),
(8.413,33,o),
(-17.587,33,cs),
(-29.587,33,o),
(-31.559,28,o),
(-33.114,20,cs),
(-34.475,13,ls),
(-36.224,4,o),
(-32.002,0,o),
(-24.002,0,cs),
(125.998,0,ls),
(133.998,0,o),
(139.776,4,o),
(141.525,13,cs),
(142.886,20,ls),
(144.441,28,o),
(144.413,33,o),
(132.413,33,cs),
(85.413,33,o),
(77.945,34.155,o),
(122.343,94,cs),
(223.983,231,l),
(421.867,231,l),
(399.552,116.201,ls),
(388.667,60.201,o),
(362.419,33.201,o),
(318.419,33.201,cs),
(310.419,33.201,o),
(303.447,28.201,o),
(301.892,20.201,cs),
(300.531,13.201,ls),
(298.782,4.201,o),
(303.004,0.201,o),
(312.004,0.201,cs),
(753.004,0.201,ls),
(764.004,0.201,o),
(767.862,0.106,o),
(770.227,-3.799,cs),
(773.255,-8.799,ls),
(774.959,-11.614,o),
(777.672,-11.799,o),
(780.672,-11.799,cs)
);
},
{
closed = 1;
nodes = (
(491.613,589.811,l),
(429.059,268,l),
(251.977,268,l)
);
}
);
width = 937.96;
},
{
anchors = (
{
name = bottom;
pos = (648.978,0);
},
{
name = ogonek;
pos = (840.978,0);
},
{
name = top;
pos = (732.291,660);
}
);
layerId = m004;
shapes = (
{
closed = 1;
nodes = (
(872.645,-12,o),
(876.368,-9.708,o),
(880.2,-4,cs),
(997.023,170,ls),
(1002.74,178.515,o),
(1003.662,183.892,o),
(995.716,189,cs),
(970.826,205,ls),
(964.603,209,o),
(956.02,206,o),
(951.854,200,cs),
(947.688,194,ls),
(879.639,96,o),
(824.03,62,o),
(695.03,62,cs),
(637.03,62,ls),
(598.03,62,o),
(582.861,92,o),
(593.358,146,cs),
(627.18,320,l),
(704.18,320,ls),
(758.18,320,o),
(784.486,301,o),
(776.711,261,cs),
(775.739,256,ls),
(773.99,247,o),
(777.212,243,o),
(786.212,243,cs),
(812.212,243,ls),
(821.212,243,o),
(825.99,247,o),
(827.739,256,cs),
(866.615,456,ls),
(868.365,465,o),
(865.142,469,o),
(856.142,469,cs),
(830.142,469,ls),
(821.142,469,o),
(816.365,465,o),
(814.615,456,cs),
(813.449,450,ls),
(805.868,411,o),
(770.981,391,o),
(717.981,391,cs),
(640.981,391,l),
(681.217,598,l),
(823.217,598,ls),
(891.217,598,o),
(923.941,576,o),
(948.278,516,cs),
(950.306,511,ls),
(952.18,506.382,o),
(954.751,503,o),
(958.751,503,cs),
(961.751,503,o),
(963.864,504.218,o),
(969.529,507,cs),
(1008.222,526,ls),
(1013.081,528.385,o),
(1016.388,532,o),
(1017.36,537,cs),
(1017.749,539,o),
(1017.118,541.881,o),
(1015.915,545,cs),
(970.047,664,ls),
(968.102,669.044,o),
(964.407,671,o),
(960.407,671,cs),
(957.407,671,o),
(954.407,671,o),
(952.018,669,cs),
(946.047,664,ls),
(941.824,660.464,o),
(937.269,660,o),
(928.269,660,cs),
(428.291,660,ls),
(419.291,660,o),
(413.319,655,o),
(411.57,646,cs),
(406.516,620,ls),
(404.961,612,o),
(408.794,606,o),
(417.794,606,cs),
(462.869,606,o),
(464.463,592.136,o),
(434.492,553,cs),
(113.436,136,ls),
(80.272,94,o),
(38.08,57,o),
(-11.92,57,cs),
(-22.92,57,o),
(-26.892,52,o),
(-28.447,44,cs),
(-34.473,13,ls),
(-36.222,4,o),
(-32,0,o),
(-23,0,cs),
(196,0,ls),
(204,0,o),
(209.778,4,o),
(211.527,13,cs),
(217.553,44,ls),
(219.108,52,o),
(220.08,57,o),
(207.08,57,cs),
(162.446,57,o),
(170.788,96.839,o),
(201.436,136,cs),
(256.82,210,l),
(465.82,210,l),
(451.436,136,ls),
(441.717,86,o),
(407.663,60,o),
(372.663,60,cs),
(362.663,60,o),
(358.691,55,o),
(357.136,47,cs),
(350.527,13,ls),
(348.778,4,o),
(353,0,o),
(361,0,cs),
(840.978,0,ls),
(851.978,0,o),
(855.836,-0.096,o),
(858.2,-4,cs),
(861.229,-9,ls),
(862.934,-11.815,o),
(865.645,-12,o),
(868.645,-12,cs)
);
},
{
closed = 1;
nodes = (
(538.129,582,l),
(480.787,287,l),
(314.787,287,l)
);
}
);
width = 1025.99;
}
);
metricLeft = A;
metricRight = E;
note = AE;
unicode = 198;
},
{
glyphname = B;
kernLeft = B;
kernRight = B;
lastChange = "2025-02-27 13:23:27 +0000";
layers = (
{
anchors = (
{
name = bottom;
pos = (274,0);
},
{
name = center;
pos = (148,165);
},
{
name = top;
pos = (403,660);
}
);
hints = (
{
horizontal = 1;
options = 4;
origin = (0,34);
stem = -1;
target = (0,27);
type = TTStem;
},
{
horizontal = 1;
options = 4;
origin = (0,20);
stem = -1;
target = (2,6);
type = TTStem;
},
{
horizontal = 1;
options = 4;
origin = (0,13);
stem = -1;
target = (0,20);
type = TTStem;
}
);
layerId = m003;
shapes = (
{
closed = 1;
nodes = (
(321,0,ls),
(459,0,o),
(571.55,80,o),
(593.71,194,cs),
(610.815,282,o),
(569.227,351,o),
(482.476,378,c),
(546.113,407,o),
(585.471,450,o),
(595.385,501,cs),
(612.684,590,o),
(531.291,660,o),
(409.291,660,cs),
(156.291,660,ls),
(147.291,660,o),
(141.513,656,o),
(139.764,647,cs),
(138.403,640,ls),
(136.848,632,o),
(140.876,627,o),
(149.876,627,cs),
(192.876,627,o),
(209.434,599,o),
(198.743,544,cs),
(115.548,116,ls),
(104.857,61,o),
(77.415,33,o),
(34.415,33,cs),
(25.415,33,o),
(19.443,28,o),
(17.888,20,cs),
(16.527,13,ls),
(14.778,4,o),
(19,0,o),
(28,0,cs)
);
},
{
attr = {
strokePos = 1;
};
closed = 1;
nodes = (
(212.054,26,o),
(184.941,46,o),
(197.576,111,cs),
(243.061,345,l),
(321.061,345,ls),
(465.061,345,o),
(521.37,290,o),
(501.349,187,cs),
(482.105,88,o),
(406.054,26,o),
(288.054,26,cs),
(266.054,26,ls)
);
},
{
attr = {
strokePos = 1;
};
closed = 1;
nodes = (
(299.237,634,l),
(379.237,634,ls),
(478.237,634,o),
(520.712,585,o),
(505.356,506,cs),
(490.195,428,o),
(427.476,378,o),
(326.476,378,cs),
(249.476,378,l)
);
}
);
width = 633;
},
{
anchors = (
{
name = bottom;
pos = (274,0);
},
{
name = center;
pos = (148,165);
},
{
name = top;
pos = (403,660);
}
);
hints = (
{
horizontal = 1;
options = 4;
origin = (0,21);
stem = -1;
target = (0,14);
type = TTStem;
},
{
horizontal = 1;
options = 4;
origin = (1,3);
stem = -1;
target = (2,8);
type = TTStem;
},
{
horizontal = 1;
options = 4;
origin = (0,0);
stem = -1;
target = (0,7);
type = TTStem;
}
);
layerId = m004;
shapes = (
{
closed = 1;
nodes = (
(321,0,ls),
(459,0,o),
(571.55,80,o),
(593.71,194,cs),
(610.815,282,o),
(569.227,351,o),
(482.476,378,c),
(546.113,407,o),
(585.471,450,o),
(595.385,501,cs),
(612.684,590,o),
(531.291,660,o),
(409.291,660,cs),
(126.291,660,ls),
(117.291,660,o),
(111.513,656,o),
(109.764,647,cs),
(104.516,620,ls),
(102.961,612,o),
(106.989,607,o),
(115.989,607,cs),
(158.989,607,o),
(175.546,579,o),
(164.855,524,cs),
(89.436,136,ls),
(78.745,81,o),
(51.302,53,o),
(8.302,53,cs),
(-0.698,53,o),
(-6.67,48,o),
(-8.225,40,cs),
(-13.473,13,ls),
(-15.222,4,o),
(-11,0,o),
(-2,0,cs)
);
},
{
closed = 1;
nodes = (
(233.302,53,o),
(219.134,83,o),
(229.436,136,cs),
(267.534,332,l),
(318.534,332,ls),
(432.534,332,o),
(479.787,287,o),
(461.71,194,cs),
(444.604,106,o),
(382.302,53,o),
(293.302,53,cs),
(271.302,53,ls)
);
},
{
closed = 1;
nodes = (
(320.989,607,l),
(373.989,607,ls),
(443.989,607,o),
(476.408,568,o),
(463.385,501,cs),
(450.361,434,o),
(401.586,394,o),
(329.586,394,cs),
(279.586,394,l)
);
}
);
width = 633;
}
);
note = B;
unicode = 66;
},
{
glyphname = C;
kernLeft = C;
kernRight = C;
lastChange = "2025-02-27 13:23:44 +0000";
layers = (
{
anchors = (
{
name = bottom;
pos = (306,0);
},
{
name = top;
pos = (429.291,660);
}
);
background = {
shapes = (
{
closed = 1;
nodes = (
(162,671,o),
(21,517,o),
(21,334,cs),
(21,147,o),
(170,-11,o),
(356,-11,cs),
(534,-11,o),
(683,137,o),
(683,325,cs),
(683,512,o),
(532,671,o),
(346,671,cs)
);
},
{
closed = 1;
nodes = (
(516,641,o),
(587,406,o),
(587,270,cs),
(587,122,o),
(509,19,o),
(367,19,cs),
(191,19,o),
(116,239,o),
(116,389,cs),
(116,540,o),
(196,641,o),
(334,641,cs)
);
}
);
};
layerId = m003;
shapes = (
{
closed = 1;
nodes = (
(607.209,212,ls),
(604.403,213,o),
(601.209,212,o),
(598.042,206,cs),
(549.576,111,o),
(462.693,19,o),
(319.693,19,cs),
(174.693,19,o),
(120.518,157,o),
(159.783,359,cs),
(182.136,474,o),
(284.598,641,o),
(438.598,641,cs),
(557.598,641,o),
(591.464,558,o),
(576.303,480,cs),
(573.776,467,o),
(569.832,457,o),
(569.054,453,cs),
(567.888,447,o),
(569.916,442,o),
(586.888,447,cs),
(644.387,465,ls),
(651.776,467,o),
(654.359,470,o),
(656.303,480,cs),
(663.883,519,o),
(629.429,671,o),
(444.429,671,cs),
(200.429,671,o),
(80.359,470,o),
(51.785,323,cs),
(15.047,134,o),
(102.862,-11,o),
(303.862,-11,cs),
(463.862,-11,o),
(567.272,94,o),
(621.682,199,cs),
(624.654,204,o),
(624.237,207,o),
(620.431,208,cs)
);
}
);
width = 639;
},
{
anchors = (
{
name = bottom;
pos = (316,0);
},
{
name = top;
pos = (439.291,660);
}
);
layerId = m004;
shapes = (
{
closed = 1;
nodes = (
(613.736,225,ls),
(601.096,232,o),
(594.902,231,o),
(585.181,217,cs),
(544.935,154,o),
(474.384,74,o),
(344.384,74,cs),
(213.384,74,o),
(176.127,191,o),
(209.366,362,cs),
(228.415,460,o),
(297.823,601,o),
(422.823,601,cs),
(523.823,601,o),
(537.467,522,o),
(527.553,471,cs),
(524.054,453,o),
(519.527,440,o),
(517.584,430,cs),
(515.445,419,o),
(523.445,419,o),
(536.223,423,cs),
(657.998,463,ls),
(668.581,466,o),
(674.359,470,o),
(676.303,480,cs),
(683.883,519,o),
(654.429,671,o),
(444.429,671,cs),
(190.429,671,o),
(80.359,470,o),
(51.785,323,cs),
(15.047,134,o),
(102.862,-11,o),
(313.862,-11,cs),
(483.862,-11,o),
(592.632,101,o),
(648.515,193,cs),
(655.459,203,o),
(651.042,206,o),
(641.014,211,cs)
);
}
);
width = 659;
}
);
note = C;
unicode = 67;
},
{
glyphname = D;
kernLeft = B;
kernRight = D;
lastChange = "2025-02-26 16:27:39 +0000";
layers = (
{
anchors = (
{
name = bottom;
pos = (239,0);
},
{
name = top;
pos = (355.291,660);
}
);
layerId = m003;
shapes = (
{
closed = 1;
nodes = (
(126.291,660,ls),
(117.291,660,o),
(111.513,656,o),
(109.764,647,cs),
(108.403,640,ls),
(106.848,632,o),
(110.876,627,o),
(119.876,627,cs),
(162.876,627,o),
(179.434,599,o),
(168.743,544,cs),
(85.548,116,ls),
(75.44,64,o),
(48.415,33,o),
(10.415,33,cs),
(4.415,33,ls),
(-4.585,33,o),
(-10.557,28,o),
(-12.112,20,cs),
(-13.473,13,ls),
(-15.222,4,o),
(-11,0,o),
(-2,0,cs),
(223,0,ls),
(424,0,o),
(575.52,121,o),
(616.34,331,cs),
(655.993,535,o),
(537.291,660,o),
(327.291,660,cs)
);
},
{
closed = 1;
nodes = (
(267.876,627,l),
(308.876,627,ls),
(484.876,627,o),
(556.385,501,o),
(523.34,331,cs),
(486.213,140,o),
(368.192,37,o),
(218.192,37,cs),
(161.192,37,o),
(158.829,66,o),
(167.771,112,cs)
);
}
);
width = 625;
},
{
anchors = (
{
name = bottom;
pos = (279,0);
},
{
name = top;
pos = (395.291,660);
}
);
layerId = m004;
shapes = (
{
closed = 1;
nodes = (
(126.291,660,ls),
(117.291,660,o),
(111.513,656,o),
(109.764,647,cs),
(104.516,620,ls),
(102.961,612,o),
(106.989,607,o),
(115.989,607,cs),
(158.989,607,o),
(175.546,579,o),
(164.855,524,cs),
(89.436,136,ls),
(79.328,84,o),
(52.302,53,o),
(14.302,53,cs),
(8.302,53,ls),
(-0.698,53,o),
(-6.67,48,o),
(-8.225,40,cs),
(-13.473,13,ls),
(-15.222,4,o),
(-11,0,o),
(-2,0,cs),
(293,0,ls),
(494,0,o),
(645.52,121,o),
(686.34,331,cs),
(725.993,535,o),
(607.291,660,o),
(397.291,660,cs)
);
},
{
closed = 1;
nodes = (
(320.989,607,l),
(361.989,607,ls),
(527.989,607,o),
(586.385,501,o),
(553.34,331,cs),
(516.213,140,o),
(419.08,57,o),
(279.08,57,cs),
(222.08,57,o),
(219.717,86,o),
(228.658,132,cs)
);
}
);
width = 695;
}
);
note = D;
unicode = 68;
},
{
glyphname = Eth;
kernLeft = B;
kernRight = D;
lastChange = "2025-02-26 16:18:05 +0000";
layers = (
{
layerId = m003;
shapes = (
{
closed = 1;
nodes = (
(391,307,ls),
(400,307,o),
(404,312,o),
(404,320,cs),
(404,336,ls),
(404,345,o),
(400,350,o),
(391,350,cs),
(40,350,ls),
(31,350,o),
(26,345,o),
(26,336,cs),
(26,320,ls),
(26,312,o),
(31,307,o),
(40,307,cs)
);
},
{
ref = D;
}
);
width = 695;
},
{
layerId = m004;
shapes = (
{
closed = 1;
nodes = (
(411,267,ls),
(420,267,o),
(424,272,o),
(424,280,cs),
(424,356,ls),
(424,365,o),
(420,370,o),
(411,370,cs),
(40,370,ls),
(31,370,o),
(26,365,o),
(26,356,cs),
(26,280,ls),
(26,272,o),
(31,267,o),
(40,267,cs)
);
},
{
ref = D;
}
);
width = 695;
}
);
note = Eth;
unicode = 208;
},
{
glyphname = E;
kernLeft = B;
kernRight = E;
lastChange = "2026-05-05 11:06:34 +0000";
layers = (
{
anchors = (
{
name = bottom;
pos = (267,0);
},
{
name = ogonek;
pos = (459,0);
},
{
name = top;
pos = (387.291,660);
}
);
layerId = m003;
shapes = (
{
closed = 1;
nodes = (
(580.904,195,ls),
(572.876,200,o),
(565.293,197,o),
(560.932,190,cs),
(556.766,184,ls),
(476.023,67,o),
(428.164,42,o),
(299.164,42,cs),
(224.164,42,ls),
(185.164,42,o),
(159.995,72,o),
(170.492,126,cs),
(210.146,330,l),
(324.146,330,ls),
(368.146,330,o),
(384.452,311,o),
(376.677,271,cs),
(375.705,266,ls),
(373.956,257,o),
(377.178,253,o),
(386.178,253,cs),
(392.178,253,ls),
(401.178,253,o),
(405.956,257,o),
(407.705,266,cs),
(440.75,436,ls),
(442.499,445,o),
(439.277,449,o),
(430.277,449,cs),
(424.277,449,ls),
(415.277,449,o),
(410.499,445,o),
(408.75,436,cs),
(407.584,430,ls),
(400.003,391,o),
(375.115,371,o),
(332.115,371,cs),
(218.115,371,l),
(266.127,618,l),
(445.127,618,ls),
(513.127,618,o),
(537.628,600,o),
(568.244,526,cs),
(570.272,521,ls),
(572.3,516,o),
(574.717,513,o),
(578.717,513,cs),
(581.717,513,o),
(583.911,514,o),
(589.495,517,cs),
(606.244,526,ls),
(610.827,529,o),
(614.41,532,o),
(615.382,537,cs),
(615.771,539,o),
(615.354,542,o),
(613.937,545,cs),
(568.069,664,ls),
(566.04,669,o),
(562.429,671,o),
(558.429,671,cs),
(555.429,671,o),
(552.429,671,o),
(550.04,669,cs),
(544.069,664,ls),
(539.485,661,o),
(535.291,660,o),
(526.291,660,cs),
(126.291,660,ls),
(117.291,660,o),
(111.319,655,o),
(109.57,646,cs),
(108.403,640,ls),
(106.848,632,o),
(111.682,626,o),
(119.682,626,cs),
(163.682,626,o),
(179.239,598,o),
(168.549,543,cs),
(85.548,116,ls),
(74.663,60,o),
(48.415,33,o),
(5.415,33,cs),
(4.415,33,ls),
(-3.585,33,o),
(-10.557,28,o),
(-12.112,20,cs),
(-13.473,13,ls),
(-15.222,4,o),
(-11,0,o),
(-2,0,cs),
(439,0,ls),
(450,0,o),
(452.806,-1,o),
(456.222,-4,cs),
(459.251,-9,ls),
(461.862,-11,o),
(463.667,-12,o),
(466.667,-12,cs),
(470.667,-12,o),
(475.056,-10,o),
(478.222,-4,cs),
(595.045,170,ls),
(600.794,179,o),
(601.766,184,o),
(593.543,188,cs)
);
}
);
width = 624;
},
{
anchors = (
{
name = bottom;
pos = (287,0);
},
{
name = ogonek;
pos = (479,0);
},
{
name = top;
pos = (407.291,660);
}
);
layerId = m004;
shapes = (
{
closed = 1;
nodes = (
(608.848,205,ls),
(602.625,209,o),
(594.042,206,o),
(589.876,200,cs),
(585.71,194,ls),
(517.661,96,o),
(462.052,62,o),
(333.052,62,cs),
(275.052,62,ls),
(236.052,62,o),
(220.883,92,o),
(231.38,146,cs),
(265.202,320,l),
(342.202,320,ls),
(396.202,320,o),
(422.508,301,o),
(414.733,261,cs),
(413.761,256,ls),
(412.012,247,o),
(415.234,243,o),
(424.234,243,cs),
(450.234,243,ls),
(459.234,243,o),
(464.012,247,o),
(465.761,256,cs),
(504.637,456,ls),
(506.387,465,o),
(503.164,469,o),
(494.164,469,cs),
(468.164,469,ls),
(459.164,469,o),
(454.387,465,o),
(452.637,456,cs),
(451.471,450,ls),
(443.89,411,o),
(409.003,391,o),
(356.003,391,cs),
(279.003,391,l),
(319.239,598,l),
(461.239,598,ls),
(529.239,598,o),
(561.963,576,o),
(586.3,516,cs),
(588.328,511,ls),
(590.356,506,o),
(592.773,503,o),
(596.773,503,cs),
(599.773,503,o),
(601.968,504,o),
(607.551,507,cs),
(646.244,526,ls),
(650.633,528,o),
(654.41,532,o),
(655.382,537,cs),
(655.771,539,o),
(655.354,542,o),
(653.937,545,cs),
(608.069,664,ls),
(606.04,669,o),
(602.429,671,o),
(598.429,671,cs),
(595.429,671,o),
(592.429,671,o),
(590.04,669,cs),
(584.069,664,ls),
(579.291,660,o),
(575.291,660,o),
(566.291,660,cs),
(126.291,660,ls),
(117.291,660,o),
(111.319,655,o),
(109.57,646,cs),
(104.516,620,ls),
(102.961,612,o),
(107.794,606,o),
(115.794,606,cs),
(159.794,606,o),
(175.352,578,o),
(164.661,523,cs),
(89.436,136,ls),
(78.55,80,o),
(52.302,53,o),
(9.302,53,cs),
(8.302,53,ls),
(0.302,53,o),
(-6.67,48,o),
(-8.225,40,cs),
(-13.473,13,ls),
(-15.222,4,o),
(-11,0,o),
(-2,0,cs),
(479,0,ls),
(490,0,o),
(494,0,o),
(496.222,-4,cs),
(499.251,-9,ls),
(500.667,-12,o),
(503.667,-12,o),
(506.667,-12,cs),
(510.667,-12,o),
(514.056,-10,o),
(518.222,-4,cs),
(635.045,170,ls),
(640.794,179,o),
(641.766,184,o),
(633.738,189,cs)
);
}
);
width = 664;
}
);
note = E;
unicode = 69;
},
{
glyphname = Schwa;
kernLeft = C;
kernRight = D;
lastChange = "2025-02-27 09:03:58 +0000";
layers = (
{
background = {
anchors = (
{
name = bottom;
pos = (327.943,0);
},
{
name = top;
pos = (322.943,660);
}
);
};
layerId = m003;
shapes = (
{
closed = 1;
nodes = (
(514.805,-11,o),
(634.875,190,o),
(663.449,337,cs),
(700.187,526,o),
(612.372,671,o),
(411.372,671,cs),
(251.372,671,o),
(148.285,565.888,o),
(93.319,461.249,cs),
(90.663,456.195,o),
(91.058,453.133,o),
(94.803,452,cs),
(108.025,448,ls),
(110.896,447.131,o),
(114.32,447.868,o),
(117.432,453.977,cs),
(165.822,548.945,o),
(252.541,641,o),
(395.541,641,cs),
(502.058,641,o),
(559.562,566.53,o),
(567.018,446.926,c),
(78.997,218.397,ls),
(67.18,212.863,o),
(63.849,205.3,o),
(60.875,190,cs),
(51.351,141,o),
(85.805,-11,o),
(270.805,-11,cs)
);
},
{
closed = 1;
nodes = (
(157.792,19,o),
(125.714,112,o),
(140.875,190,cs),
(142.294,197.298,o),
(144.538,205.603,o),
(146.369,212.176,c),
(567.824,414.514,l),
(567.466,379.666,o),
(563.349,341.628,o),
(555.451,301,cs),
(533.098,186,o),
(430.636,19,o),
(276.636,19,cs)
);
}
);
width = 686;
},
{
layerId = m004;
shapes = (
{
closed = 1;
nodes = (
(538.862,-11,o),
(650.321,192,o),
(678.895,339,cs),
(715.633,528,o),
(627.429,671,o),
(415.429,671,cs),
(246.429,671,o),
(137.047,561,o),
(82.164,469,cs),
(76.011,457.339,o),
(78.641,456.354,o),
(88.666,451,cs),
(116.75,436,ls),
(127.969,430.008,o),
(136.803,432.129,o),
(144.305,444,cs),
(184.745,508,o),
(255.296,588,o),
(385.296,588,cs),
(476.296,588,o),
(521.41,532,o),
(530.916,442,c),
(73.567,255,ls),
(61.595,250,o),
(58.429,244,o),
(56.679,235,cs),
(42.295,161,o),
(66.862,-11,o),
(285.862,-11,cs)
);
},
{
closed = 1;
nodes = (
(206.857,61,o),
(193.213,140,o),
(205.265,202,cs),
(205.978,205.667,o),
(206.69,209.333,o),
(207.403,213,c),
(529.783,359,l),
(527.089,340,o),
(524.202,320,o),
(520.314,300,cs),
(501.265,202,o),
(432.857,61,o),
(306.857,61,cs)
);
}
);
width = 686;
}
);
unicode = 399;
},
{
glyphname = F;
kernLeft = B;
kernRight = F;
lastChange = "2026-05-05 11:06:54 +0000";
layers = (
{
layerId = m003;
shapes = (
{
closed = 1;
nodes = (
(208.59,322,l),
(315.59,322,ls),
(381.59,322,o),
(395.703,302,o),
(388.122,263,cs),
(386.956,257,ls),
(385.206,248,o),
(388.429,244,o),
(397.429,244,cs),
(403.429,244,ls),
(412.429,244,o),
(417.206,248,o),
(418.956,257,cs),
(452,427,ls),
(453.75,436,o),
(450.527,440,o),
(441.527,440,cs),
(435.527,440,ls),
(426.527,440,o),
(421.75,436,o),
(420,427,cs),
(418.834,421,ls),
(411.253,382,o),
(388.366,362,o),
(323.366,362,cs),
(216.366,362,l),
(266.127,618,l),
(401.127,618,ls),
(488.127,618,o),
(530.628,600,o),
(561.244,526,cs),
(563.272,521,ls),
(564.3,516,o),
(567.717,513,o),
(571.717,513,cs),
(574.717,513,o),
(576.911,514,o),
(582.495,517,cs),
(599.244,526,ls),
(603.827,529,o),
(607.41,532,o),
(608.382,537,cs),
(608.771,539,o),
(608.354,542,o),
(606.937,545,cs),
(561.069,664,ls),
(559.04,669,o),
(555.429,671,o),
(551.429,671,cs),
(548.429,671,o),
(545.429,671,o),
(543.04,669,cs),
(537.069,664,ls),
(532.485,661,o),
(528.291,660,o),
(519.291,660,cs),
(126.291,660,ls),
(117.291,660,o),
(111.319,655,o),
(109.57,646,cs),
(108.403,640,ls),
(106.848,632,o),
(111.682,626,o),
(119.682,626,cs),
(163.682,626,o),
(179.239,598,o),
(168.549,543,cs),
(85.548,116,ls),
(74.663,60,o),
(48.415,33,o),
(5.415,33,cs),
(4.415,33,ls),
(-3.585,33,o),
(-10.557,28,o),
(-12.112,20,cs),
(-13.473,13,ls),
(-15.222,4,o),
(-11,0,o),
(-2,0,cs),
(212,0,ls),
(220,0,o),
(225.972,5,o),
(227.527,13,cs),
(228.888,20,ls),
(230.443,28,o),
(226.415,33,o),
(218.415,33,cs),
(211.415,33,ls),
(172.415,33,o),
(158.44,64,o),
(168.548,116,cs)
);
}
);
width = 564;
},
{
associatedMasterId = m003;
background = {
shapes = (
{
closed = 1;
nodes = (
(521,664,ls),
(518,670,o),
(514,672,o),
(510,672,cs),
(507,672,o),
(504,671,o),
(502,669,c),
(497,664,ls),
(492,660,o),
(487,660,o),
(480,660,cs),
(40,660,ls),
(31,660,o),
(26,656,o),
(26,647,cs),
(26,620,ls),
(26,612,o),
(31,607,o),
(40,607,cs),
(40,607,ls),
(89,607,o),
(105,571,o),
(105,524,cs),
(105,136,ls),
(105,90,o),
(90,55,o),
(45,53,c),
(40,53,ls),
(31,53,o),
(26,48,o),
(26,40,cs),
(26,13,ls),
(26,4,o),
(31,0,o),
(40,0,cs),
(311,0,ls),
(319,0,o),
(324,4,o),
(324,13,cs),
(324,40,ls),
(324,48,o),
(319,53,o),
(311,53,cs),
(304,53,l),
(260,55,o),
(245,90,o),
(245,136,cs),
(245,312,l),
(322,312,ls),
(368,312,o),
(403,297,o),
(406,253,c),
(406,247,ls),
(406,238,o),
(410,234,o),
(419,234,cs),
(445,234,ls),
(454,234,o),
(458,238,o),
(458,247,cs),
(458,448,ls),
(458,456,o),
(454,461,o),
(445,461,cs),
(419,461,ls),
(410,461,o),
(406,456,o),
(406,448,cs),
(406,442,l),
(403,397,o),
(368,382,o),
(322,382,cs),
(239,382,l),
(239,598,l),
(370,598,ls),
(441,598,o),
(495,573,o),
(528,517,cs),
(531,511,ls),
(533,507,o),
(537,504,o),
(541,504,cs),
(544,504,o),
(546,505,o),
(549,506,cs),
(586,526,ls),
(590,529,o),
(593,532,o),
(593,537,cs),
(593,539,o),
(592,542,o),
(590,545,cs)
);
}
);
};
hints = (
{
horizontal = 1;
place = (0,53);
type = Stem;
},
{
horizontal = 1;
place = (312,70);
type = Stem;
},
{
horizontal = 1;
place = (597,63);
type = Stem;
},
{
place = (104,141);
type = Stem;
},
{
place = (406,53);
type = Stem;
},
{
horizontal = 1;
place = (607,53);
type = Stem;
}
);
layerId = "E63F92B0-136D-418B-B784-801F568A6AD3";
name = "23 mars 23 à 14:56";
shapes = (
{
closed = 1;
nodes = (
(521,664,ls),
(517,671,o),
(515,672,o),
(510,672,cs),
(508,672,o),
(505,671,o),
(503,670,cs),
(497,664,ls),
(493,660,o),
(489,660,o),
(480,660,cs),
(40,660,ls),
(31,660,o),
(26,656,o),
(26,647,cs),
(26,620,ls),
(26,612,o),
(31,607,o),
(40,607,cs),
(40,607,ls),
(83,607,o),
(105,579,o),
(105,524,cs),
(105,136,ls),
(105,84,o),
(84,55,o),
(45,53,c),
(40,53,ls),
(31,53,o),
(26,48,o),
(26,40,cs),
(26,13,ls),
(26,4,o),
(31,0,o),
(40,0,cs),
(311,0,ls),
(319,0,o),
(324,5,o),
(324,13,cs),
(324,40,ls),
(324,48,o),
(319,53,o),
(311,53,cs),
(304,53,l),
(265,55,o),
(245,84,o),
(245,136,cs),
(245,312,l),
(322,312,ls),
(375,312,o),
(403,292,o),
(406,253,c),
(406,247,ls),
(406,238,o),
(410,234,o),
(419,234,cs),
(445,234,ls),
(454,234,o),
(458,238,o),
(458,247,cs),
(458,448,ls),
(458,457,o),
(454,461,o),
(445,461,cs),
(419,461,ls),
(411,461,o),
(406,457,o),
(406,448,cs),
(406,442,l),
(403,402,o),
(375,382,o),
(322,382,cs),
(239,382,l),
(239,598,l),
(370,598,ls),
(444,598,o),
(500,574,o),
(528,517,cs),
(531,511,ls),
(533,507,o),
(538,504,o),
(541,504,cs),
(545,504,o),
(548,505,o),
(551,507,cs),
(586,526,ls),
(590,529,o),
(593,532,o),
(593,537,cs),
(593,539,o),
(592,542,o),
(590,545,cs)
);
}
);
width = 611;
},
{
layerId = m004;
shapes = (
{
closed = 1;
nodes = (
(263.647,312,l),
(340.647,312,ls),
(394.647,312,o),
(420.759,292,o),
(413.178,253,cs),
(412.012,247,ls),
(410.263,238,o),
(413.485,234,o),
(422.485,234,cs),
(448.485,234,ls),
(457.485,234,o),
(462.263,238,o),
(464.012,247,cs),
(502.888,447,ls),
(504.637,456,o),
(501.415,460,o),
(492.415,460,cs),
(466.415,460,ls),
(457.415,460,o),
(452.637,456,o),
(450.888,447,cs),
(449.722,441,ls),
(442.141,402,o),
(407.253,382,o),
(354.253,382,cs),
(277.253,382,l),
(319.239,598,l),
(444.239,598,ls),
(511.239,598,o),
(561.963,576,o),
(586.3,516,cs),
(588.328,511,ls),
(589.356,506,o),
(592.773,503,o),
(596.773,503,cs),
(599.773,503,o),
(601.968,504,o),
(607.551,507,cs),
(646.244,526,ls),
(650.827,529,o),
(654.41,532,o),
(655.382,537,cs),
(655.771,539,o),
(655.354,542,o),
(653.937,545,cs),
(608.069,664,ls),
(606.04,669,o),
(602.429,671,o),
(598.429,671,cs),
(595.429,671,o),
(592.429,671,o),
(590.04,669,cs),
(584.069,664,ls),
(579.485,661,o),
(575.291,660,o),
(566.291,660,cs),
(126.291,660,ls),
(117.291,660,o),
(111.319,655,o),
(109.57,646,cs),
(104.516,620,ls),
(102.961,612,o),
(107.794,606,o),
(115.794,606,cs),
(159.794,606,o),
(175.352,578,o),
(164.661,523,cs),
(89.436,136,ls),
(78.55,80,o),
(52.302,53,o),
(9.302,53,cs),
(8.302,53,ls),
(0.302,53,o),
(-6.67,48,o),
(-8.225,40,cs),
(-13.473,13,ls),
(-15.222,4,o),
(-11,0,o),
(-2,0,cs),
(269,0,ls),
(277,0,o),
(282.972,5,o),
(284.527,13,cs),
(289.775,40,ls),
(291.33,48,o),
(287.302,53,o),
(279.302,53,cs),
(272.302,53,ls),
(233.302,53,o),
(219.328,84,o),
(229.436,136,cs)
);
}
);
width = 611;
},
{
associatedMasterId = m004;
background = {
shapes = (
{
closed = 1;
nodes = (
(521,664,ls),
(518,670,o),
(514,672,o),
(510,672,cs),
(507,672,o),
(504,671,o),
(502,669,c),
(497,664,ls),
(492,660,o),
(487,660,o),
(480,660,cs),
(40,660,ls),
(31,660,o),
(26,656,o),
(26,647,cs),
(26,620,ls),
(26,612,o),
(31,607,o),
(40,607,cs),
(40,607,ls),
(89,607,o),
(105,571,o),
(105,524,cs),
(105,136,ls),
(105,90,o),
(90,55,o),
(45,53,c),
(40,53,ls),
(31,53,o),
(26,48,o),
(26,40,cs),
(26,13,ls),
(26,4,o),
(31,0,o),
(40,0,cs),
(311,0,ls),
(319,0,o),
(324,4,o),
(324,13,cs),
(324,40,ls),
(324,48,o),
(319,53,o),
(311,53,cs),
(304,53,l),
(260,55,o),
(245,90,o),
(245,136,cs),
(245,312,l),
(322,312,ls),
(368,312,o),
(403,297,o),
(406,253,c),
(406,247,ls),
(406,238,o),
(410,234,o),
(419,234,cs),
(445,234,ls),
(454,234,o),
(458,238,o),
(458,247,cs),
(458,448,ls),
(458,456,o),
(454,461,o),
(445,461,cs),
(419,461,ls),
(410,461,o),
(406,456,o),
(406,448,cs),
(406,442,l),
(403,397,o),
(368,382,o),
(322,382,cs),
(239,382,l),
(239,598,l),
(370,598,ls),
(441,598,o),
(495,573,o),
(528,517,cs),
(531,511,ls),
(533,507,o),
(537,504,o),
(541,504,cs),
(544,504,o),
(546,505,o),
(549,506,cs),
(586,526,ls),
(590,529,o),
(593,532,o),
(593,537,cs),
(593,539,o),
(592,542,o),
(590,545,cs)
);
}
);
};
hints = (
{
horizontal = 1;
place = (0,53);
type = Stem;
},
{
horizontal = 1;
place = (312,70);
type = Stem;
},
{
horizontal = 1;
place = (597,63);
type = Stem;
},
{
place = (104,141);
type = Stem;
},
{
place = (406,53);
type = Stem;
},
{
horizontal = 1;
place = (607,53);
type = Stem;
}
);
layerId = "D42EDF8D-1228-404D-853F-768660BE254B";
name = "23 mars 23 à 14:56";
shapes = (
{
closed = 1;
nodes = (
(521,664,ls),
(517,671,o),
(515,672,o),
(510,672,cs),
(508,672,o),
(505,671,o),
(503,670,cs),
(497,664,ls),
(493,660,o),
(489,660,o),
(480,660,cs),
(40,660,ls),
(31,660,o),
(26,656,o),
(26,647,cs),
(26,620,ls),
(26,612,o),
(31,607,o),
(40,607,cs),
(40,607,ls),
(83,607,o),
(105,579,o),
(105,524,cs),
(105,136,ls),
(105,84,o),
(84,55,o),
(45,53,c),
(40,53,ls),
(31,53,o),
(26,48,o),
(26,40,cs),
(26,13,ls),
(26,4,o),
(31,0,o),
(40,0,cs),
(311,0,ls),
(319,0,o),
(324,5,o),
(324,13,cs),
(324,40,ls),
(324,48,o),
(319,53,o),
(311,53,cs),
(304,53,l),
(265,55,o),
(245,84,o),
(245,136,cs),
(245,312,l),
(322,312,ls),
(375,312,o),
(403,292,o),
(406,253,c),
(406,247,ls),
(406,238,o),
(410,234,o),
(419,234,cs),
(445,234,ls),
(454,234,o),
(458,238,o),
(458,247,cs),
(458,448,ls),
(458,457,o),
(454,461,o),
(445,461,cs),
(419,461,ls),
(411,461,o),
(406,457,o),
(406,448,cs),
(406,442,l),
(403,402,o),
(375,382,o),
(322,382,cs),
(239,382,l),
(239,598,l),
(370,598,ls),
(444,598,o),
(500,574,o),
(528,517,cs),
(531,511,ls),
(533,507,o),
(538,504,o),
(541,504,cs),
(545,504,o),
(548,505,o),
(551,507,cs),
(586,526,ls),
(590,529,o),
(593,532,o),
(593,537,cs),
(593,539,o),
(592,542,o),
(590,545,cs)
);
}
);
width = 611;
}
);
note = F;
unicode = 70;
},
{
glyphname = G;
kernLeft = C;
kernRight = G;
lastChange = "2025-02-26 16:27:39 +0000";
layers = (
{
anchors = (
{
name = bottom;
pos = (306,0);
},
{
name = top;
pos = (442.291,660);
}
);
background = {
shapes = (
{
ref = C;
}
);
};
layerId = m003;
shapes = (
{
closed = 1;
nodes = (
(182.136,474,o),
(284.598,641,o),
(438.598,641,cs),
(551.598,641,o),
(592.825,565,o),
(577.08,484,cs),
(574.164,469,o),
(570.609,461,o),
(569.443,455,cs),
(567.888,447,o),
(572.888,447,o),
(578.888,447,cs),
(583.888,447,o),
(589.277,449,o),
(594.471,450,cs),
(637.415,460,ls),
(647.804,462,o),
(653.776,467,o),
(655.719,477,cs),
(662.911,514,o),
(656.429,671,o),
(444.429,671,cs),
(191.429,671,o),
(80.553,471,o),
(51.785,323,cs),
(15.241,135,o),
(107.862,-11,o),
(304.862,-11,cs),
(438.862,-11,o),
(546.885,56,o),
(606.157,150,c),
(628.705,266,ls),
(632.593,286,o),
(640.342,295,o),
(657.342,295,cs),
(664.342,295,ls),
(672.342,295,o),
(678.12,299,o),
(679.869,308,cs),
(681.035,314,ls),
(682.59,322,o),
(678.562,327,o),
(670.562,327,cs),
(452.562,327,ls),
(444.562,327,o),
(438.785,323,o),
(437.035,314,cs),
(435.869,308,ls),
(434.12,299,o),
(438.342,295,o),
(446.342,295,cs),
(453.342,295,ls),
(498.342,295,o),
(546.953,293,o),
(527.515,193,cs),
(514.492,126,ls),
(500.497,54,o),
(385.693,19,o),
(318.693,19,cs),
(174.693,19,o),
(120.518,157,o),
(159.977,360,cs)
);
}
);
width = 679;
},
{
anchors = (
{
name = bottom;
pos = (306,0);
},
{
name = top;
pos = (426.291,660);
}
);
background = {
shapes = (
{
ref = C;
}
);
};
layerId = m004;
shapes = (
{
closed = 1;
nodes = (
(236.773,503,o),
(321.823,601,o),
(422.823,601,cs),
(509.823,601,o),
(540.965,540,o),
(525.221,459,cs),
(522.305,444,o),
(518.75,436,o),
(517.584,430,cs),
(516.028,422,o),
(521.028,422,o),
(527.028,422,cs),
(532.028,422,o),
(537.223,423,o),
(542.612,425,cs),
(657.998,463,ls),
(668.581,466,o),
(674.359,470,o),
(676.303,480,cs),
(683.495,517,o),
(656.429,671,o),
(444.429,671,cs),
(191.429,671,o),
(80.553,471,o),
(51.785,323,cs),
(15.241,135,o),
(107.862,-11,o),
(304.862,-11,cs),
(438.862,-11,o),
(546.885,56,o),
(606.157,150,c),
(624.818,246,ls),
(628.705,266,o),
(636.455,275,o),
(653.455,275,cs),
(660.455,275,ls),
(668.455,275,o),
(674.232,279,o),
(675.982,288,cs),
(681.035,314,ls),
(682.59,322,o),
(678.562,327,o),
(670.562,327,cs),
(392.562,327,ls),
(384.562,327,o),
(378.785,323,o),
(377.035,314,cs),
(371.982,288,ls),
(370.232,279,o),
(374.455,275,o),
(382.455,275,cs),
(389.455,275,ls),
(434.455,275,o),
(483.066,273,o),
(463.628,173,cs),
(454.881,128,ls),
(446.717,86,o),
(382.384,74,o),
(343.384,74,cs),
(207.384,74,o),
(183.902,231,o),
(209.366,362,cs)
);
}
);
width = 679;
}
);
note = G;
unicode = 71;
},
{
glyphname = H;
kernLeft = B;
kernRight = H;
lastChange = "2025-02-26 16:27:39 +0000";
layers = (
{
anchors = (
{
name = bottom;
pos = (311,0);
},
{
name = top;
pos = (439.291,660);
}
);
layerId = m003;
shapes = (
{
closed = 1;
nodes = (
(664.743,544,ls),
(673.684,590,o),
(694.876,627,o),
(739.876,627,cs),
(745.876,627,ls),
(753.876,627,o),
(759.848,632,o),
(761.403,640,cs),
(762.764,647,ls),
(764.513,656,o),
(760.291,660,o),
(752.291,660,cs),
(538.291,660,ls),
(530.291,660,o),
(524.513,656,o),
(522.764,647,cs),
(521.403,640,ls),
(519.848,632,o),
(523.876,627,o),
(531.876,627,cs),
(537.876,627,ls),
(582.876,627,o),
(590.684,590,o),
(581.743,544,cs),
(546.171,361,l),
(215.171,361,l),
(250.743,544,ls),
(259.684,590,o),
(281.876,627,o),
(325.876,627,cs),
(331.876,627,ls),
(340.876,627,o),
(345.848,632,o),
(347.403,640,cs),
(348.764,647,ls),
(350.513,656,o),
(347.291,660,o),
(338.291,660,cs),
(126.291,660,ls),
(117.291,660,o),
(111.513,656,o),
(109.764,647,cs),
(108.403,640,ls),
(106.848,632,o),
(110.876,627,o),
(119.876,627,cs),
(124.876,627,ls),
(169.876,627,o),
(176.684,590,o),
(167.743,544,cs),
(84.548,116,ls),
(75.607,70,o),
(54.415,33,o),
(9.415,33,cs),
(4.415,33,ls),
(-4.585,33,o),
(-10.557,28,o),
(-12.112,20,cs),
(-13.473,13,ls),
(-15.222,4,o),
(-11,0,o),
(-2,0,cs),
(210,0,ls),
(219,0,o),
(223.778,4,o),
(225.527,13,cs),
(226.888,20,ls),
(228.443,28,o),
(225.415,33,o),
(216.415,33,cs),
(210.415,33,ls),
(166.415,33,o),
(158.607,70,o),
(167.548,116,cs),
(207.979,324,l),
(538.979,324,l),
(498.548,116,ls),
(489.607,70,o),
(467.415,33,o),
(422.415,33,cs),
(416.415,33,ls),
(408.415,33,o),
(402.443,28,o),
(400.888,20,cs),
(399.527,13,ls),
(397.778,4,o),
(402,0,o),
(410,0,cs),
(624,0,ls),
(632,0,o),
(637.778,4,o),
(639.527,13,cs),
(640.888,20,ls),
(642.443,28,o),
(638.415,33,o),
(630.415,33,cs),
(624.415,33,ls),
(579.415,33,o),
(572.607,70,o),
(581.548,116,cs)
);
}
);
width = 705;
},
{
anchors = (
{
name = bottom;
pos = (353,0);
},
{
name = top;
pos = (481.291,660);
}
);
layerId = m004;
shapes = (
{
closed = 1;
nodes = (
(745.855,524,ls),
(754.797,570,o),
(775.989,607,o),
(820.989,607,cs),
(826.989,607,ls),
(834.989,607,o),
(840.961,612,o),
(842.516,620,cs),
(847.764,647,ls),
(849.513,656,o),
(845.291,660,o),
(837.291,660,cs),
(566.291,660,ls),
(558.291,660,o),
(552.513,656,o),
(550.764,647,cs),
(545.516,620,ls),
(543.961,612,o),
(547.989,607,o),
(555.989,607,cs),
(561.989,607,ls),
(606.989,607,o),
(614.797,570,o),
(605.855,524,cs),
(576.504,373,l),
(275.504,373,l),
(304.855,524,ls),
(313.797,570,o),
(335.989,607,o),
(379.989,607,cs),
(385.989,607,ls),
(394.989,607,o),
(399.961,612,o),
(401.516,620,cs),
(406.764,647,ls),
(408.513,656,o),
(405.291,660,o),
(396.291,660,cs),
(126.291,660,ls),
(117.291,660,o),
(111.513,656,o),
(109.764,647,cs),
(104.516,620,ls),
(102.961,612,o),
(106.989,607,o),
(115.989,607,cs),
(120.989,607,ls),
(165.989,607,o),
(172.797,570,o),
(163.855,524,cs),
(88.436,136,ls),
(79.494,90,o),
(58.302,53,o),
(13.302,53,cs),
(8.302,53,ls),
(-0.698,53,o),
(-6.67,48,o),
(-8.225,40,cs),
(-13.473,13,ls),
(-15.222,4,o),
(-11,0,o),
(-2,0,cs),
(268,0,ls),
(277,0,o),
(281.778,4,o),
(283.527,13,cs),
(288.775,40,ls),
(290.33,48,o),
(287.302,53,o),
(278.302,53,cs),
(272.302,53,ls),
(228.302,53,o),
(220.494,90,o),
(229.436,136,cs),
(262.092,304,l),
(563.092,304,l),
(530.436,136,ls),
(521.494,90,o),
(499.302,53,o),
(454.302,53,cs),
(448.302,53,ls),
(440.302,53,o),
(434.33,48,o),
(432.775,40,cs),
(427.527,13,ls),
(425.778,4,o),
(430,0,o),
(438,0,cs),
(709,0,ls),
(717,0,o),
(722.778,4,o),
(724.527,13,cs),
(729.775,40,ls),
(731.33,48,o),
(727.302,53,o),
(719.302,53,cs),
(713.302,53,ls),
(668.302,53,o),
(661.494,90,o),
(670.436,136,cs)
);
}
);
width = 790;
}
);
note = H;
unicode = 72;
},
{
glyphname = Hbar;
kernLeft = B;
kernRight = H;
lastChange = "2025-02-27 12:05:54 +0000";
layers = (
{
layerId = m003;
shapes = (
{
ref = H;
},
{
closed = 1;
nodes = (
(697.027,440,ls),
(706.027,440,o),
(710.805,444,o),
(712.554,453,cs),
(715.276,467,ls),
(717.025,476,o),
(713.803,480,o),
(704.803,480,cs),
(102.803,480,ls),
(94.803,480,o),
(89.025,476,o),
(87.276,467,cs),
(84.554,453,ls),
(82.805,444,o),
(87.027,440,o),
(95.027,440,cs)
);
}
);
width = 705;
},
{
layerId = m004;
shapes = (
{
ref = H;
},
{
closed = 1;
nodes = (
(799.527,440,ls),
(808.527,440,o),
(813.305,444,o),
(815.054,453,cs),
(823.607,497,ls),
(825.356,506,o),
(822.134,510,o),
(813.134,510,cs),
(91.134,510,ls),
(83.134,510,o),
(77.356,506,o),
(75.607,497,cs),
(67.054,453,ls),
(65.305,444,o),
(69.527,440,o),
(77.527,440,cs)
);
}
);
width = 790;
}
);
note = Hbar;
unicode = 294;
},
{
glyphname = I;
kernLeft = I;
kernRight = I;
lastChange = "2025-02-26 16:27:39 +0000";
layers = (
{
anchors = (
{
name = bottom;
pos = (107,0);
},
{
name = ogonek;
pos = (213,0);
},
{
name = top;
pos = (235.291,660);
}
);
layerId = m003;
shapes = (
{
closed = 1;
nodes = (
(254.743,544,ls),
(263.684,590,o),
(285.876,627,o),
(329.876,627,cs),
(334.876,627,ls),
(343.876,627,o),
(348.848,632,o),
(350.403,640,cs),
(351.764,647,ls),
(353.513,656,o),
(350.291,660,o),
(341.291,660,cs),
(129.291,660,ls),
(120.291,660,o),
(115.513,656,o),
(113.764,647,cs),
(112.403,640,ls),
(110.848,632,o),
(113.876,627,o),
(122.876,627,cs),
(128.876,627,ls),
(173.876,627,o),
(180.684,590,o),
(171.743,544,cs),
(88.548,116,ls),
(79.607,70,o),
(58.415,33,o),
(13.415,33,cs),
(7.415,33,ls),
(-1.585,33,o),
(-6.557,28,o),
(-8.112,20,cs),
(-9.473,13,ls),
(-11.222,4,o),
(-8,0,o),
(1,0,cs),
(213,0,ls),
(222,0,o),
(226.778,4,o),
(228.527,13,cs),
(229.888,20,ls),
(231.443,28,o),
(228.415,33,o),
(219.415,33,cs),
(214.415,33,ls),
(170.415,33,o),
(162.607,70,o),
(171.548,116,cs)
);
}
);
width = 298;
},
{
anchors = (
{
name = bottom;
pos = (138,0);
},
{
name = ogonek;
pos = (272,0);
},
{
name = top;
pos = (266.291,660);
}
);
layerId = m004;
shapes = (
{
closed = 1;
nodes = (
(309.855,524,ls),
(318.797,570,o),
(340.989,607,o),
(384.989,607,cs),
(389.989,607,ls),
(398.989,607,o),
(403.961,612,o),
(405.516,620,cs),
(410.764,647,ls),
(412.513,656,o),
(409.291,660,o),
(400.291,660,cs),
(130.291,660,ls),
(121.291,660,o),
(116.513,656,o),
(114.764,647,cs),
(109.516,620,ls),
(107.961,612,o),
(110.989,607,o),
(119.989,607,cs),
(125.989,607,ls),
(170.989,607,o),
(177.797,570,o),
(168.855,524,cs),
(93.436,136,ls),
(84.494,90,o),
(63.302,53,o),
(18.302,53,cs),
(12.302,53,ls),
(3.302,53,o),
(-1.67,48,o),
(-3.225,40,cs),
(-8.473,13,ls),
(-10.222,4,o),
(-7,0,o),
(2,0,cs),
(272,0,ls),
(281,0,o),
(285.778,4,o),
(287.527,13,cs),
(292.775,40,ls),
(294.33,48,o),
(291.302,53,o),
(282.302,53,cs),
(277.302,53,ls),
(233.302,53,o),
(225.494,90,o),
(234.436,136,cs)
);
}
);
width = 358;
}
);
note = I;
unicode = 73;
},
{
glyphname = J;
kernLeft = J;
kernRight = IJ;
lastChange = "2025-02-26 16:27:39 +0000";
layers = (
{
anchors = (
{
name = top;
pos = (342.291,660);
}
);
layerId = m003;
shapes = (
{
closed = 1;
nodes = (
(240.291,660,ls),
(232.291,660,o),
(226.513,656,o),
(224.764,647,cs),
(223.403,640,ls),
(221.848,632,o),
(225.876,627,o),
(233.876,627,cs),
(239.876,627,ls),
(284.876,627,o),
(292.684,590,o),
(283.743,544,cs),
(203.853,133,ls),
(186.941,46,o),
(152.499,18,o),
(117.499,18,cs),
(64.499,18,o),
(68.023,67,o),
(74.049,98,cs),
(78.131,119,o),
(87.518,157,o),
(89.267,166,cs),
(90.822,174,o),
(88.6,178,o),
(83.6,178,cs),
(79.6,178,o),
(76.405,177,o),
(69.628,173,cs),
(2.241,135,ls),
(-7.925,129,o),
(-14.091,123,o),
(-15.841,114,cs),
(-20.7,89,o),
(-9.138,-11,o),
(111.862,-11,cs),
(222.862,-11,o),
(272.857,61,o),
(292.49,162,cs),
(366.743,544,ls),
(375.49,589,o),
(397.876,627,o),
(442.876,627,cs),
(447.876,627,ls),
(456.876,627,o),
(461.848,632,o),
(463.403,640,cs),
(464.764,647,ls),
(466.513,656,o),
(463.291,660,o),
(454.291,660,cs)
);
}
);
width = 403;
},
{
anchors = (
{
name = top;
pos = (377.291,660);
}
);
layerId = m004;
shapes = (
{
closed = 1;
nodes = (
(242.291,660,ls),
(234.291,660,o),
(228.513,656,o),
(226.764,647,cs),
(221.516,620,ls),
(219.961,612,o),
(223.989,607,o),
(231.989,607,cs),
(237.989,607,ls),
(282.989,607,o),
(290.797,570,o),
(281.855,524,cs),
(201.965,113,ls),
(194.773,76,o),
(170.33,48,o),
(135.33,48,cs),
(92.33,48,o),
(95.855,97,o),
(101.881,128,cs),
(105.963,149,o),
(109.518,157,o),
(111.267,166,cs),
(112.822,174,o),
(110.6,178,o),
(105.6,178,cs),
(101.6,178,o),
(98.405,177,o),
(91.628,173,cs),
(1.075,129,ls),
(-8.897,124,o),
(-15.258,117,o),
(-17.007,108,cs),
(-21.866,83,o),
(2.862,-11,o),
(123.862,-11,cs),
(274.862,-11,o),
(337.689,91,o),
(357.321,192,cs),
(421.855,524,ls),
(430.602,569,o),
(452.989,607,o),
(497.989,607,cs),
(502.989,607,ls),
(511.989,607,o),
(516.961,612,o),
(518.516,620,cs),
(523.764,647,ls),
(525.513,656,o),
(522.291,660,o),
(513.291,660,cs)
);
}
);
width = 462;
}
);
note = J;
unicode = 74;
},
{
glyphname = K;
kernLeft = B;
kernRight = K;
lastChange = "2025-02-27 13:11:43 +0000";
layers = (
{
anchors = (
{
name = bottom;
pos = (288,0);
}
);
background = {
anchors = (
{
name = bottom;
pos = (330,0);
}
);
shapes = (
{
closed = 1;
nodes = (
(649,53,ls),
(618,53,o),
(616,55,o),
(562,136,cs),
(379,410,l),
(508,549,ls),
(551,596,o),
(570,607,o),
(606,607,cs),
(616,607,ls),
(623,607,o),
(628,612,o),
(628,620,cs),
(628,647,ls),
(628,656,o),
(622,660,o),
(614,660,cs),
(392,660,ls),
(384,660,o),
(379,655,o),
(379,647,cs),
(379,620,ls),
(379,612,o),
(383,607,o),
(390,607,cs),
(408,607,ls),
(419,607,o),
(426,601,o),
(426,591,cs),
(426,585,o),
(424,577,o),
(417,570,cs),
(176,302,l),
(218,286,l),
(218,523,ls),
(218,578,o),
(238,607,o),
(276,607,cs),
(283,607,ls),
(291,607,o),
(296,612,o),
(296,620,cs),
(296,647,ls),
(296,656,o),
(291,660,o),
(283,660,cs),
(12,660,ls),
(3,660,o),
(-2,656,o),
(-2,647,cs),
(-2,620,ls),
(-2,612,o),
(3,607,o),
(12,607,cs),
(19,607,ls),
(56,607,o),
(77,578,o),
(77,524,cs),
(77,136,ls),
(77,81,o),
(56,53,o),
(18,53,cs),
(12,53,ls),
(3,53,o),
(-2,48,o),
(-2,40,cs),
(-2,13,ls),
(-2,4,o),
(3,0,o),
(12,0,cs),
(282,0,ls),
(291,0,o),
(295,4,o),
(295,13,cs),
(295,40,ls),
(295,48,o),
(291,53,o),
(282,53,cs),
(276,53,ls),
(238,53,o),
(218,82,o),
(218,136,cs),
(218,300,l),
(176,190,l),
(292,318,l),
(421,136,ls),
(431,121,o),
(437,107,o),
(437,94,cs),
(437,70,o),
(417,53,o),
(389,53,cs),
(384,53,ls),
(375,53,o),
(371,48,o),
(371,40,cs),
(371,13,ls),
(371,4,o),
(375,0,o),
(384,0,cs),
(654,0,ls),
(663,0,o),
(667,4,o),
(667,13,cs),
(667,40,ls),
(667,48,o),
(663,53,o),
(654,53,cs)
);
}
);
};
layerId = m003;
shapes = (
{
closed = 1;
nodes = (
(210,0,ls),
(219,0,o),
(223.778,4,o),
(225.527,13,cs),
(226.888,20,ls),
(228.443,28,o),
(225.415,33,o),
(216.415,33,cs),
(210.415,33,ls),
(172.415,33,o),
(158.06,61.998,o),
(168.548,116,cs),
(197.643,265.801,l),
(176.599,222.506,l),
(332.949,365,l),
(310.726,369,l),
(445.021,103,ls),
(464.635,65,o),
(445.415,33,o),
(391.415,33,cs),
(386.415,33,ls),
(377.415,33,o),
(372.443,28,o),
(370.888,20,cs),
(369.527,13,ls),
(367.778,4,o),
(371,0,o),
(380,0,cs),
(595,0,ls),
(604,0,o),
(608.778,4,o),
(610.527,13,cs),
(611.888,20,ls),
(613.443,28,o),
(610.415,33,o),
(601.415,33,cs),
(596.415,33,ls),
(565.415,33,o),
(566.192,37,o),
(525.548,116,cs),
(378.335,403,l),
(542.715,549,ls),
(607.989,607,o),
(619.876,627,o),
(655.876,627,cs),
(665.876,627,ls),
(672.876,627,o),
(678.848,632,o),
(680.403,640,cs),
(681.764,647,ls),
(683.513,656,o),
(678.291,660,o),
(670.291,660,cs),
(488.291,660,ls),
(480.291,660,o),
(474.319,655,o),
(472.764,647,cs),
(471.403,640,ls),
(469.848,632,o),
(472.876,627,o),
(479.876,627,cs),
(507.876,627,ls),
(539.876,627,o),
(538.486,607.674,o),
(523.462,594,cs),
(176.599,278.315,l),
(200.099,278.315,l),
(251.549,543,ls),
(262.24,598,o),
(287.876,627,o),
(325.876,627,cs),
(332.876,627,ls),
(340.876,627,o),
(346.848,632,o),
(348.403,640,cs),
(349.764,647,ls),
(351.513,656,o),
(347.291,660,o),
(339.291,660,cs),
(126.291,660,ls),
(117.291,660,o),
(111.513,656,o),
(109.764,647,cs),
(108.403,640,ls),
(106.848,632,o),
(110.876,627,o),
(119.876,627,cs),
(126.876,627,ls),
(163.876,627,o),
(179.239,598,o),
(168.743,544,cs),
(85.548,116,ls),
(74.857,61,o),
(48.415,33,o),
(10.415,33,cs),
(4.415,33,ls),
(-4.585,33,o),
(-10.557,28,o),
(-12.112,20,cs),
(-13.473,13,ls),
(-15.222,4,o),
(-11,0,o),
(-2,0,cs)
);
}
);
width = 657;
},
{
anchors = (
{
name = bottom;
pos = (316,0);
}
);
layerId = m004;
shapes = (
{
closed = 1;
nodes = (
(268,0,ls),
(277,0,o),
(281.778,4,o),
(283.527,13,cs),
(288.775,40,ls),
(290.33,48,o),
(287.302,53,o),
(278.302,53,cs),
(272.302,53,ls),
(234.302,53,o),
(219.94,82,o),
(230.436,136,cs),
(255.985,267.439,l),
(198.932,190,l),
(390.949,365,l),
(313.726,369,l),
(448.827,102,ls),
(459.55,80,o),
(439.302,53,o),
(385.302,53,cs),
(380.302,53,ls),
(371.302,53,o),
(366.33,48,o),
(364.775,40,cs),
(359.527,13,ls),
(357.778,4,o),
(361,0,o),
(370,0,cs),
(640,0,ls),
(649,0,o),
(653.778,4,o),
(655.527,13,cs),
(660.775,40,ls),
(662.33,48,o),
(659.302,53,o),
(650.302,53,cs),
(645.302,53,ls),
(614.302,53,o),
(612.691,55,o),
(574.436,136,cs),
(444.696,410,l),
(600.715,549,ls),
(652.851,596,o),
(673.989,607,o),
(709.989,607,cs),
(719.989,607,ls),
(726.989,607,o),
(732.961,612,o),
(734.516,620,cs),
(739.764,647,ls),
(741.513,656,o),
(736.291,660,o),
(728.291,660,cs),
(506.291,660,ls),
(498.291,660,o),
(492.319,655,o),
(490.764,647,cs),
(485.516,620,ls),
(483.961,612,o),
(486.989,607,o),
(493.989,607,cs),
(511.989,607,ls),
(533.989,607,o),
(530.518,584,o),
(513.797,570,cs),
(220.703,302,l),
(262.956,304.004,l),
(305.661,523,ls),
(316.385,577.994,o),
(341.989,607,o),
(379.989,607,cs),
(386.989,607,ls),
(394.989,607,o),
(400.961,612,o),
(402.516,620,cs),
(407.764,647,ls),
(409.513,656,o),
(405.291,660,o),
(397.291,660,cs),
(126.291,660,ls),
(117.291,660,o),
(111.513,656,o),
(109.764,647,cs),
(104.516,620,ls),
(102.961,612,o),
(106.989,607,o),
(115.989,607,cs),
(122.989,607,ls),
(159.989,607,o),
(175.352,578,o),
(164.855,524,cs),
(89.436,136,ls),
(78.745,81,o),
(52.302,53,o),
(14.302,53,cs),
(8.302,53,ls),
(-0.698,53,o),
(-6.67,48,o),
(-8.225,40,cs),
(-13.473,13,ls),
(-15.222,4,o),
(-11,0,o),
(-2,0,cs)
);
}
);
width = 702;
}
);
note = K;
unicode = 75;
},
{
glyphname = L;
kernLeft = B;
kernRight = E;
lastChange = "2026-05-05 11:05:53 +0000";
layers = (
{
anchors = (
{
name = bottom;
pos = (240,0);
},
{
name = middle;
pos = (344.035,314);
},
{
name = top;
pos = (232.291,660);
}
);
layerId = m003;
shapes = (
{
closed = 1;
nodes = (
(545.321,192,ls),
(543.515,193,o),
(540.904,195,o),
(537.904,195,cs),
(532.904,195,o),
(529.321,192,o),
(526.349,187,cs),
(522.183,181,ls),
(440.246,63,o),
(332.22,32,o),
(247.22,32,cs),
(212.22,32,ls),
(173.22,32,o),
(158.052,62,o),
(168.548,116,cs),
(267.682,626,l),
(329.682,626,ls),
(339.682,626,o),
(346.848,632,o),
(348.403,640,cs),
(349.57,646,ls),
(351.125,654,o),
(345.291,660,o),
(335.291,660,cs),
(126.291,660,ls),
(117.291,660,o),
(111.319,655,o),
(109.57,646,cs),
(108.403,640,ls),
(106.848,632,o),
(111.682,626,o),
(119.682,626,cs),
(163.682,626,o),
(179.239,598,o),
(168.549,543,cs),
(85.548,116,ls),
(74.857,61,o),
(48.415,33,o),
(4.415,33,cs),
(-3.585,33,o),
(-10.557,28,o),
(-12.112,20,cs),
(-13.473,13,ls),
(-15.222,4,o),
(-11,0,o),
(-2,0,cs),
(398,0,ls),
(409,0,o),
(412.806,-1,o),
(415.222,-4,cs),
(420.862,-11,o),
(423.667,-12,o),
(425.667,-12,cs),
(430.667,-12,o),
(434.056,-10,o),
(438.222,-4,cs),
(555.045,170,ls),
(558.017,175,o),
(558.405,177,o),
(558.6,178,cs),
(559.766,184,o),
(556.96,185,o),
(552.543,188,cs)
);
}
);
width = 575;
},
{
anchors = (
{
name = bottom;
pos = (274,0);
},
{
name = middle;
pos = (423.232,279);
},
{
name = top;
pos = (260.291,660);
}
);
layerId = m004;
shapes = (
{
closed = 1;
nodes = (
(567.848,205,ls),
(566.237,207,o),
(563.431,208,o),
(560.431,208,cs),
(555.431,208,o),
(551.848,205,o),
(548.876,200,cs),
(544.71,194,ls),
(473.883,92,o),
(395.052,62,o),
(310.052,62,cs),
(275.052,62,ls),
(236.052,62,o),
(220.883,92,o),
(231.38,146,cs),
(320.794,606,l),
(382.794,606,ls),
(392.794,606,o),
(399.961,612,o),
(401.516,620,cs),
(406.57,646,ls),
(408.125,654,o),
(402.291,660,o),
(392.291,660,cs),
(126.291,660,ls),
(117.291,660,o),
(111.319,655,o),
(109.57,646,cs),
(104.516,620,ls),
(102.961,612,o),
(107.794,606,o),
(115.794,606,cs),
(159.794,606,o),
(175.352,578,o),
(164.661,523,cs),
(89.436,136,ls),
(78.745,81,o),
(52.302,53,o),
(8.302,53,cs),
(0.302,53,o),
(-6.67,48,o),
(-8.225,40,cs),
(-13.473,13,ls),
(-15.222,4,o),
(-11,0,o),
(-2,0,cs),
(438,0,ls),
(449,0,o),
(452.806,-1,o),
(455.222,-4,cs),
(460.862,-11,o),
(463.667,-12,o),
(465.667,-12,cs),
(470.667,-12,o),
(474.056,-10,o),
(478.222,-4,cs),
(595.045,170,ls),
(598.017,175,o),
(598.405,177,o),
(598.6,178,cs),
(599.766,184,o),
(598.155,186,o),
(592.543,188,cs)
);
}
);
width = 615;
}
);
note = L;
unicode = 76;
},
{
glyphname = Lslash;
kernLeft = B;
kernRight = E;
lastChange = "2025-02-26 16:18:05 +0000";
layers = (
{
layerId = m003;
shapes = (
{
closed = 1;
nodes = (
(20,330,ls),
(13.188,327.431,o),
(11,323,o),
(11,315,cs),
(11,295,ls),
(11,287,o),
(13,283,o),
(18,283,cs),
(21,283,o),
(23.907,283.214,o),
(26,284,cs),
(323.918,396,ls),
(331.047,398.68,o),
(332.918,403,o),
(332.918,411,cs),
(332.918,432,ls),
(332.918,440,o),
(330.918,444,o),
(324.918,444,cs),
(322.918,444,o),
(319.877,443.116,o),
(316.918,442,cs)
);
},
{
ref = L;
}
);
width = 624;
},
{
layerId = m004;
shapes = (
{
closed = 1;
nodes = (
(20,350,ls),
(13,348,o),
(11,343,o),
(11,335,cs),
(11,265,ls),
(11,257,o),
(13,253,o),
(18,253,cs),
(21,253,o),
(24,253,o),
(26,254,cs),
(355,378,ls),
(362,381,o),
(364,385,o),
(364,393,cs),
(364,464,ls),
(364,472,o),
(362,476,o),
(356,476,cs),
(354,476,o),
(351,475,o),
(348,474,cs)
);
},
{
ref = L;
}
);
width = 624;
}
);
note = Lslash;
unicode = 321;
},
{
glyphname = M;
kernLeft = B;
kernRight = H;
lastChange = "2026-05-05 07:53:04 +0000";
layers = (
{
anchors = (
{
name = bottom;
pos = (389,0);
},
{
name = top;
pos = (517.291,660);
}
);
layerId = m003;
shapes = (
{
closed = 1;
nodes = (
(834.35,614,l),
(853.293,624,o),
(871.876,627,o),
(891.876,627,cs),
(899.876,627,o),
(905.848,632,o),
(907.403,640,cs),
(908.764,647,ls),
(910.513,656,o),
(906.291,660,o),
(898.291,660,cs),
(787.291,660,ls),
(780.291,660,o),
(776.902,658,o),
(772.736,652,cs),
(393.827,102,l),
(406.827,102,l),
(262.736,652,ls),
(260.902,658,o),
(256.291,660,o),
(249.291,660,cs),
(136.291,660,ls),
(127.291,660,o),
(122.513,656,o),
(120.764,647,cs),
(119.403,640,ls),
(117.848,632,o),
(120.876,627,o),
(129.876,627,cs),
(149.876,627,o),
(167.293,624,o),
(182.35,614,c),
(85.548,116,ls),
(76.412,69,o),
(47.415,33,o),
(4.415,33,cs),
(-4.585,33,o),
(-10.557,28,o),
(-12.112,20,cs),
(-13.473,13,ls),
(-15.222,4,o),
(-11,0,o),
(-2,0,cs),
(175,0,ls),
(183,0,o),
(188.778,4,o),
(190.527,13,cs),
(191.888,20,ls),
(193.443,28,o),
(189.415,33,o),
(181.415,33,cs),
(138.415,33,o),
(124.412,69,o),
(133.548,116,cs),
(224.907,586,l),
(203.017,602,l),
(347.525,49,ls),
(349.358,43,o),
(353.775,40,o),
(360.775,40,cs),
(411.775,40,ls),
(418.775,40,o),
(424.358,43,o),
(428.525,49,cs),
(808.823,601,l),
(780.907,586,l),
(689.548,116,ls),
(680.412,69,o),
(652.415,33,o),
(609.415,33,cs),
(601.415,33,o),
(595.443,28,o),
(593.888,20,cs),
(592.527,13,ls),
(590.778,4,o),
(595,0,o),
(603,0,cs),
(780,0,ls),
(789,0,o),
(793.778,4,o),
(795.527,13,cs),
(796.888,20,ls),
(798.443,28,o),
(795.415,33,o),
(786.415,33,cs),
(743.415,33,o),
(728.412,69,o),
(737.548,116,cs)
);
}
);
width = 861;
},
{
anchors = (
{
name = bottom;
pos = (414,0);
},
{
name = top;
pos = (542.291,660);
}
);
layerId = m004;
shapes = (
{
closed = 1;
nodes = (
(880.462,594,l),
(899.406,604,o),
(917.989,607,o),
(937.989,607,cs),
(945.989,607,o),
(951.961,612,o),
(953.516,620,cs),
(958.764,647,ls),
(960.513,656,o),
(956.291,660,o),
(948.291,660,cs),
(782.291,660,ls),
(775.291,660,o),
(774.902,658,o),
(770.736,652,cs),
(419.602,142,l),
(469.602,142,l),
(315.736,652,ls),
(314.902,658,o),
(309.291,660,o),
(302.291,660,cs),
(136.291,660,ls),
(127.291,660,o),
(122.513,656,o),
(120.764,647,cs),
(115.516,620,ls),
(113.961,612,o),
(116.989,607,o),
(125.989,607,cs),
(145.989,607,o),
(163.406,604,o),
(178.462,594,c),
(89.436,136,ls),
(80.3,89,o),
(51.302,53,o),
(8.302,53,cs),
(-0.698,53,o),
(-6.67,48,o),
(-8.225,40,cs),
(-13.473,13,ls),
(-15.222,4,o),
(-11,0,o),
(-2,0,cs),
(215,0,ls),
(223,0,o),
(228.778,4,o),
(230.527,13,cs),
(235.775,40,ls),
(237.33,48,o),
(233.302,53,o),
(225.302,53,cs),
(182.302,53,o),
(168.3,89,o),
(177.436,136,cs),
(254.605,533,l),
(225.438,527,l),
(367.525,49,ls),
(369.358,43,o),
(373.775,40,o),
(380.775,40,cs),
(461.775,40,ls),
(468.775,40,o),
(475.358,43,o),
(478.525,49,cs),
(807.244,526,l),
(780.605,533,l),
(703.436,136,ls),
(694.3,89,o),
(666.302,53,o),
(623.302,53,cs),
(615.302,53,o),
(609.33,48,o),
(607.775,40,cs),
(602.527,13,ls),
(600.778,4,o),
(605,0,o),
(613,0,cs),
(830,0,ls),
(839,0,o),
(843.778,4,o),
(845.527,13,cs),
(850.775,40,ls),
(852.33,48,o),
(849.302,53,o),
(840.302,53,cs),
(797.302,53,o),
(782.3,89,o),
(791.436,136,cs)
);
}
);
width = 912;
}
);
note = M;
unicode = 77;
},
{
glyphname = N;
kernLeft = B;
kernRight = N;
lastChange = "2026-05-05 11:07:38 +0000";
layers = (
{
anchors = (
{
name = bottom;
pos = (329,0);
},
{
name = top;
pos = (457.291,660);
}
);
layerId = m003;
shapes = (
{
closed = 1;
nodes = (
(582.935,660,ls),
(573.935,660,o),
(569.157,656,o),
(567.408,647,cs),
(566.047,640,ls),
(564.492,632,o),
(567.52,627,o),
(576.52,627,cs),
(619.52,627,o),
(634.717,592,o),
(625.387,544,cs),
(530.141,54,l),
(572.497,54,l),
(250.736,652,ls),
(247.708,657,o),
(244.291,660,o),
(237.291,660,cs),
(134.291,660,ls),
(126.291,660,o),
(120.513,656,o),
(118.764,647,cs),
(117.403,640,ls),
(115.848,632,o),
(119.876,627,o),
(127.876,627,cs),
(149.876,627,o),
(164.516,620,o),
(179.6,605,c),
(84.548,116,ls),
(75.412,69,o),
(47.415,33,o),
(4.415,33,cs),
(-4.585,33,o),
(-10.557,28,o),
(-12.112,20,cs),
(-13.473,13,ls),
(-15.222,4,o),
(-11,0,o),
(-2,0,cs),
(175,0,ls),
(183,0,o),
(188.778,4,o),
(190.527,13,cs),
(191.888,20,ls),
(193.443,28,o),
(189.415,33,o),
(181.415,33,cs),
(138.415,33,o),
(123.412,69,o),
(132.548,116,cs),
(228.572,610,l),
(199.129,582,l),
(507.555,8,ls),
(510.583,3,o),
(515,0,o),
(522,0,cs),
(554.644,0,ls),
(562.644,0,o),
(568.422,4,o),
(570.171,13,cs),
(673.387,544,ls),
(682.717,592,o),
(710.52,627,o),
(753.52,627,cs),
(762.52,627,o),
(767.492,632,o),
(769.047,640,cs),
(770.408,647,ls),
(772.157,656,o),
(768.935,660,o),
(759.935,660,cs)
);
}
);
width = 695.64;
},
{
anchors = (
{
name = bottom;
pos = (359,0);
},
{
name = top;
pos = (487.291,660);
}
);
layerId = m004;
shapes = (
{
closed = 1;
nodes = (
(631.291,660,ls),
(622.291,660,o),
(617.513,656,o),
(615.764,647,cs),
(610.516,620,ls),
(608.961,612,o),
(611.989,607,o),
(620.989,607,cs),
(663.989,607,o),
(679.186,572,o),
(669.855,524,cs),
(595.213,140,l),
(640.323,156,l),
(300.736,652,ls),
(297.708,657,o),
(294.291,660,o),
(287.291,660,cs),
(134.291,660,ls),
(126.291,660,o),
(120.513,656,o),
(118.764,647,cs),
(113.516,620,ls),
(111.961,612,o),
(115.989,607,o),
(123.989,607,cs),
(145.989,607,o),
(160.628,600,o),
(175.712,585,c),
(88.436,136,ls),
(79.3,89,o),
(51.302,53,o),
(8.302,53,cs),
(-0.698,53,o),
(-6.67,48,o),
(-8.225,40,cs),
(-13.473,13,ls),
(-15.222,4,o),
(-11,0,o),
(-2,0,cs),
(215,0,ls),
(223,0,o),
(228.778,4,o),
(230.527,13,cs),
(235.775,40,ls),
(237.33,48,o),
(233.302,53,o),
(225.302,53,cs),
(182.302,53,o),
(167.3,89,o),
(176.436,136,cs),
(256.909,550,l),
(212.993,535,l),
(567.555,8,ls),
(570.583,3,o),
(575,0,o),
(582,0,cs),
(643,0,ls),
(651,0,o),
(656.778,4,o),
(658.527,13,cs),
(757.855,524,ls),
(767.186,572,o),
(794.989,607,o),
(837.989,607,cs),
(846.989,607,o),
(851.961,612,o),
(853.516,620,cs),
(858.764,647,ls),
(860.513,656,o),
(857.291,660,o),
(848.291,660,cs)
);
}
);
width = 784;
}
);
note = N;
unicode = 78;
},
{
glyphname = Nhookleft;
kernLeft = B;
kernRight = N;
lastChange = "2025-02-26 16:38:09 +0000";
layers = (
{
anchors = (
{
name = bottom;
pos = (363,0);
},
{
name = top;
pos = (486.291,660);
}
);
layerId = m003;
shapes = (
{
closed = 1;
nodes = (
(66.457,-188,o),
(90.562,-100,o),
(110,0,cs),
(228.572,610,l),
(199.129,582,l),
(507.555,8,ls),
(510.583,3,o),
(515,0,o),
(522,0,cs),
(583,0,ls),
(591,0,o),
(596.778,4,o),
(598.527,13,cs),
(701.743,544,ls),
(711.073,592,o),
(738.876,627,o),
(781.876,627,cs),
(790.876,627,o),
(795.848,632,o),
(797.403,640,cs),
(798.764,647,ls),
(800.513,656,o),
(797.291,660,o),
(788.291,660,cs),
(611.291,660,ls),
(602.291,660,o),
(597.513,656,o),
(595.764,647,cs),
(594.403,640,ls),
(592.848,632,o),
(595.876,627,o),
(604.876,627,cs),
(647.876,627,o),
(663.073,592,o),
(653.743,544,cs),
(558.497,54,l),
(572.497,54,l),
(250.736,652,ls),
(247.708,657,o),
(244.291,660,o),
(237.291,660,cs),
(134.291,660,ls),
(126.291,660,o),
(120.513,656,o),
(118.764,647,cs),
(117.403,640,ls),
(115.848,632,o),
(119.876,627,o),
(127.876,627,cs),
(149.876,627,o),
(164.516,620,o),
(179.6,605,c),
(62,0,ls),
(48.005,-72,o),
(30.461,-161.76,o),
(-26.49,-161.76,cs),
(-54.624,-161.76,o),
(-64.17,-151.792,o),
(-69.955,-163.422,cs),
(-73.609,-170.768,ls),
(-77.813,-179.22,o),
(-76.391,-180.847,o),
(-70.539,-182.829,cs),
(-61.994,-185.723,o),
(-40.559,-188,o),
(-27.193,-188,cs)
);
}
);
width = 724;
},
{
anchors = (
{
name = bottom;
pos = (363,0);
},
{
name = top;
pos = (486.291,660);
}
);
layerId = m004;
shapes = (
{
closed = 1;
nodes = (
(106.457,-188,o),
(130.562,-100,o),
(150,0,cs),
(256.909,550,l),
(212.599,534.566,l),
(567.555,8,ls),
(570.583,3,o),
(575,0,o),
(582,0,cs),
(643,0,ls),
(651,0,o),
(656.778,4,o),
(658.527,13,cs),
(757.855,524,ls),
(767.186,572,o),
(794.989,607,o),
(837.989,607,cs),
(846.989,607,o),
(851.961,612,o),
(853.516,620,cs),
(858.764,647,ls),
(860.513,656,o),
(857.291,660,o),
(848.291,660,cs),
(631.291,660,ls),
(622.291,660,o),
(617.513,656,o),
(615.764,647,cs),
(610.516,620,ls),
(608.961,612,o),
(611.989,607,o),
(620.989,607,cs),
(663.989,607,o),
(679.186,572,o),
(669.855,524,cs),
(595.213,140,l),
(639.808,155.647,l),
(300.736,652,ls),
(297.708,657,o),
(294.291,660,o),
(287.291,660,cs),
(134.291,660,ls),
(126.291,660,o),
(120.513,656,o),
(118.764,647,cs),
(113.516,620,ls),
(111.961,612,o),
(115.989,607,o),
(123.989,607,cs),
(145.989,607,o),
(160.628,600,o),
(175.712,585,c),
(62,0,ls),
(48.005,-72,o),
(28.494,-136.364,o),
(-28.506,-136.364,cs),
(-45.78,-136.364,o),
(-56.464,-128.473,o),
(-61.284,-140.364,cs),
(-73.609,-170.768,ls),
(-77.112,-179.409,o),
(-76.391,-180.847,o),
(-70.538,-182.829,cs),
(-61.994,-185.723,o),
(-40.559,-188,o),
(-27.193,-188,cs)
);
}
);
width = 784;
}
);
metricRight = N;
unicode = 413;
},
{
glyphname = Eng;
kernLeft = B;
kernRight = N;
lastChange = "2025-02-26 16:38:20 +0000";
layers = (
{
layerId = m003;
shapes = (
{
pos = (0,-0.009);
ref = N;
},
{
closed = 1;
nodes = (
(502.908,17,l),
(498.826,-4,ls),
(484.637,-77,o),
(469.698,-159,o),
(396.698,-159,cs),
(347.698,-159,o),
(333.979,-116.397,o),
(342.337,-73.397,cs),
(344.086,-64.397,o),
(340.864,-60.397,o),
(335.864,-60.397,cs),
(333.864,-60.397,o),
(332.36,-61.256,o),
(328.281,-63.397,cs),
(298.469,-79.051,ls),
(290.2,-83.394,o),
(287.136,-91.051,o),
(285.97,-97.051,cs),
(282.666,-114.051,o),
(313.061,-188,o),
(391.061,-188,cs),
(516.061,-188,o),
(551.276,-84,o),
(570.908,17,c)
);
}
);
width = 695.64;
},
{
layerId = m004;
shapes = (
{
ref = N;
},
{
closed = 1;
nodes = (
(562.304,17,l),
(558.222,-4,ls),
(544.033,-77,o),
(502.981,-139,o),
(449.981,-139,cs),
(400.981,-139,o),
(398.117,-92,o),
(406.475,-49,cs),
(408.225,-40,o),
(405.002,-36,o),
(400.002,-36,cs),
(398.002,-36,o),
(396.351,-36.534,o),
(392.419,-39,cs),
(320.672,-84,ls),
(312.7,-89,o),
(309.339,-96,o),
(308.173,-102,cs),
(304.869,-119,o),
(332.457,-188,o),
(440.457,-188,cs),
(595.457,-188,o),
(639.672,-84,o),
(659.304,17,c)
);
}
);
width = 784;
}
);
note = Eng;
unicode = 330;
},
{
glyphname = O;
kernLeft = C;
kernRight = D;
lastChange = "2025-02-26 16:28:05 +0000";
layers = (
{
anchors = (
{
name = bottom;
pos = (322,0);
},
{
name = top;
pos = (438.291,660);
},
{
name = topright;
pos = (443.291,660);
}
);
layerId = m003;
shapes = (
{
closed = 1;
nodes = (
(246.78,671,o),
(89.54,522.376,o),
(53.968,339.376,cs),
(17.619,152.376,o),
(127.511,-11,o),
(313.511,-11,cs),
(491.511,-11,o),
(655.585,131.624,o),
(692.129,319.624,cs),
(728.478,506.624,o),
(616.78,671,o),
(430.78,671,cs)
);
},
{
closed = 1;
nodes = (
(600.247,641,o),
(613.963,411.376,o),
(587.528,275.376,cs),
(558.759,127.376,o),
(467.044,19,o),
(325.044,19,cs),
(149.044,19,o),
(128.412,233.624,o),
(157.569,383.624,cs),
(186.92,534.624,o),
(280.247,641,o),
(418.247,641,cs)
);
}
);
width = 702;
},
{
anchors = (
{
name = bottom;
pos = (333,0);
},
{
name = top;
pos = (449.291,660);
},
{
name = topright;
pos = (453.291,660);
}
);
layerId = m004;
shapes = (
{
closed = 1;
nodes = (
(257.78,671,o),
(90.54,522.376,o),
(54.968,339.376,cs),
(18.619,152.376,o),
(138.511,-11,o),
(324.511,-11,cs),
(502.511,-11,o),
(676.585,131.624,o),
(713.129,319.624,cs),
(749.478,506.624,o),
(627.78,671,o),
(441.78,671,cs)
);
},
{
closed = 1;
nodes = (
(576.917,593,o),
(596.631,399.376,o),
(574.277,284.376,cs),
(549.979,159.376,o),
(463.374,67,o),
(343.374,67,cs),
(194.374,67,o),
(168.133,247.624,o),
(192.82,374.624,cs),
(217.7,502.624,o),
(305.917,593,o),
(422.917,593,cs)
);
}
);
width = 723;
}
);
note = O;
unicode = 79;
},
{
glyphname = Oslash;
kernLeft = C;
kernRight = D;
lastChange = "2025-02-26 16:18:05 +0000";
layers = (
{
hints = (
{
horizontal = 1;
place = (664,-20);
target = down;
type = TopGhost;
}
);
layerId = m003;
shapes = (
{
closed = 1;
nodes = (
(207,-45,ls),
(204,-55,o),
(208,-60,o),
(218,-60,cs),
(230,-60,ls),
(238,-60,o),
(242,-57,o),
(245,-49,cs),
(526,733,ls),
(530,742,o),
(526,748,o),
(516,748,cs),
(504,748,ls),
(496,748,o),
(491,744,o),
(489,737,cs)
);
},
{
ref = O;
}
);
width = 723;
},
{
hints = (
{
horizontal = 1;
place = (664,-20);
target = down;
type = TopGhost;
},
{
horizontal = 1;
place = (-1,21);
target = up;
type = BottomGhost;
}
);
layerId = m004;
shapes = (
{
closed = 1;
nodes = (
(167,-45,ls),
(164,-55,o),
(168,-60,o),
(178,-60,cs),
(250,-60,ls),
(258,-60,o),
(262,-57,o),
(265,-49,cs),
(546,733,ls),
(550,742,o),
(546,748,o),
(536,748,cs),
(464,748,ls),
(456,748,o),
(451,744,o),
(449,737,cs)
);
},
{
ref = O;
}
);
width = 723;
}
);
note = Oslash;
unicode = 216;
},
{
glyphname = OE;
kernLeft = C;
kernRight = E;
lastChange = "2025-02-26 16:38:38 +0000";
layers = (
{
layerId = m003;
shapes = (
{
closed = 1;
nodes = (
(926.936,-12,o),
(930.659,-9.708,o),
(934.491,-4,cs),
(1051.314,170,ls),
(1057.063,179,o),
(1058.035,184,o),
(1049.812,188,cs),
(1037.173,195,ls),
(1029.145,200,o),
(1021.562,197,o),
(1017.201,190,cs),
(1013.035,184,ls),
(932.292,67,o),
(884.433,42,o),
(755.433,42,cs),
(680.433,42,ls),
(641.433,42,o),
(616.264,72,o),
(626.761,126,cs),
(666.415,330,l),
(780.415,330,ls),
(824.415,330,o),
(840.721,311,o),
(832.946,271,cs),
(831.974,266,ls),
(830.225,257,o),
(833.447,253,o),
(842.447,253,cs),
(848.447,253,ls),
(857.447,253,o),
(862.225,257,o),
(863.974,266,cs),
(897.019,436,ls),
(898.768,445,o),
(895.546,449,o),
(886.546,449,cs),
(880.546,449,ls),
(871.546,449,o),
(866.768,445,o),
(865.019,436,cs),
(863.853,430,ls),
(856.272,391,o),
(831.384,371,o),
(788.384,371,cs),
(674.384,371,l),
(722.396,618,l),
(901.396,618,ls),
(969.396,618,o),
(994.389,600.266,o),
(1024.513,526,cs),
(1026.541,521,ls),
(1028.569,516,o),
(1030.986,513,o),
(1034.986,513,cs),
(1037.986,513,o),
(1040.18,514,o),
(1045.764,517,cs),
(1062.513,526,ls),
(1067.3,528.572,o),
(1070.679,532,o),
(1071.651,537,cs),
(1072.04,539,o),
(1071.409,541.881,o),
(1070.206,545,cs),
(1024.338,664,ls),
(1022.393,669.044,o),
(1018.698,671,o),
(1014.698,671,cs),
(1011.698,671,o),
(1008.698,671,o),
(1006.309,669,cs),
(1000.338,664,ls),
(996.114,660.464,o),
(991.56,660,o),
(982.56,660,cs),
(514.283,660,l),
(489.336,667.17,o),
(462.296,671,o),
(433.429,671,cs),
(249.429,671,o),
(88.495,517,o),
(52.923,334,cs),
(16.574,147,o),
(124.862,-11,o),
(310.862,-11,cs),
(339.443,-11,o),
(367.76,-7.184,o),
(395.312,0,c),
(895.269,0,l),
(906.269,0,o),
(910.126,-0.096,o),
(912.491,-4,cs),
(915.52,-9,ls),
(917.224,-11.815,o),
(919.936,-12,o),
(922.936,-12,c)
);
},
{
closed = 1;
nodes = (
(151.693,19,o),
(129.457,239,o),
(158.614,389,cs),
(187.965,540,o),
(277.598,641,o),
(415.598,641,cs),
(597.598,641,o),
(612.918,406,o),
(586.483,270,cs),
(557.714,122,o),
(469.693,19,o),
(327.693,19,cs)
);
}
);
width = 1080.27;
},
{
layerId = m004;
shapes = (
{
closed = 1;
nodes = (
(917.667,-12,o),
(921.39,-9.708,o),
(925.222,-4,cs),
(1042.045,170,ls),
(1047.89,178.707,o),
(1047.816,182.994,o),
(1040.543,188,cs),
(1015.848,205,ls),
(1010.297,208.821,o),
(1001.567,208.196,o),
(995.876,200,cs),
(991.71,194,ls),
(923.661,96,o),
(869.052,62,o),
(739.052,62,cs),
(682.052,62,ls),
(643.052,62,o),
(626.883,92,o),
(637.38,146,cs),
(671.202,320,l),
(749.202,320,ls),
(803.202,320,o),
(828.508,301,o),
(820.733,261,cs),
(819.761,256,ls),
(818.012,247,o),
(822.234,243,o),
(831.234,243,cs),
(857.234,243,ls),
(866.234,243,o),
(871.012,247,o),
(872.761,256,cs),
(911.637,456,ls),
(913.387,465,o),
(910.164,469,o),
(901.164,469,cs),
(875.164,469,ls),
(866.164,469,o),
(860.387,465,o),
(858.637,456,cs),
(857.471,450,ls),
(849.89,411,o),
(816.003,391,o),
(763.003,391,cs),
(685.003,391,l),
(725.239,598,l),
(868.239,598,ls),
(936.239,598,o),
(967.963,576,o),
(992.3,516,cs),
(994.328,511,ls),
(996.356,506,o),
(999.773,503,o),
(1003.773,503,cs),
(1006.773,503,o),
(1008.885,504.218,o),
(1014.551,507,cs),
(1053.244,526,ls),
(1057.827,529,o),
(1061.41,532,o),
(1062.382,537,cs),
(1062.771,539,o),
(1062.354,542,o),
(1060.937,545,cs),
(1015.069,664,ls),
(1013.124,669.044,o),
(1009.429,671,o),
(1004.429,671,cs),
(1002.429,671,o),
(999.429,671,o),
(997.04,669,cs),
(991.069,664,ls),
(986.845,660.464,o),
(982.291,660,o),
(973.291,660,cs),
(524.291,660,l),
(499.652,667,o),
(473.429,671,o),
(444.429,671,cs),
(260.429,671,o),
(89.495,517,o),
(53.923,334,cs),
(17.574,147,o),
(135.862,-11,o),
(321.862,-11,cs),
(350.862,-11,o),
(379.639,-7,o),
(409,0,c),
(886,0,ls),
(896,0,o),
(899.806,-1,o),
(902.222,-4,cs),
(906.251,-9,ls),
(907.862,-11,o),
(910.667,-12,o),
(913.667,-12,cs)
);
},
{
closed = 1;
nodes = (
(197.023,67,o),
(169.178,253,o),
(193.865,380,cs),
(218.745,508,o),
(303.268,593,o),
(420.268,593,cs),
(574.268,593,o),
(595.586,394,o),
(573.232,279,cs),
(548.935,154,o),
(466.023,67,o),
(346.023,67,cs)
);
}
);
width = 1070.86;
}
);
metricLeft = O;
metricRight = E;
note = OE;
unicode = 338;
},
{
glyphname = P;
kernLeft = B;
kernRight = P;
lastChange = "2026-05-05 11:06:44 +0000";
layers = (
{
anchors = (
{
name = bottom;
pos = (238,0);
},
{
name = top;
pos = (366.291,660);
}
);
layerId = m003;
shapes = (
{
closed = 1;
nodes = (
(201.593,286,l),
(287.593,286,ls),
(466.593,286,o),
(556.504,373,o),
(578.469,486,cs),
(597.907,586,o),
(520.291,660,o),
(417.291,660,cs),
(126.291,660,ls),
(118.291,660,o),
(112.513,656,o),
(110.764,647,cs),
(109.403,640,ls),
(107.848,632,o),
(111.876,627,o),
(119.876,627,cs),
(120.876,627,ls),
(169.876,627,o),
(177.879,591,o),
(168.743,544,cs),
(85.548,116,ls),
(76.607,70,o),
(55.415,33,o),
(10.415,33,cs),
(4.415,33,ls),
(-4.585,33,o),
(-10.557,28,o),
(-12.112,20,cs),
(-13.473,13,ls),
(-15.222,4,o),
(-11,0,o),
(-2,0,cs),
(210,0,ls),
(219,0,o),
(223.778,4,o),
(225.527,13,cs),
(226.888,20,ls),
(228.443,28,o),
(225.415,33,o),
(216.415,33,cs),
(210.415,33,ls),
(166.415,33,o),
(159.607,70,o),
(168.548,116,cs)
);
},
{
closed = 1;
nodes = (
(209.757,328,l),
(267.876,627,l),
(372.876,627,ls),
(460.876,627,o),
(502.019,566,o),
(486.469,486,cs),
(467.42,388,o),
(403.757,328,o),
(286.757,328,cs)
);
}
);
width = 576;
},
{
anchors = (
{
name = bottom;
pos = (270,0);
},
{
name = top;
pos = (398.291,660);
}
);
layerId = m004;
shapes = (
{
closed = 1;
nodes = (
(249.705,266,l),
(315.705,266,ls),
(534.705,266,o),
(624.616,353,o),
(646.581,466,cs),
(666.019,566,o),
(592.291,660,o),
(449.291,660,cs),
(126.291,660,ls),
(118.291,660,o),
(112.513,656,o),
(110.764,647,cs),
(105.516,620,ls),
(103.961,612,o),
(107.989,607,o),
(115.989,607,cs),
(116.989,607,ls),
(165.989,607,o),
(173.991,571,o),
(164.855,524,cs),
(89.436,136,ls),
(80.494,90,o),
(59.302,53,o),
(14.302,53,cs),
(8.302,53,ls),
(-0.698,53,o),
(-6.67,48,o),
(-8.225,40,cs),
(-13.473,13,ls),
(-15.222,4,o),
(-11,0,o),
(-2,0,cs),
(262,0,ls),
(271,0,o),
(275.778,4,o),
(277.527,13,cs),
(282.775,40,ls),
(284.33,48,o),
(281.302,53,o),
(272.302,53,cs),
(266.302,53,ls),
(222.302,53,o),
(215.494,90,o),
(224.436,136,cs)
);
},
{
closed = 1;
nodes = (
(261.757,328,l),
(315.989,607,l),
(400.989,607,ls),
(488.989,607,o),
(530.132,546,o),
(514.581,466,cs),
(495.532,368,o),
(435.757,328,o),
(318.757,328,cs)
);
}
);
width = 648;
}
);
note = P;
unicode = 80;
},
{
glyphname = Thorn;
kernLeft = B;
kernRight = P;
lastChange = "2025-02-26 16:38:49 +0000";
layers = (
{
layerId = m003;
shapes = (
{
closed = 1;
nodes = (
(210,0,ls),
(219,0,o),
(223.778,4,o),
(225.527,13,cs),
(226.888,20,ls),
(228.443,28,o),
(225.415,33,o),
(216.415,33,cs),
(210.415,33,ls),
(166.415,33,o),
(159.607,70,o),
(168.548,116,cs),
(180.211,176,l),
(266.211,176,ls),
(445.211,176,o),
(535.122,263,o),
(557.087,376,cs),
(576.525,476,o),
(498.909,550,o),
(395.909,550,cs),
(251.974,550,l),
(266.876,627,l),
(323.876,627,ls),
(331.876,627,o),
(337.848,632,o),
(339.403,640,cs),
(340.764,647,ls),
(342.513,656,o),
(338.291,660,o),
(330.291,660,cs),
(126.291,660,ls),
(118.291,660,o),
(112.513,656,o),
(110.764,647,cs),
(109.403,640,ls),
(107.848,632,o),
(111.876,627,o),
(119.876,627,cs),
(120.876,627,ls),
(169.876,627,o),
(177.879,591,o),
(168.743,544,cs),
(85.548,116,ls),
(76.607,70,o),
(55.415,33,o),
(10.415,33,cs),
(4.415,33,ls),
(-4.585,33,o),
(-10.557,28,o),
(-12.112,20,cs),
(-13.473,13,ls),
(-15.222,4,o),
(-11,0,o),
(-2,0,cs)
);
},
{
closed = 1;
nodes = (
(246.495,517,l),
(351.495,517,ls),
(439.495,517,o),
(480.637,456,o),
(465.087,376,cs),
(446.038,278,o),
(382.375,218,o),
(265.375,218,cs),
(188.375,218,l)
);
}
);
width = 544;
},
{
layerId = m004;
shapes = (
{
closed = 1;
nodes = (
(268,0,ls),
(277,0,o),
(281.778,4,o),
(283.527,13,cs),
(288.775,40,ls),
(290.33,48,o),
(287.302,53,o),
(278.302,53,cs),
(267.302,53,ls),
(223.302,53,o),
(215.494,90,o),
(224.436,136,cs),
(229.49,162,l),
(301.49,162,ls),
(514.49,162,o),
(604.595,250,o),
(626.366,362,cs),
(645.998,463,o),
(572.27,557,o),
(429.27,557,cs),
(306.27,557,l),
(315.989,607,l),
(372.989,607,ls),
(380.989,607,o),
(386.961,612,o),
(388.516,620,cs),
(393.764,647,ls),
(395.513,656,o),
(391.291,660,o),
(383.291,660,cs),
(126.291,660,ls),
(118.291,660,o),
(112.513,656,o),
(110.764,647,cs),
(105.516,620,ls),
(103.961,612,o),
(107.989,607,o),
(115.989,607,cs),
(116.989,607,ls),
(165.989,607,o),
(173.991,571,o),
(164.855,524,cs),
(89.436,136,ls),
(80.494,90,o),
(59.302,53,o),
(14.302,53,cs),
(8.302,53,ls),
(-0.698,53,o),
(-6.67,48,o),
(-8.225,40,cs),
(-13.473,13,ls),
(-15.222,4,o),
(-11,0,o),
(-2,0,cs)
);
},
{
closed = 1;
nodes = (
(295.773,503,l),
(380.773,503,ls),
(468.773,503,o),
(510.305,444,o),
(494.366,362,cs),
(475.511,265,o),
(415.541,224,o),
(298.541,224,cs),
(241.541,224,l)
);
}
);
width = 616;
}
);
note = Thorn;
unicode = 222;
},
{
glyphname = Q;
kernLeft = C;
kernRight = D;
lastChange = "2025-02-26 16:27:40 +0000";
layers = (
{
anchors = (
{
name = bottom;
pos = (333,0);
},
{
name = top;
pos = (442.291,660);
}
);
hints = (
{
horizontal = 1;
place = (-8,21);
target = up;
type = BottomGhost;
}
);
layerId = m003;
shapes = (
{
ref = O;
},
{
closed = 1;
nodes = (
(272.445,-8,l),
(246.752,-27,o),
(228.698,-53,o),
(222.866,-83,cs),
(212.37,-137,o),
(239.124,-200,o),
(377.124,-200,cs),
(450.124,-200,o),
(515.178,-174,o),
(581.009,-144,cs),
(587.398,-142,o),
(590.176,-138,o),
(590.953,-134,cs),
(591.536,-131,o),
(590.119,-128,o),
(589.508,-126,cs),
(587.063,-118,ls),
(585.035,-113,o),
(582.618,-110,o),
(578.618,-110,cs),
(576.618,-110,o),
(573.424,-111,o),
(571.229,-112,cs),
(516.564,-136,o),
(464.288,-158,o),
(389.288,-158,cs),
(304.288,-158,o),
(287.869,-119,o),
(295.061,-82,cs),
(302.642,-43,o),
(340.473,-13,o),
(395,0,c)
);
}
);
width = 702;
},
{
anchors = (
{
name = bottom;
pos = (375,0);
},
{
name = top;
pos = (356,660);
}
);
associatedMasterId = m003;
background = {
shapes = (
{
closed = 1;
nodes = (
(637,-88,ls),
(634,-83,o),
(631,-80,o),
(627,-80,cs),
(625,-80,o),
(622,-81,o),
(620,-82,c),
(570,-99,o),
(522,-116,o),
(475,-116,cs),
(423,-116,o),
(394,-99,o),
(394,-62,cs),
(394,-18,o),
(434,-7,o),
(466,4,cs),
(602,49,o),
(693,180,o),
(693,325,cs),
(693,348,o),
(690,373,o),
(685,398,cs),
(650,558,o),
(510,671,o),
(356,671,cs),
(334,671,o),
(312,668,o),
(290,664,cs),
(136,631,o),
(31,490,o),
(31,334,cs),
(31,309,o),
(33,285,o),
(39,260,cs),
(69,116,o),
(183,12,o),
(317,-8,c),
(294,-27,o),
(281,-53,o),
(281,-83,cs),
(281,-137,o),
(320,-200,o),
(458,-200,cs),
(531,-200,o),
(592,-173,o),
(651,-144,c),
(656,-142,o),
(658,-138,o),
(658,-134,cs),
(658,-131,o),
(658,-128,o),
(656,-126,cs)
);
},
{
closed = 1;
nodes = (
(165,318,o),
(162,349,o),
(162,380,cs),
(162,475,o),
(198,565,o),
(306,588,cs),
(320,591,o),
(334,593,o),
(347,593,cs),
(464,593,o),
(528,478,o),
(551,369,cs),
(557,340,o),
(561,309,o),
(561,279,cs),
(561,184,o),
(524,94,o),
(416,71,cs),
(401,68,o),
(388,67,o),
(375,67,cs),
(259,67,o),
(195,180,o),
(172,289,cs)
);
}
);
};
hints = (
{
horizontal = 1;
place = (-200,84);
type = Stem;
},
{
horizontal = 1;
place = (-8,21);
target = up;
type = BottomGhost;
},
{
horizontal = 1;
place = (593,78);
type = Stem;
},
{
place = (31,131);
type = Stem;
},
{
place = (281,113);
type = Stem;
},
{
place = (561,131);
type = Stem;
},
{
horizontal = 1;
place = (-11,78);
type = Stem;
},
{
horizontal = 1;
place = (593,78);
type = Stem;
},
{
place = (31,131);
type = Stem;
},
{
place = (561,131);
type = Stem;
}
);
layerId = "D1D4F089-7FD2-4FB6-8A72-F4B0683C3EE0";
name = "24 mars 23 à 12:38";
shapes = (
{
closed = 1;
nodes = (
(317,-7,l),
(294,-26,o),
(281,-53,o),
(281,-83,cs),
(281,-137,o),
(320,-200,o),
(458,-200,cs),
(531,-200,o),
(591,-174,o),
(651,-144,cs),
(657,-142,o),
(659,-138,o),
(659,-134,cs),
(659,-131,o),
(657,-128,o),
(656,-126,cs),
(637,-88,ls),
(634,-83,o),
(631,-80,o),
(627,-80,cs),
(625,-80,o),
(622,-81,o),
(620,-82,cs),
(570,-99,o),
(522,-116,o),
(475,-116,cs),
(423,-116,o),
(394,-99,o),
(394,-62,cs),
(394,-18,o),
(434,-6,o),
(466,5,c)
);
},
{
closed = 1;
nodes = (
(31,517,o),
(31,334,cs),
(31,147,o),
(180,-11,o),
(366,-11,cs),
(544,-11,o),
(693,137,o),
(693,325,cs),
(693,512,o),
(542,671,o),
(356,671,cs),
(172,671,o)
);
},
{
closed = 1;
nodes = (
(230,593,o),
(347,593,cs),
(501,593,o),
(561,394,o),
(561,279,cs),
(561,154,o),
(495,67,o),
(375,67,cs),
(226,67,o),
(162,253,o),
(162,380,cs),
(162,508,o)
);
}
);
width = 723;
},
{
anchors = (
{
name = bottom;
pos = (333,0);
},
{
name = top;
pos = (442.291,660);
}
);
hints = (
{
horizontal = 1;
place = (-8,21);
target = up;
type = BottomGhost;
}
);
layerId = m004;
shapes = (
{
ref = O;
},
{
closed = 1;
nodes = (
(272.445,-8,l),
(246.752,-27,o),
(228.698,-53,o),
(222.866,-83,cs),
(212.37,-137,o),
(239.124,-200,o),
(377.124,-200,cs),
(450.124,-200,o),
(515.178,-174,o),
(581.009,-144,cs),
(587.398,-142,o),
(590.176,-138,o),
(590.953,-134,cs),
(591.536,-131,o),
(590.119,-128,o),
(589.508,-126,cs),
(577.895,-88,ls),
(575.866,-83,o),
(573.45,-80,o),
(569.45,-80,cs),
(567.45,-80,o),
(564.255,-81,o),
(562.061,-82,cs),
(508.173,-102,o),
(457.452,-116,o),
(410.452,-116,cs),
(358.452,-116,o),
(332.756,-99,o),
(339.948,-62,cs),
(347.529,-23,o),
(380.639,-7,o),
(413.389,2,c)
);
}
);
width = 723;
},
{
anchors = (
{
name = bottom;
pos = (375,0);
},
{
name = top;
pos = (356,660);
}
);
associatedMasterId = m004;
background = {
shapes = (
{
closed = 1;
nodes = (
(637,-88,ls),
(634,-83,o),
(631,-80,o),
(627,-80,cs),
(625,-80,o),
(622,-81,o),
(620,-82,c),
(570,-99,o),
(522,-116,o),
(475,-116,cs),
(423,-116,o),
(394,-99,o),
(394,-62,cs),
(394,-18,o),
(434,-7,o),
(466,4,cs),
(602,49,o),
(693,180,o),
(693,325,cs),
(693,348,o),
(690,373,o),
(685,398,cs),
(650,558,o),
(510,671,o),
(356,671,cs),
(334,671,o),
(312,668,o),
(290,664,cs),
(136,631,o),
(31,490,o),
(31,334,cs),
(31,309,o),
(33,285,o),
(39,260,cs),
(69,116,o),
(183,12,o),
(317,-8,c),
(294,-27,o),
(281,-53,o),
(281,-83,cs),
(281,-137,o),
(320,-200,o),
(458,-200,cs),
(531,-200,o),
(592,-173,o),
(651,-144,c),
(656,-142,o),
(658,-138,o),
(658,-134,cs),
(658,-131,o),
(658,-128,o),
(656,-126,cs)
);
},
{
closed = 1;
nodes = (
(165,318,o),
(162,349,o),
(162,380,cs),
(162,475,o),
(198,565,o),
(306,588,cs),
(320,591,o),
(334,593,o),
(347,593,cs),
(464,593,o),
(528,478,o),
(551,369,cs),
(557,340,o),
(561,309,o),
(561,279,cs),
(561,184,o),
(524,94,o),
(416,71,cs),
(401,68,o),
(388,67,o),
(375,67,cs),
(259,67,o),
(195,180,o),
(172,289,cs)
);
}
);
};
hints = (
{
horizontal = 1;
place = (-200,84);
type = Stem;
},
{
horizontal = 1;
place = (-8,21);
target = up;
type = BottomGhost;
},
{
horizontal = 1;
place = (593,78);
type = Stem;
},
{
place = (31,131);
type = Stem;
},
{
place = (281,113);
type = Stem;
},
{
place = (561,131);
type = Stem;
},
{
horizontal = 1;
place = (-11,78);
type = Stem;
},
{
horizontal = 1;
place = (593,78);
type = Stem;
},
{
place = (31,131);
type = Stem;
},
{
place = (561,131);
type = Stem;
}
);
layerId = "34DA887F-B8B7-4A87-A64C-81A3A3366AFA";
name = "24 mars 23 à 12:38";
shapes = (
{
closed = 1;
nodes = (
(317,-7,l),
(294,-26,o),
(281,-53,o),
(281,-83,cs),
(281,-137,o),
(320,-200,o),
(458,-200,cs),
(531,-200,o),
(591,-174,o),
(651,-144,cs),
(657,-142,o),
(659,-138,o),
(659,-134,cs),
(659,-131,o),
(657,-128,o),
(656,-126,cs),
(637,-88,ls),
(634,-83,o),
(631,-80,o),
(627,-80,cs),
(625,-80,o),
(622,-81,o),
(620,-82,cs),
(570,-99,o),
(522,-116,o),
(475,-116,cs),
(423,-116,o),
(394,-99,o),
(394,-62,cs),
(394,-18,o),
(434,-6,o),
(466,5,c)
);
},
{
closed = 1;
nodes = (
(31,517,o),
(31,334,cs),
(31,147,o),
(180,-11,o),
(366,-11,cs),
(544,-11,o),
(693,137,o),
(693,325,cs),
(693,512,o),
(542,671,o),
(356,671,cs),
(172,671,o)
);
},
{
closed = 1;
nodes = (
(230,593,o),
(347,593,cs),
(501,593,o),
(561,394,o),
(561,279,cs),
(561,154,o),
(495,67,o),
(375,67,cs),
(226,67,o),
(162,253,o),
(162,380,cs),
(162,508,o)
);
}
);
width = 723;
}
);
note = Q;
unicode = 81;
},
{
glyphname = R;
kernLeft = B;
kernRight = R;
lastChange = "2025-02-26 16:27:39 +0000";
layers = (
{
anchors = (
{
name = bottom;
pos = (281,0);
},
{
name = top;
pos = (350.291,660);
}
);
layerId = m003;
shapes = (
{
closed = 1;
nodes = (
(572.923,334,o),
(600.136,474,cs),
(619.769,575,o),
(544.291,660,o),
(401.291,660,cs),
(126.291,660,ls),
(118.291,660,o),
(112.513,656,o),
(110.764,647,cs),
(109.403,640,ls),
(107.848,632,o),
(111.876,627,o),
(119.876,627,cs),
(169.876,627,o),
(177.879,591,o),
(168.743,544,cs),
(85.548,116,ls),
(76.607,70,o),
(55.415,33,o),
(10.415,33,cs),
(4.415,33,ls),
(-4.585,33,o),
(-10.557,28,o),
(-12.112,20,cs),
(-13.473,13,ls),
(-15.222,4,o),
(-11,0,o),
(-2,0,cs),
(210,0,ls),
(219,0,o),
(223.778,4,o),
(225.527,13,cs),
(226.888,20,ls),
(228.443,28,o),
(225.415,33,o),
(216.415,33,cs),
(210.415,33,ls),
(166.415,33,o),
(159.607,70,o),
(168.548,116,cs),
(202.953,293,l),
(288.953,293,ls),
(411.953,293,o)
);
},
{
closed = 1;
nodes = (
(209.368,326,l),
(267.876,627,l),
(376.876,627,ls),
(464.876,627,o),
(527.769,575,o),
(508.136,474,cs),
(488.698,374,o),
(407.368,326,o),
(290.368,326,cs)
);
},
{
closed = 1;
nodes = (
(349.314,300,l),
(433.717,86,ls),
(446.497,54,o),
(418.415,33,o),
(373.415,33,cs),
(368.415,33,ls),
(359.415,33,o),
(354.443,28,o),
(352.888,20,cs),
(351.527,13,ls),
(349.778,4,o),
(353,0,o),
(362,0,cs),
(582,0,ls),
(591,0,o),
(595.778,4,o),
(597.527,13,cs),
(598.888,20,ls),
(600.443,28,o),
(597.415,33,o),
(588.415,33,cs),
(584.415,33,ls),
(540.415,33,o),
(528.96,74.3,o),
(512.548,116,cs),
(427.534,332,l)
);
}
);
width = 644;
},
{
anchors = (
{
name = bottom;
pos = (319,0);
},
{
name = top;
pos = (388.291,660);
}
);
layerId = m004;
shapes = (
{
closed = 1;
nodes = (
(618.979,324,o),
(648.136,474,cs),
(667.769,575,o),
(592.291,660,o),
(449.291,660,cs),
(126.291,660,ls),
(118.291,660,o),
(112.513,656,o),
(110.764,647,cs),
(105.516,620,ls),
(103.961,612,o),
(107.989,607,o),
(115.989,607,cs),
(165.989,607,o),
(173.991,571,o),
(164.855,524,cs),
(89.436,136,ls),
(80.494,90,o),
(59.302,53,o),
(14.302,53,cs),
(8.302,53,ls),
(-0.698,53,o),
(-6.67,48,o),
(-8.225,40,cs),
(-13.473,13,ls),
(-15.222,4,o),
(-11,0,o),
(-2,0,cs),
(268,0,ls),
(277,0,o),
(281.778,4,o),
(283.527,13,cs),
(288.775,40,ls),
(290.33,48,o),
(287.302,53,o),
(278.302,53,cs),
(272.302,53,ls),
(228.302,53,o),
(221.494,90,o),
(230.436,136,cs),
(259.01,283,l),
(325.01,283,ls),
(448.01,283,o)
);
},
{
closed = 1;
nodes = (
(271.256,346,l),
(321.989,607,l),
(400.989,607,ls),
(488.989,607,o),
(531.881,555,o),
(516.136,474,cs),
(500.586,394,o),
(439.256,346,o),
(322.256,346,cs)
);
},
{
closed = 1;
nodes = (
(377.314,300,l),
(444.604,106,ls),
(454.773,76,o),
(430.302,53,o),
(385.302,53,cs),
(380.302,53,ls),
(371.302,53,o),
(366.33,48,o),
(364.775,40,cs),
(359.527,13,ls),
(357.778,4,o),
(361,0,o),
(370,0,cs),
(640,0,ls),
(649,0,o),
(653.778,4,o),
(655.527,13,cs),
(660.775,40,ls),
(662.33,48,o),
(659.302,53,o),
(650.302,53,cs),
(646.302,53,ls),
(602.302,53,o),
(588.077,93,o),
(574.436,136,cs),
(509.534,332,l)
);
}
);
width = 702;
}
);
note = R;
unicode = 82;
},
{
glyphname = S;
kernLeft = S;
kernRight = S;
lastChange = "2025-02-26 16:27:39 +0000";
layers = (
{
anchors = (
{
name = bottom;
pos = (304,0);
},
{
name = top;
pos = (376.291,660);
}
);
background = {
shapes = (
{
closed = 1;
nodes = (
(558,476,ls),
(565,480,o),
(567,484,o),
(567,489,cs),
(567,493,o),
(566,497,o),
(564,502,cs),
(502,659,ls),
(498,670,o),
(492,674,o),
(480,674,cs),
(449,674,ls),
(438,674,o),
(433,670,o),
(433,661,cs),
(433,649,o),
(437,638,o),
(437,632,cs),
(437,628,o),
(436,627,o),
(433,627,cs),
(429,627,o),
(423,629,o),
(412,635,cs),
(388,649,o),
(341,671,o),
(276,671,cs),
(149,671,o),
(53,617,o),
(53,501,cs),
(53,374,o),
(176,319,o),
(291,286,cs),
(418,249,o),
(474,232,o),
(474,155,cs),
(474,102,o),
(432,63,o),
(355,63,cs),
(254,63,o),
(154,121,o),
(75,242,cs),
(70,249,o),
(66,253,o),
(60,253,cs),
(56,253,o),
(53,251,o),
(49,249,cs),
(10,227,ls),
(4,224,o),
(1,218,o),
(1,212,cs),
(1,209,o),
(2,205,o),
(4,202,cs),
(111,2,ls),
(115,-7,o),
(122,-11,o),
(133,-11,cs),
(177,-11,ls),
(187,-11,o),
(192,-8,o),
(192,-1,cs),
(192,3,o),
(191,5,o),
(189,10,cs),
(188,13,o),
(187,17,o),
(187,19,cs),
(187,26,o),
(190,28,o),
(195,28,cs),
(199,28,o),
(203,27,o),
(208,25,cs),
(251,4,o),
(297,-11,o),
(350,-11,cs),
(512,-11,o),
(606,74,o),
(606,194,cs),
(606,326,o),
(466,372,o),
(331,411,cs),
(264,430,o),
(193,458,o),
(193,523,cs),
(193,576,o),
(231,599,o),
(279,599,cs),
(356,599,o),
(427,561,o),
(502,467,cs),
(507,461,o),
(512,457,o),
(517,457,cs),
(521,457,o),
(524,458,o),
(528,460,cs)
);
}
);
};
layerId = m003;
shapes = (
{
closed = 1;
nodes = (
(592.97,468,ls),
(601.748,472,o),
(603.525,476,o),
(604.497,481,cs),
(605.274,485,o),
(605.052,489,o),
(604.024,494,cs),
(568.097,659,ls),
(565.235,670,o),
(561.012,674,o),
(549.012,674,cs),
(538.012,674,ls),
(527.012,674,o),
(521.235,670,o),
(519.485,661,cs),
(517.153,649,o),
(519.015,638,o),
(517.848,632,cs),
(517.071,628,o),
(515.876,627,o),
(512.876,627,cs),
(508.876,627,o),
(503.265,629,o),
(493.431,635,cs),
(472.153,649,o),
(429.429,671,o),
(364.429,671,cs),
(257.429,671,o),
(150.933,617,o),
(130.328,511,cs),
(107.586,394,o),
(207.061,345,o),
(315.647,312,cs),
(435.455,275,o),
(516.401,249,o),
(498.906,159,cs),
(483.356,79,o),
(417.443,28,o),
(326.443,28,cs),
(194.443,28,o),
(123.354,115,o),
(67.874,236,cs),
(64.234,243,o),
(61.012,247,o),
(55.012,247,cs),
(51.012,247,o),
(47.623,245,o),
(43.234,243,cs),
(31.068,237,ls),
(24.485,234,o),
(20.319,228,o),
(19.152,222,cs),
(18.569,219,o),
(18.792,215,o),
(20.209,212,cs),
(89.389,2,ls),
(92.639,-7,o),
(97.862,-11,o),
(108.862,-11,cs),
(132.862,-11,ls),
(142.862,-11,o),
(148.445,-8,o),
(149.806,-1,cs),
(150.583,3,o),
(149.972,5,o),
(148.944,10,cs),
(148.527,13,o),
(148.304,17,o),
(148.693,19,cs),
(150.054,26,o),
(153.443,28,o),
(158.443,28,cs),
(162.443,28,o),
(166.248,27,o),
(170.86,25,cs),
(209.778,4,o),
(252.862,-11,o),
(305.862,-11,cs),
(447.862,-11,o),
(556.44,64,o),
(577.822,174,cs),
(601.537,296,o),
(479.089,340,o),
(351.67,379,cs),
(288.363,398,o),
(190.972,432,o),
(208.078,520,cs),
(223.628,600,o),
(287.431,635,o),
(360.431,635,cs),
(455.431,635,o),
(525.019,566,o),
(561.748,472,cs),
(564.581,466,o),
(569.804,462,o),
(574.804,462,cs),
(578.804,462,o),
(581.998,463,o),
(586.387,465,cs)
);
}
);
width = 599;
},
{
anchors = (
{
name = bottom;
pos = (283,0);
},
{
name = top;
pos = (411.291,660);
}
);
background = {
shapes = (
{
closed = 1;
nodes = (
(575,467,ls),
(582,471,o),
(584,475,o),
(584,480,cs),
(584,484,o),
(583,488,o),
(581,493,cs),
(519,650,ls),
(515,661,o),
(509,665,o),
(497,665,cs),
(466,665,ls),
(455,665,o),
(450,661,o),
(450,652,cs),
(450,641,o),
(454,629,o),
(454,623,cs),
(454,620,o),
(452,618,o),
(449,618,cs),
(445,618,o),
(440,620,o),
(429,626,cs),
(405,638,o),
(358,660,o),
(293,660,cs),
(157,660,o),
(70,599,o),
(70,501,cs),
(70,374,o),
(193,319,o),
(308,286,cs),
(435,249,o),
(491,232,o),
(491,155,cs),
(491,102,o),
(449,63,o),
(372,63,cs),
(271,63,o),
(171,121,o),
(92,242,cs),
(87,249,o),
(83,253,o),
(77,253,cs),
(73,253,o),
(70,251,o),
(66,249,cs),
(27,227,ls),
(21,224,o),
(18,218,o),
(18,212,cs),
(18,209,o),
(19,205,o),
(21,202,cs),
(128,2,ls),
(132,-7,o),
(139,-11,o),
(150,-11,cs),
(194,-11,ls),
(204,-11,o),
(209,-8,o),
(209,-1,cs),
(209,3,o),
(208,5,o),
(206,10,cs),
(205,13,o),
(204,17,o),
(204,19,cs),
(204,26,o),
(207,28,o),
(212,28,cs),
(216,28,o),
(220,27,o),
(225,25,cs),
(268,4,o),
(314,-11,o),
(367,-11,cs),
(529,-11,o),
(623,74,o),
(623,194,cs),
(623,326,o),
(483,372,o),
(348,411,cs),
(281,430,o),
(210,459,o),
(210,514,cs),
(210,576,o),
(260,590,o),
(304,590,cs),
(364,590,o),
(444,552,o),
(519,458,cs),
(524,452,o),
(529,448,o),
(534,448,cs),
(538,448,o),
(541,450,o),
(545,451,cs)
);
}
);
};
layerId = m004;
shapes = (
{
closed = 1;
nodes = (
(625.525,476,ls),
(633.303,480,o),
(636.08,484,o),
(637.052,489,cs),
(637.829,493,o),
(637.607,497,o),
(636.579,502,cs),
(605.097,659,ls),
(603.235,670,o),
(598.012,674,o),
(586.012,674,cs),
(555.012,674,ls),
(544.012,674,o),
(538.235,670,o),
(536.485,661,cs),
(534.153,649,o),
(536.015,638,o),
(534.848,632,cs),
(534.071,628,o),
(532.876,627,o),
(529.876,627,cs),
(525.876,627,o),
(520.265,629,o),
(510.431,635,cs),
(489.153,649,o),
(446.429,671,o),
(381.429,671,cs),
(254.429,671,o),
(147.933,617,o),
(125.385,501,cs),
(100.698,374,o),
(213.007,319,o),
(321.593,286,cs),
(441.401,249,o),
(494.096,232,o),
(479.129,155,cs),
(468.827,102,o),
(419.246,63,o),
(342.246,63,cs),
(241.246,63,o),
(152.52,121,o),
(97.04,242,cs),
(93.401,249,o),
(90.178,253,o),
(84.178,253,cs),
(80.178,253,o),
(76.789,251,o),
(72.401,249,cs),
(29.124,227,ls),
(22.541,224,o),
(18.375,218,o),
(17.209,212,cs),
(16.625,209,o),
(16.848,205,o),
(18.265,202,cs),
(86.389,2,ls),
(88.639,-7,o),
(94.862,-11,o),
(105.862,-11,cs),
(149.862,-11,ls),
(159.862,-11,o),
(165.445,-8,o),
(166.806,-1,cs),
(167.583,3,o),
(166.972,5,o),
(165.944,10,cs),
(165.527,13,o),
(165.304,17,o),
(165.693,19,cs),
(167.054,26,o),
(170.443,28,o),
(175.443,28,cs),
(179.443,28,o),
(183.248,27,o),
(187.86,25,cs),
(226.778,4,o),
(269.862,-11,o),
(322.862,-11,cs),
(484.862,-11,o),
(595.384,74,o),
(616.766,184,cs),
(644.368,326,o),
(513.309,372,o),
(385.89,411,cs),
(322.584,430,o),
(257.026,458,o),
(269.661,523,cs),
(279.963,576,o),
(322.434,599,o),
(370.434,599,cs),
(447.434,599,o),
(511.047,561,o),
(567.776,467,cs),
(571.609,461,o),
(575.832,457,o),
(580.832,457,cs),
(584.832,457,o),
(588.026,458,o),
(592.415,460,cs)
);
}
);
width = 636;
},
{
anchors = (
{
name = bottom;
pos = (325,0);
},
{
name = top;
pos = (325,660);
}
);
associatedMasterId = m004;
background = {
shapes = (
{
closed = 1;
nodes = (
(575,467,ls),
(582,471,o),
(584,475,o),
(584,480,cs),
(584,484,o),
(583,488,o),
(581,493,cs),
(519,650,ls),
(515,661,o),
(509,665,o),
(497,665,cs),
(466,665,ls),
(455,665,o),
(450,661,o),
(450,652,cs),
(450,641,o),
(454,629,o),
(454,623,cs),
(454,620,o),
(452,618,o),
(449,618,cs),
(445,618,o),
(440,620,o),
(429,626,cs),
(405,638,o),
(358,660,o),
(293,660,cs),
(157,660,o),
(70,599,o),
(70,501,cs),
(70,374,o),
(193,319,o),
(308,286,cs),
(435,249,o),
(491,232,o),
(491,155,cs),
(491,102,o),
(449,63,o),
(372,63,cs),
(271,63,o),
(171,121,o),
(92,242,cs),
(87,249,o),
(83,253,o),
(77,253,cs),
(73,253,o),
(70,251,o),
(66,249,cs),
(27,227,ls),
(21,224,o),
(18,218,o),
(18,212,cs),
(18,209,o),
(19,205,o),
(21,202,cs),
(128,2,ls),
(132,-7,o),
(139,-11,o),
(150,-11,cs),
(194,-11,ls),
(204,-11,o),
(209,-8,o),
(209,-1,cs),
(209,3,o),
(208,5,o),
(206,10,cs),
(205,13,o),
(204,17,o),
(204,19,cs),
(204,26,o),
(207,28,o),
(212,28,cs),
(216,28,o),
(220,27,o),
(225,25,cs),
(268,4,o),
(314,-11,o),
(367,-11,cs),
(529,-11,o),
(623,74,o),
(623,194,cs),
(623,326,o),
(483,372,o),
(348,411,cs),
(281,430,o),
(210,459,o),
(210,514,cs),
(210,576,o),
(260,590,o),
(304,590,cs),
(364,590,o),
(444,552,o),
(519,458,cs),
(524,452,o),
(529,448,o),
(534,448,cs),
(538,448,o),
(541,450,o),
(545,451,cs)
);
}
);
};
layerId = "E37AA15C-6246-4274-9950-C669278A149C";
name = "25 févr. 25 à 10:57";
shapes = (
{
closed = 1;
nodes = (
(575,476,ls),
(582,480,o),
(584,484,o),
(584,489,cs),
(584,493,o),
(583,497,o),
(581,502,cs),
(519,659,ls),
(515,670,o),
(509,674,o),
(497,674,cs),
(466,674,ls),
(455,674,o),
(450,670,o),
(450,661,cs),
(450,649,o),
(454,638,o),
(454,632,cs),
(454,628,o),
(453,627,o),
(450,627,cs),
(446,627,o),
(440,629,o),
(429,635,cs),
(405,649,o),
(358,671,o),
(293,671,cs),
(166,671,o),
(70,617,o),
(70,501,cs),
(70,374,o),
(193,319,o),
(308,286,cs),
(435,249,o),
(491,232,o),
(491,155,cs),
(491,102,o),
(449,63,o),
(372,63,cs),
(271,63,o),
(171,121,o),
(92,242,cs),
(87,249,o),
(83,253,o),
(77,253,cs),
(73,253,o),
(70,251,o),
(66,249,cs),
(27,227,ls),
(21,224,o),
(18,218,o),
(18,212,cs),
(18,209,o),
(19,205,o),
(21,202,cs),
(128,2,ls),
(132,-7,o),
(139,-11,o),
(150,-11,cs),
(194,-11,ls),
(204,-11,o),
(209,-8,o),
(209,-1,cs),
(209,3,o),
(208,5,o),
(206,10,cs),
(205,13,o),
(204,17,o),
(204,19,cs),
(204,26,o),
(207,28,o),
(212,28,cs),
(216,28,o),
(220,27,o),
(225,25,cs),
(268,4,o),
(314,-11,o),
(367,-11,cs),
(529,-11,o),
(623,74,o),
(623,194,cs),
(623,326,o),
(483,372,o),
(348,411,cs),
(281,430,o),
(210,458,o),
(210,523,cs),
(210,576,o),
(248,599,o),
(296,599,cs),
(373,599,o),
(444,561,o),
(519,467,cs),
(524,461,o),
(529,457,o),
(534,457,cs),
(538,457,o),
(541,458,o),
(545,460,cs)
);
}
);
width = 636;
}
);
note = S;
unicode = 83;
},
{
glyphname = Germandbls;
kernLeft = m;
kernRight = B;
lastChange = "2025-02-26 16:39:08 +0000";
layers = (
{
layerId = m003;
shapes = (
{
closed = 1;
nodes = (
(552.024,494,ls),
(557.801,498,o),
(560.579,502,o),
(562.134,510,cs),
(582.155,613,o),
(506.429,671,o),
(377.429,671,cs),
(215.429,671,o),
(157.304,552.032,o),
(145.829,493,cs),
(135.527,440,l),
(85.527,440,ls),
(76.527,440,o),
(71.75,436,o),
(70.389,429,cs),
(68.445,419,ls),
(67.085,412,o),
(68.307,408,o),
(77.113,407,cs),
(124.141,402,o),
(118.811,354,o),
(109.48,306,cs),
(72.548,116,ls),
(63.412,69,o),
(41.415,33,o),
(-6.585,33,cs),
(-9.585,33,ls),
(-17.585,33,o),
(-23.557,28,o),
(-25.112,20,cs),
(-26.473,13,ls),
(-28.222,4,o),
(-24,0,o),
(-16,0,cs),
(102,0,ls),
(110,0,o),
(116.778,4,o),
(118.527,13,cs),
(212.218,495,ls),
(227.963,576,o),
(264.091,641,o),
(374.248,641,cs),
(469.105,641,o),
(501.546,579,o),
(488.134,510,cs),
(486.773,503,o),
(484.801,498,o),
(479.024,494,cs),
(329.225,387,ls),
(322.448,383,o),
(316.67,379,o),
(311.67,379,cs),
(308.67,379,ls),
(303.67,379,o),
(300.281,377,o),
(299.309,372,cs),
(297.754,364,o),
(302.394,357,o),
(308.839,349,cs),
(313.672,343,o),
(317.895,339,o),
(323.895,339,cs),
(421.895,339,o),
(500.843,277,o),
(482.377,182,cs),
(466.244,99,o),
(396.831,30,o),
(312.831,30,cs),
(253.831,30,o),
(229.589,50.642,o),
(206.78,71.891,cs),
(202.869,75.534,o),
(200.333,74.995,o),
(197.161,70.825,c),
(187.023,58.034,l),
(182.026,51.531,o),
(185.33,48,o),
(187.747,45,cs),
(214.333,12,o),
(256.862,-11,o),
(317.862,-11,cs),
(413.862,-11,o),
(533.97,41,o),
(561.377,182,cs),
(585.869,308,o),
(499.476,378,o),
(387.476,378,c)
);
}
);
width = 603;
},
{
layerId = m004;
shapes = (
{
closed = 1;
nodes = (
(592.024,494,ls),
(597.801,498,o),
(600.579,502,o),
(602.134,510,cs),
(622.155,613,o),
(546.429,671,o),
(417.429,671,cs),
(215.429,671,o),
(151.855,524,o),
(138.054,453,cs),
(135.527,440,l),
(85.527,440,ls),
(76.527,440,o),
(71.75,436,o),
(70.389,429,cs),
(64.558,399,ls),
(63.197,392,o),
(64.42,388,o),
(73.225,387,cs),
(120.253,382,o),
(114.923,334,o),
(105.593,286,cs),
(76.436,136,ls),
(67.3,89,o),
(45.302,53,o),
(-2.698,53,cs),
(-5.698,53,ls),
(-13.698,53,o),
(-19.67,48,o),
(-21.225,40,cs),
(-26.473,13,ls),
(-28.222,4,o),
(-24,0,o),
(-16,0,cs),
(168,0,ls),
(176,0,o),
(182.778,4,o),
(184.527,13,cs),
(278.218,495,ls),
(292.019,566,o),
(342.406,604,o),
(404.406,604,cs),
(466.406,604,o),
(511.546,579,o),
(498.134,510,cs),
(496.773,503,o),
(494.801,498,o),
(489.024,494,cs),
(339.225,387,ls),
(332.448,383,o),
(326.67,379,o),
(321.67,379,cs),
(318.67,379,ls),
(313.67,379,o),
(310.281,377,o),
(309.309,372,cs),
(307.754,364,o),
(329.117,335,o),
(335.562,327,cs),
(340.396,321,o),
(344.619,317,o),
(350.619,317,cs),
(448.619,317,o),
(500.843,277,o),
(482.377,182,cs),
(466.244,99,o),
(402.663,60,o),
(338.663,60,cs),
(310.663,60,o),
(284.061,69.762,o),
(260.751,86.58,cs),
(254.424,91.146,o),
(250.52,92.198,o),
(247.215,87.438,cs),
(227.392,58.89,ls),
(222.206,51.422,o),
(225.33,48,o),
(227.747,45,cs),
(254.333,12,o),
(296.862,-11,o),
(357.862,-11,cs),
(463.862,-11,o),
(583.97,41,o),
(611.377,182,cs),
(635.869,308,o),
(539.476,378,o),
(427.476,378,c)
);
}
);
width = 653;
}
);
unicode = 7838;
},
{
glyphname = T;
kernLeft = T;
kernRight = T;
lastChange = "2026-05-05 11:06:33 +0000";
layers = (
{
anchors = (
{
name = bottom;
pos = (298,0);
},
{
name = top;
pos = (427.291,660);
}
);
layerId = m003;
shapes = (
{
closed = 1;
nodes = (
(203.291,660,ls),
(197.291,660,o),
(189.485,661,o),
(183.04,669,cs),
(181.429,671,o),
(178.624,672,o),
(175.624,672,cs),
(171.624,672,o),
(167.235,670,o),
(164.069,664,cs),
(69.188,536,ls),
(66.41,532,o),
(65.216,531,o),
(64.633,528,cs),
(63.855,524,o),
(65.078,520,o),
(69.495,517,cs),
(84.551,507,ls),
(88.968,504,o),
(91.162,505,o),
(93.162,505,cs),
(98.162,505,o),
(101.745,508,o),
(104.523,512,cs),
(108.689,518,ls),
(161.268,593,o),
(263.321,619,o),
(334.321,619,cs),
(377.321,619,l),
(279.548,116,ls),
(270.607,70,o),
(248.415,33,o),
(203.415,33,cs),
(198.415,33,ls),
(189.415,33,o),
(184.443,28,o),
(182.888,20,cs),
(181.527,13,ls),
(179.778,4,o),
(183,0,o),
(192,0,cs),
(407,0,ls),
(415,0,o),
(420.778,4,o),
(422.527,13,cs),
(423.888,20,ls),
(425.443,28,o),
(421.415,33,o),
(413.415,33,cs),
(407.415,33,ls),
(362.415,33,o),
(354.607,70,o),
(363.548,116,cs),
(461.321,619,l),
(504.321,619,ls),
(575.321,619,o),
(667.268,593,o),
(690.689,518,cs),
(692.523,512,ls),
(693.745,508,o),
(696.162,505,o),
(701.162,505,cs),
(703.162,505,o),
(704.968,504,o),
(710.551,507,cs),
(729.495,517,ls),
(735.078,520,o),
(737.855,524,o),
(738.633,528,cs),
(739.216,531,o),
(738.41,532,o),
(737.188,536,cs),
(692.069,664,ls),
(691.235,670,o),
(687.624,672,o),
(683.624,672,cs),
(680.624,672,o),
(677.429,671,o),
(675.04,669,cs),
(665.485,661,o),
(657.291,660,o),
(651.291,660,cs)
);
}
);
width = 693;
},
{
anchors = (
{
name = bottom;
pos = (298,0);
},
{
name = top;
pos = (427.291,660);
}
);
layerId = m004;
shapes = (
{
closed = 1;
nodes = (
(203.291,660,ls),
(197.291,660,o),
(189.485,661,o),
(183.04,669,cs),
(181.429,671,o),
(178.624,672,o),
(175.624,672,cs),
(171.624,672,o),
(167.235,670,o),
(164.069,664,cs),
(69.188,536,ls),
(66.41,532,o),
(65.216,531,o),
(64.633,528,cs),
(63.855,524,o),
(65.078,520,o),
(69.495,517,cs),
(102.607,497,ls),
(106.218,495,o),
(109.218,495,o),
(111.218,495,cs),
(116.218,495,o),
(118.801,498,o),
(122.579,502,cs),
(126.745,508,ls),
(167.214,567,o),
(229.49,589,o),
(300.49,589,cs),
(343.49,589,l),
(255.436,136,ls),
(246.494,90,o),
(224.302,53,o),
(179.302,53,cs),
(174.302,53,ls),
(165.302,53,o),
(160.33,48,o),
(158.775,40,cs),
(153.527,13,ls),
(151.778,4,o),
(155,0,o),
(164,0,cs),
(435,0,ls),
(443,0,o),
(448.778,4,o),
(450.527,13,cs),
(455.775,40,ls),
(457.33,48,o),
(453.302,53,o),
(445.302,53,cs),
(439.302,53,ls),
(394.302,53,o),
(386.494,90,o),
(395.436,136,cs),
(483.49,589,l),
(526.49,589,ls),
(597.49,589,o),
(651.214,567,o),
(668.745,508,cs),
(670.579,502,ls),
(672.801,498,o),
(674.218,495,o),
(679.218,495,cs),
(681.218,495,o),
(684.218,495,o),
(688.607,497,cs),
(729.495,517,ls),
(735.078,520,o),
(737.855,524,o),
(738.633,528,cs),
(739.216,531,o),
(738.41,532,o),
(737.188,536,cs),
(692.069,664,ls),
(691.235,670,o),
(687.624,672,o),
(683.624,672,cs),
(680.624,672,o),
(677.429,671,o),
(675.04,669,cs),
(665.485,661,o),
(657.291,660,o),
(651.291,660,cs)
);
}
);
width = 693;
}
);
note = T;
unicode = 84;
},
{
glyphname = Tbar;
kernLeft = T;
kernRight = T;
lastChange = "2025-02-27 09:03:43 +0000";
layers = (
{
layerId = m003;
shapes = (
{
closed = 1;
nodes = (
(535.089,340,ls),
(544.089,340,o),
(549.061,345,o),
(550.811,354,cs),
(553.143,366,ls),
(554.893,375,o),
(551.865,380,o),
(542.865,380,cs),
(202.865,380,ls),
(193.865,380,o),
(188.893,375,o),
(187.143,366,cs),
(184.811,354,ls),
(183.061,345,o),
(186.089,340,o),
(195.089,340,cs)
);
},
{
ref = T;
}
);
width = 693;
},
{
layerId = m004;
shapes = (
{
closed = 1;
nodes = (
(531.202,320,ls),
(540.202,320,o),
(545.174,325,o),
(546.923,334,cs),
(557.031,386,ls),
(558.78,395,o),
(555.752,400,o),
(546.752,400,cs),
(206.752,400,ls),
(197.752,400,o),
(192.78,395,o),
(191.031,386,cs),
(180.923,334,ls),
(179.174,325,o),
(182.202,320,o),
(191.202,320,cs)
);
},
{
ref = T;
}
);
width = 693;
}
);
note = Tbar;
unicode = 358;
},
{
glyphname = U;
kernLeft = U;
kernRight = U;
lastChange = "2025-02-26 16:27:39 +0000";
layers = (
{
anchors = (
{
name = bottom;
pos = (307,0);
},
{
name = ogonek;
pos = (365.891,0);
},
{
name = top;
pos = (432.291,660);
},
{
name = topright;
pos = (676.291,660);
}
);
layerId = m003;
shapes = (
{
closed = 1;
nodes = (
(539.291,660,ls),
(530.291,660,o),
(525.513,656,o),
(523.764,647,cs),
(522.403,640,ls),
(520.848,632,o),
(523.876,627,o),
(532.876,627,cs),
(537.876,627,ls),
(582.876,627,o),
(589.684,590,o),
(580.743,544,cs),
(523.789,251,ls),
(502.991,144,o),
(447.941,46,o),
(326.941,46,cs),
(168.941,46,o),
(170.546,152,o),
(189.789,251,cs),
(246.743,544,ls),
(255.684,590,o),
(277.876,627,o),
(321.876,627,cs),
(326.876,627,ls),
(335.876,627,o),
(341.848,632,o),
(343.403,640,cs),
(344.764,647,ls),
(346.513,656,o),
(342.291,660,o),
(333.291,660,cs),
(121.291,660,ls),
(112.291,660,o),
(107.513,656,o),
(105.764,647,cs),
(104.403,640,ls),
(102.848,632,o),
(105.876,627,o),
(114.876,627,cs),
(120.876,627,ls),
(165.876,627,o),
(172.684,590,o),
(163.743,544,cs),
(103.291,233,ls),
(73.55,80,o),
(135.862,-11,o),
(289.862,-11,cs),
(443.862,-11,o),
(539.55,80,o),
(571.04,242,cs),
(629.743,544,ls),
(638.684,590,o),
(660.876,627,o),
(704.876,627,cs),
(710.876,627,ls),
(719.876,627,o),
(724.848,632,o),
(726.403,640,cs),
(727.764,647,ls),
(729.513,656,o),
(726.291,660,o),
(717.291,660,cs)
);
}
);
width = 653;
},
{
anchors = (
{
name = bottom;
pos = (345,0);
},
{
name = ogonek;
pos = (416,0);
},
{
name = top;
pos = (470.291,660);
},
{
name = topright;
pos = (714.291,660);
}
);
layerId = m004;
shapes = (
{
closed = 1;
nodes = (
(557.291,660,ls),
(548.291,660,o),
(543.513,656,o),
(541.764,647,cs),
(536.516,620,ls),
(534.961,612,o),
(537.989,607,o),
(546.989,607,cs),
(551.989,607,ls),
(596.989,607,o),
(603.797,570,o),
(594.855,524,cs),
(541.789,251,ls),
(520.991,144,o),
(469.829,66,o),
(368.829,66,cs),
(230.829,66,o),
(228.546,152,o),
(247.789,251,cs),
(300.855,524,ls),
(309.797,570,o),
(331.989,607,o),
(375.989,607,cs),
(380.989,607,ls),
(389.989,607,o),
(395.961,612,o),
(397.516,620,cs),
(402.764,647,ls),
(404.513,656,o),
(400.291,660,o),
(391.291,660,cs),
(121.291,660,ls),
(112.291,660,o),
(107.513,656,o),
(105.764,647,cs),
(100.516,620,ls),
(98.961,612,o),
(101.989,607,o),
(110.989,607,cs),
(116.989,607,ls),
(161.989,607,o),
(168.797,570,o),
(159.855,524,cs),
(103.291,233,ls),
(73.55,80,o),
(153.862,-11,o),
(327.862,-11,cs),
(501.862,-11,o),
(597.55,80,o),
(629.04,242,cs),
(683.855,524,ls),
(692.797,570,o),
(714.989,607,o),
(758.989,607,cs),
(764.989,607,ls),
(773.989,607,o),
(778.961,612,o),
(780.516,620,cs),
(785.764,647,ls),
(787.513,656,o),
(784.291,660,o),
(775.291,660,cs)
);
}
);
width = 711;
}
);
note = U;
unicode = 85;
},
{
glyphname = Uhorn;
kernLeft = U;
kernRight = Uhorn;
lastChange = "2025-02-27 11:33:59 +0000";
layers = (
{
anchors = (
{
name = bottom;
pos = (307,0);
},
{
name = ogonek;
pos = (365.891,0);
},
{
name = top;
pos = (432.291,660);
},
{
name = topright;
pos = (676.291,660);
}
);
layerId = m003;
shapes = (
{
pos = (571.013,220);
ref = horncomb;
},
{
closed = 1;
nodes = (
(539.291,660,l),
(530.291,660,o),
(525.513,656,o),
(523.764,647,cs),
(522.403,640,ls),
(520.848,632,o),
(523.876,627,o),
(532.876,627,cs),
(537.876,627,ls),
(582.876,627,o),
(589.684,590,o),
(580.743,544,cs),
(523.789,251,ls),
(502.991,144,o),
(447.941,46,o),
(326.941,46,cs),
(168.941,46,o),
(170.546,152,o),
(189.789,251,cs),
(246.743,544,ls),
(255.684,590,o),
(277.876,627,o),
(321.876,627,cs),
(326.876,627,ls),
(335.876,627,o),
(341.848,632,o),
(343.403,640,cs),
(344.764,647,ls),
(346.513,656,o),
(342.291,660,o),
(333.291,660,cs),
(121.291,660,ls),
(112.291,660,o),
(107.513,656,o),
(105.764,647,cs),
(104.403,640,ls),
(102.848,632,o),
(105.876,627,o),
(114.876,627,cs),
(120.876,627,ls),
(165.876,627,o),
(172.684,590,o),
(163.743,544,cs),
(103.291,233,ls),
(73.55,80,o),
(135.862,-11,o),
(289.862,-11,cs),
(443.862,-11,o),
(539.55,80,o),
(571.04,242,cs),
(652.273,659.906,l)
);
}
);
width = 772.69;
},
{
anchors = (
{
name = bottom;
pos = (345,0);
},
{
name = ogonek;
pos = (416,0);
},
{
name = top;
pos = (470.291,660);
},
{
name = topright;
pos = (714.291,660);
}
);
layerId = m004;
shapes = (
{
pos = (546.764,220);
ref = horncomb;
slant = (11,0);
},
{
closed = 1;
nodes = (
(557.291,660,l),
(548.291,660,o),
(543.513,656,o),
(541.764,647,cs),
(536.516,620,ls),
(534.961,612,o),
(537.989,607,o),
(546.989,607,cs),
(551.989,607,ls),
(596.989,607,o),
(603.797,570,o),
(594.855,524,cs),
(541.789,251,ls),
(520.991,144,o),
(469.829,66,o),
(368.829,66,cs),
(230.829,66,o),
(228.546,152,o),
(247.789,251,cs),
(300.855,524,ls),
(309.797,570,o),
(331.989,607,o),
(375.989,607,cs),
(380.989,607,ls),
(389.989,607,o),
(395.961,612,o),
(397.516,620,cs),
(402.764,647,ls),
(404.513,656,o),
(400.291,660,o),
(391.291,660,cs),
(121.291,660,ls),
(112.291,660,o),
(107.513,656,o),
(105.764,647,cs),
(100.516,620,ls),
(98.961,612,o),
(101.989,607,o),
(110.989,607,cs),
(116.989,607,ls),
(161.989,607,o),
(168.797,570,o),
(159.855,524,cs),
(103.291,233,ls),
(73.55,80,o),
(153.862,-11,o),
(327.862,-11,cs),
(501.862,-11,o),
(597.55,80,o),
(629.04,242,cs),
(710.291,660,l)
);
}
);
width = 831;
}
);
unicode = 431;
},
{
glyphname = V;
kernLeft = V;
kernRight = V;
lastChange = "2026-05-05 10:53:54 +0000";
layers = (
{
background = {
shapes = (
{
closed = 1;
nodes = (
(410,660,ls),
(402,660,o),
(397,655,o),
(397,647,cs),
(397,620,ls),
(397,612,o),
(402,607,o),
(410,607,cs),
(465,607,o),
(494,578,o),
(475,525,cs),
(313,65,l),
(356,65,l),
(184,517,ls),
(159,582,o),
(187,607,o),
(245,607,cs),
(253,607,o),
(258,612,o),
(258,620,cs),
(258,647,ls),
(258,655,o),
(253,660,o),
(245,660,cs),
(-25,660,ls),
(-34,660,o),
(-39,655,o),
(-39,647,cs),
(-39,620,ls),
(-39,612,o),
(-34,607,o),
(-25,607,cs),
(7,607,o),
(22,571,o),
(40,525,cs),
(238,11,ls),
(240,4,o),
(246,0,o),
(253,0,cs),
(359,0,ls),
(366,0,o),
(371,4,o),
(374,11,cs),
(563,525,ls),
(579,569,o),
(596,607,o),
(629,607,cs),
(638,607,o),
(643,612,o),
(643,620,cs),
(643,647,ls),
(643,655,o),
(638,660,o),
(629,660,cs)
);
}
);
};
layerId = m003;
shapes = (
{
closed = 1;
nodes = (
(503.291,660,ls),
(495.291,660,o),
(489.319,655,o),
(487.764,647,cs),
(486.403,640,ls),
(484.848,632,o),
(488.876,627,o),
(496.876,627,cs),
(551.876,627,o),
(575.239,598,o),
(545.937,545,cs),
(283.635,65,l),
(326.635,65,l),
(238.382,537,ls),
(226.017,602,o),
(258.876,627,o),
(316.876,627,cs),
(324.876,627,o),
(330.848,632,o),
(332.403,640,cs),
(333.764,647,ls),
(335.319,655,o),
(331.291,660,o),
(323.291,660,cs),
(104.291,660,ls),
(95.291,660,o),
(89.319,655,o),
(87.764,647,cs),
(86.403,640,ls),
(84.848,632,o),
(88.876,627,o),
(97.876,627,cs),
(129.876,627,o),
(137.879,591,o),
(146.937,545,cs),
(249.138,11,ls),
(250.778,4,o),
(255,0,o),
(262,0,cs),
(283,0,ls),
(290,0,o),
(295.778,4,o),
(300.138,11,cs),
(599.937,545,ls),
(624.49,589,o),
(648.876,627,o),
(681.876,627,cs),
(690.876,627,o),
(696.848,632,o),
(698.403,640,cs),
(699.764,647,ls),
(701.319,655,o),
(697.291,660,o),
(688.291,660,cs)
);
}
);
width = 620;
},
{
layerId = m004;
shapes = (
{
closed = 1;
nodes = (
(539.291,660,ls),
(531.291,660,o),
(525.319,655,o),
(523.764,647,cs),
(518.516,620,ls),
(516.961,612,o),
(520.989,607,o),
(528.989,607,cs),
(583.989,607,o),
(607.352,578,o),
(578.05,525,cs),
(326.635,65,l),
(369.635,65,l),
(285.495,517,ls),
(273.129,582,o),
(305.989,607,o),
(363.989,607,cs),
(371.989,607,o),
(377.961,612,o),
(379.516,620,cs),
(384.764,647,ls),
(386.319,655,o),
(382.291,660,o),
(374.291,660,cs),
(104.291,660,ls),
(95.291,660,o),
(89.319,655,o),
(87.764,647,cs),
(82.516,620,ls),
(80.961,612,o),
(84.989,607,o),
(93.989,607,cs),
(125.989,607,o),
(133.991,571,o),
(143.05,525,cs),
(241.138,11,ls),
(241.778,4,o),
(247,0,o),
(254,0,cs),
(360,0,ls),
(367,0,o),
(372.778,4,o),
(377.138,11,cs),
(666.05,525,ls),
(690.602,569,o),
(714.989,607,o),
(747.989,607,cs),
(756.989,607,o),
(762.961,612,o),
(764.516,620,cs),
(769.764,647,ls),
(771.319,655,o),
(767.291,660,o),
(758.291,660,cs)
);
}
);
width = 690;
}
);
note = V;
unicode = 86;
},
{
glyphname = W;
kernLeft = V;
kernRight = V;
lastChange = "2026-05-05 11:06:22 +0000";
layers = (
{
anchors = (
{
name = bottom;
pos = (438.713,0);
},
{
name = top;
pos = (593.291,660);
}
);
background = {
shapes = (
{
closed = 1;
nodes = (
(783,660,ls),
(775,660,o),
(770,655,o),
(770,647,cs),
(770,620,ls),
(770,612,o),
(775,607,o),
(783,607,cs),
(819,607,o),
(851,581,o),
(851,545,cs),
(851,538,o),
(850,531,o),
(848,523,cs),
(715,124,l),
(569,528,ls),
(566,539,o),
(564,547,o),
(564,555,cs),
(564,590,o),
(591,607,o),
(612,607,cs),
(635,607,ls),
(643,607,o),
(648,612,o),
(648,620,cs),
(648,647,ls),
(648,655,o),
(643,660,o),
(635,660,cs),
(365,660,ls),
(357,660,o),
(352,655,o),
(352,647,cs),
(352,620,ls),
(352,612,o),
(357,607,o),
(365,607,cs),
(397,607,o),
(412,568,o),
(430,523,cs),
(445,483,l),
(325,124,l),
(181,523,ls),
(178,531,o),
(176,539,o),
(176,546,cs),
(176,582,o),
(209,607,o),
(245,607,cs),
(253,607,o),
(258,612,o),
(258,620,cs),
(258,647,ls),
(258,655,o),
(253,660,o),
(245,660,cs),
(-25,660,ls),
(-34,660,o),
(-39,655,o),
(-39,647,cs),
(-39,620,ls),
(-39,612,o),
(-34,607,o),
(-25,607,cs),
(8,607,o),
(23,568,o),
(40,523,cs),
(229,11,ls),
(232,4,o),
(237,0,o),
(244,0,cs),
(350,0,ls),
(357,0,o),
(363,4,o),
(365,11,cs),
(489,362,l),
(620,11,ls),
(622,4,o),
(627,0,o),
(635,0,cs),
(740,0,ls),
(748,0,o),
(753,4,o),
(755,11,cs),
(936,523,ls),
(953,569,o),
(968,607,o),
(1002,607,cs),
(1010,607,o),
(1015,612,o),
(1015,620,cs),
(1015,647,ls),
(1015,655,o),
(1010,660,o),
(1002,660,cs)
);
}
);
};
layerId = m003;
shapes = (
{
closed = 1;
nodes = (
(273,0,ls),
(280,0,o),
(285.778,4,o),
(290.138,11,cs),
(516.417,424,l),
(588.138,11,ls),
(589.778,4,o),
(594,0,o),
(601,0,cs),
(622,0,ls),
(629,0,o),
(634.778,4,o),
(639.138,11,cs),
(931.937,545,ls),
(956.49,589,o),
(980.876,627,o),
(1013.876,627,cs),
(1022.876,627,o),
(1028.848,632,o),
(1030.403,640,cs),
(1031.764,647,ls),
(1033.319,655,o),
(1029.291,660,o),
(1020.291,660,cs),
(835.291,660,ls),
(827.291,660,o),
(821.319,655,o),
(819.764,647,cs),
(818.403,640,ls),
(816.848,632,o),
(820.876,627,o),
(828.876,627,cs),
(883.876,627,o),
(906.239,598,o),
(877.937,545,cs),
(655.686,127,l),
(587.382,537,ls),
(577.017,602,o),
(600.363,626.939,o),
(658.374,627,cs),
(666.441,627,ls),
(674.118,627.016,o),
(679.885,632.19,o),
(681.403,640,cs),
(682.764,647,ls),
(684.319,655,o),
(680.291,660,o),
(672.291,660,cs),
(453.291,660,ls),
(444.291,660,o),
(438.319,655,o),
(436.764,647,cs),
(435.403,640,ls),
(433.848,632,o),
(437.876,627,o),
(446.876,627,cs),
(478.876,627,o),
(487.879,591,o),
(495.937,545,cs),
(503.996,499,l),
(306.686,127,l),
(238.382,537,ls),
(228.017,602,o),
(258.876,627,o),
(316.876,627,cs),
(324.876,627,o),
(330.848,632,o),
(332.403,640,cs),
(333.764,647,ls),
(335.319,655,o),
(331.291,660,o),
(323.291,660,cs),
(104.291,660,ls),
(95.291,660,o),
(89.319,655,o),
(87.764,647,cs),
(86.403,640,ls),
(84.848,632,o),
(88.876,627,o),
(97.876,627,cs),
(129.876,627,o),
(138.879,591,o),
(146.937,545,cs),
(239.138,11,ls),
(240.778,4,o),
(245,0,o),
(252,0,cs)
);
}
);
width = 952;
},
{
anchors = (
{
name = bottom;
pos = (500.012,0);
},
{
name = top;
pos = (636.291,660);
}
);
layerId = m004;
shapes = (
{
closed = 1;
nodes = (
(351,0,ls),
(358,0,o),
(364.778,4,o),
(368.138,11,cs),
(560.366,362,l),
(623.138,11,ls),
(623.778,4,o),
(628,0,o),
(636,0,cs),
(741,0,ls),
(749,0,o),
(754.778,4,o),
(758.138,11,cs),
(1038.661,523,ls),
(1064.602,569,o),
(1086.989,607,o),
(1120.989,607,cs),
(1128.989,607,o),
(1134.961,612,o),
(1136.516,620,cs),
(1141.764,647,ls),
(1143.319,655,o),
(1139.291,660,o),
(1131.291,660,cs),
(912.291,660,ls),
(904.291,660,o),
(898.319,655,o),
(896.764,647,cs),
(891.516,620,ls),
(889.961,612,o),
(893.989,607,o),
(901.989,607,cs),
(942.737,607,o),
(974.177,575.919,o),
(950.661,523,cs),
(740.103,124,l),
(672.633,528,ls),
(669.198,571.84,o),
(691.348,607,o),
(730.989,607,cs),
(753.989,607,ls),
(761.989,607,o),
(767.961,612,o),
(769.516,620,cs),
(774.764,647,ls),
(776.319,655,o),
(772.291,660,o),
(764.291,660,cs),
(494.291,660,ls),
(486.291,660,o),
(480.319,655,o),
(478.764,647,cs),
(473.516,620,ls),
(471.961,612,o),
(475.989,607,o),
(483.989,607,cs),
(515.989,607,o),
(523.408,568,o),
(532.661,523,cs),
(539.886,483,l),
(350.103,124,l),
(283.661,523,ls),
(276.773,561.133,o),
(307.263,607,o),
(363.989,607,cs),
(371.989,607,o),
(377.961,612,o),
(379.516,620,cs),
(384.764,647,ls),
(386.319,655,o),
(382.291,660,o),
(374.291,660,cs),
(104.291,660,ls),
(95.291,660,o),
(89.319,655,o),
(87.764,647,cs),
(82.516,620,ls),
(80.961,612,o),
(84.989,607,o),
(93.989,607,cs),
(126.989,607,o),
(134.408,568,o),
(142.661,523,cs),
(232.138,11,ls),
(233.778,4,o),
(238,0,o),
(245,0,cs)
);
}
);
width = 1062;
}
);
note = W;
unicode = 87;
},
{
glyphname = X;
kernLeft = X;
kernRight = X;
lastChange = "2025-02-26 16:27:39 +0000";
layers = (
{
background = {
shapes = (
{
closed = 1;
nodes = (
(303,361,l),
(115,121,ls),
(81,77,o),
(65,59,o),
(28,59,cs),
(24,59,ls),
(14,59,o),
(9,54,o),
(9,44,cs),
(9,15,ls),
(9,5,o),
(14,0,o),
(24,0,cs),
(231,0,ls),
(240,0,o),
(246,5,o),
(246,15,cs),
(246,44,ls),
(246,54,o),
(240,59,o),
(231,59,cs),
(211,59,ls),
(194,59,o),
(187,62,o),
(187,71,cs),
(187,81,o),
(198,98,o),
(216,121,cs),
(354,299,l)
);
},
{
closed = 1;
nodes = (
(441,338,l),
(599,539,ls),
(634,582,o),
(649,600,o),
(686,600,cs),
(700,600,ls),
(710,600,o),
(715,605,o),
(715,615,cs),
(715,645,ls),
(715,655,o),
(710,660,o),
(700,660,cs),
(494,660,ls),
(484,660,o),
(479,655,o),
(479,645,cs),
(479,615,ls),
(479,605,o),
(484,600,o),
(494,600,cs),
(503,600,ls),
(520,600,o),
(527,597,o),
(527,588,cs),
(527,578,o),
(516,561,o),
(498,539,cs),
(390,401,l)
);
},
{
closed = 1;
nodes = (
(283,555,ls),
(272,568,o),
(267,579,o),
(267,586,cs),
(267,597,o),
(278,601,o),
(303,601,cs),
(304,601,ls),
(313,601,o),
(319,606,o),
(319,616,cs),
(319,645,ls),
(319,655,o),
(313,660,o),
(304,660,cs),
(48,660,ls),
(39,660,o),
(33,655,o),
(33,645,cs),
(33,616,ls),
(33,606,o),
(39,601,o),
(48,601,cs),
(50,601,ls),
(75,601,o),
(103,580,o),
(137,539,cs),
(490,108,ls),
(501,96,o),
(504,87,o),
(504,80,cs),
(504,62,o),
(481,59,o),
(468,59,cs),
(466,59,ls),
(457,59,o),
(451,54,o),
(451,44,cs),
(451,15,ls),
(451,5,o),
(457,0,o),
(466,0,cs),
(728,0,ls),
(737,0,o),
(742,5,o),
(742,15,cs),
(742,44,ls),
(742,54,o),
(737,59,o),
(728,59,cs),
(725,59,ls),
(700,59,o),
(673,79,o),
(639,121,cs)
);
}
);
};
layerId = m003;
shapes = (
{
closed = 1;
nodes = (
(300.769,575,ls),
(292.49,589,o),
(289.434,599,o),
(290.794,606,cs),
(292.933,617,o),
(304.71,621,o),
(329.71,621,cs),
(330.71,621,ls),
(339.71,621,o),
(346.682,626,o),
(348.626,636,cs),
(350.375,645,ls),
(352.319,655,o),
(347.291,660,o),
(338.291,660,cs),
(134.291,660,ls),
(125.291,660,o),
(118.319,655,o),
(116.375,645,cs),
(114.626,636,ls),
(112.682,626,o),
(117.71,621,o),
(126.71,621,cs),
(128.71,621,ls),
(153.71,621,o),
(178.628,600,o),
(203.659,559,cs),
(495.105,88,ls),
(502.579,75,o),
(505.023,67,o),
(503.663,60,cs),
(500.164,42,o),
(476.581,39,o),
(463.581,39,cs),
(461.581,39,ls),
(452.581,39,o),
(445.609,34,o),
(443.665,24,cs),
(441.916,15,ls),
(439.972,5,o),
(445,0,o),
(454,0,cs),
(664,0,ls),
(673,0,o),
(678.972,5,o),
(680.916,15,cs),
(682.665,24,ls),
(684.609,34,o),
(680.581,39,o),
(671.581,39,cs),
(668.581,39,ls),
(643.581,39,o),
(620.468,59,o),
(594.632,101,cs)
);
},
{
closed = 1;
nodes = (
(364.67,379,l),
(92.632,101,ls),
(51.274,58,o),
(30.581,39,o),
(-6.419,39,cs),
(-10.419,39,ls),
(-20.419,39,o),
(-26.391,34,o),
(-28.335,24,cs),
(-30.084,15,ls),
(-32.028,5,o),
(-28,0,o),
(-18,0,cs),
(149,0,ls),
(158,0,o),
(164.972,5,o),
(166.916,15,cs),
(168.665,24,ls),
(170.609,34,o),
(165.581,39,o),
(156.581,39,cs),
(136.581,39,ls),
(119.581,39,o),
(113.164,42,o),
(114.913,51,cs),
(116.857,61,o),
(131.162,78,o),
(153.632,101,cs),
(387.284,341,l)
);
},
{
closed = 1;
nodes = (
(412.534,332,l),
(634.659,559,ls),
(677.017,602,o),
(696.516,620,o),
(733.516,620,cs),
(747.516,620,ls),
(757.516,620,o),
(763.488,625,o),
(765.431,635,cs),
(767.375,645,ls),
(769.319,655,o),
(765.291,660,o),
(755.291,660,cs),
(590.291,660,ls),
(580.291,660,o),
(574.319,655,o),
(572.375,645,cs),
(570.431,635,ls),
(568.488,625,o),
(572.516,620,o),
(582.516,620,cs),
(591.516,620,ls),
(608.516,620,o),
(614.933,617,o),
(613.183,608,cs),
(611.239,598,o),
(598.324,583,o),
(574.659,559,cs),
(389.726,369,l)
);
}
);
width = 729;
},
{
layerId = m004;
shapes = (
{
closed = 1;
nodes = (
(348.881,555,ls),
(340.408,568,o),
(337.546,579,o),
(338.907,586,cs),
(341.045,597,o),
(352.823,601,o),
(377.823,601,cs),
(378.823,601,ls),
(387.823,601,o),
(394.794,606,o),
(396.738,616,cs),
(402.375,645,ls),
(404.319,655,o),
(399.291,660,o),
(390.291,660,cs),
(134.291,660,ls),
(125.291,660,o),
(118.319,655,o),
(116.375,645,cs),
(110.738,616,ls),
(108.794,606,o),
(113.823,601,o),
(122.823,601,cs),
(124.823,601,ls),
(149.823,601,o),
(173.741,580,o),
(199.771,539,cs),
(468.993,108,ls),
(477.661,96,o),
(478.911,87,o),
(477.55,80,cs),
(474.052,62,o),
(450.468,59,o),
(437.468,59,cs),
(435.468,59,ls),
(426.468,59,o),
(419.497,54,o),
(417.553,44,cs),
(411.916,15,ls),
(409.972,5,o),
(415,0,o),
(424,0,cs),
(686,0,ls),
(695,0,o),
(700.972,5,o),
(702.916,15,cs),
(708.553,44,ls),
(710.497,54,o),
(706.468,59,o),
(697.468,59,cs),
(694.468,59,ls),
(669.468,59,o),
(646.356,79,o),
(620.52,121,cs)
);
},
{
closed = 1;
nodes = (
(362.586,394,l),
(96.52,121,ls),
(53.967,77,o),
(34.468,59,o),
(-2.532,59,cs),
(-6.532,59,ls),
(-16.532,59,o),
(-22.503,54,o),
(-24.447,44,cs),
(-30.084,15,ls),
(-32.028,5,o),
(-28,0,o),
(-18,0,cs),
(189,0,ls),
(198,0,o),
(204.972,5,o),
(206.916,15,cs),
(212.553,44,ls),
(214.497,54,o),
(209.468,59,o),
(200.468,59,cs),
(180.468,59,ls),
(163.468,59,o),
(157.052,62,o),
(158.801,71,cs),
(160.745,81,o),
(175.049,98,o),
(197.52,121,cs),
(401.534,332,l)
);
},
{
closed = 1;
nodes = (
(434.869,308,l),
(661.771,539,ls),
(704.324,583,o),
(723.628,600,o),
(760.628,600,cs),
(774.628,600,ls),
(784.628,600,o),
(790.6,605,o),
(792.544,615,cs),
(798.375,645,ls),
(800.319,655,o),
(796.291,660,o),
(786.291,660,cs),
(580.291,660,ls),
(570.291,660,o),
(564.319,655,o),
(562.375,645,cs),
(556.544,615,ls),
(554.6,605,o),
(558.628,600,o),
(568.628,600,cs),
(577.628,600,ls),
(594.628,600,o),
(601.045,597,o),
(599.296,588,cs),
(597.352,578,o),
(582.047,561,o),
(560.771,539,cs),
(396.115,371,l)
);
}
);
width = 751;
}
);
note = X;
unicode = 88;
},
{
glyphname = Y;
kernLeft = Y;
kernRight = Y;
lastChange = "2026-05-05 11:07:57 +0000";
layers = (
{
anchors = (
{
name = bottom;
pos = (284,0);
},
{
name = top;
pos = (453.291,660);
},
{
name = topleft;
pos = (82.291,660);
}
);
background = {
anchors = (
{
name = bottom;
pos = (326,0);
},
{
name = top;
pos = (367,660);
},
{
name = topleft;
pos = (-4,660);
}
);
shapes = (
{
closed = 1;
nodes = (
(434,660,ls),
(426,660,o),
(420,655,o),
(420,647,cs),
(420,620,ls),
(420,612,o),
(426,607,o),
(434,607,cs),
(460,607,o),
(474,598,o),
(474,578,cs),
(474,565,o),
(468,546,o),
(455,523,cs),
(360,358,l),
(257,523,ls),
(246,540,o),
(242,554,o),
(242,566,cs),
(242,596,o),
(272,607,o),
(303,607,cs),
(311,607,o),
(317,612,o),
(317,620,cs),
(317,647,ls),
(317,655,o),
(311,660,o),
(303,660,cs),
(-2,660,ls),
(-11,660,o),
(-15,655,o),
(-15,647,cs),
(-15,620,ls),
(-15,612,o),
(-11,607,o),
(-2,607,cs),
(35,607,o),
(59,582,o),
(98,523,cs),
(257,288,ls),
(260,282,o),
(262,278,o),
(262,272,cs),
(262,136,ls),
(262,90,o),
(247,53,o),
(202,53,cs),
(197,53,ls),
(189,53,o),
(184,48,o),
(184,40,cs),
(184,13,ls),
(184,4,o),
(189,0,o),
(197,0,cs),
(468,0,ls),
(476,0,o),
(481,4,o),
(481,13,cs),
(481,40,ls),
(481,48,o),
(476,53,o),
(468,53,cs),
(462,53,ls),
(417,53,o),
(403,90,o),
(403,136,cs),
(403,276,ls),
(403,282,o),
(404,288,o),
(407,293,cs),
(543,523,ls),
(577,581,o),
(614,607,o),
(653,607,cs),
(662,607,o),
(666,612,o),
(666,620,cs),
(666,647,ls),
(666,655,o),
(662,660,o),
(653,660,cs)
);
}
);
};
layerId = m003;
shapes = (
{
closed = 1;
nodes = (
(552.291,660,ls),
(544.291,660,o),
(537.319,655,o),
(535.764,647,cs),
(534.403,640,ls),
(532.848,632,o),
(537.876,627,o),
(545.876,627,cs),
(571.876,627,o),
(584.127,618,o),
(580.239,598,cs),
(577.712,585,o),
(566.63,564,o),
(550.549,543,cs),
(360.508,301,l),
(388.813,318,l),
(285.549,543,ls),
(278.659,559,o),
(276.574,574,o),
(278.907,586,cs),
(284.738,616,o),
(316.876,627,o),
(347.876,627,cs),
(355.876,627,o),
(362.848,632,o),
(364.403,640,cs),
(365.764,647,ls),
(367.319,655,o),
(362.291,660,o),
(354.291,660,cs),
(108.291,660,ls),
(99.291,660,o),
(94.319,655,o),
(92.764,647,cs),
(91.403,640,ls),
(89.848,632,o),
(92.876,627,o),
(101.876,627,cs),
(138.876,627,o),
(156.823,601,o),
(185.549,543,cs),
(308.982,288,ls),
(311.815,282,o),
(312.038,278,o),
(310.871,272,cs),
(280.548,116,ls),
(271.607,70,o),
(249.415,33,o),
(204.415,33,cs),
(199.415,33,ls),
(191.415,33,o),
(185.443,28,o),
(183.888,20,cs),
(182.527,13,ls),
(180.778,4,o),
(185,0,o),
(193,0,cs),
(406,0,ls),
(414,0,o),
(419.778,4,o),
(421.527,13,cs),
(422.888,20,ls),
(424.443,28,o),
(420.415,33,o),
(412.415,33,cs),
(406.415,33,ls),
(361.415,33,o),
(354.607,70,o),
(363.548,116,cs),
(394.649,276,ls),
(395.815,282,o),
(397.982,288,o),
(401.953,293,cs),
(598.549,543,ls),
(643.628,600,o),
(685.876,627,o),
(724.876,627,cs),
(733.876,627,o),
(738.848,632,o),
(740.403,640,cs),
(741.764,647,ls),
(743.319,655,o),
(740.291,660,o),
(731.291,660,cs)
);
}
);
width = 667;
},
{
anchors = (
{
name = bottom;
pos = (308,0);
},
{
name = top;
pos = (477.291,660);
},
{
name = topleft;
pos = (106.291,660);
}
);
layerId = m004;
shapes = (
{
closed = 1;
nodes = (
(544.291,660,ls),
(536.291,660,o),
(529.319,655,o),
(527.764,647,cs),
(522.516,620,ls),
(520.961,612,o),
(525.989,607,o),
(533.989,607,cs),
(559.989,607,o),
(572.239,598,o),
(568.352,578,cs),
(565.825,565,o),
(556.132,546,o),
(538.661,523,cs),
(369.897,303,l),
(434.286,305,l),
(340.661,523,ls),
(332.965,540,o),
(331.687,554,o),
(334.019,566,cs),
(339.851,596,o),
(371.989,607,o),
(402.989,607,cs),
(410.989,607,o),
(417.961,612,o),
(419.516,620,cs),
(424.764,647,ls),
(426.319,655,o),
(421.291,660,o),
(413.291,660,cs),
(108.291,660,ls),
(99.291,660,o),
(94.319,655,o),
(92.764,647,cs),
(87.516,620,ls),
(85.961,612,o),
(88.989,607,o),
(97.989,607,cs),
(134.989,607,o),
(154.129,582,o),
(181.661,523,cs),
(294.982,288,ls),
(296.815,282,o),
(298.038,278,o),
(296.871,272,cs),
(270.436,136,ls),
(261.494,90,o),
(239.302,53,o),
(194.302,53,cs),
(189.302,53,ls),
(181.302,53,o),
(175.33,48,o),
(173.775,40,cs),
(168.527,13,ls),
(166.778,4,o),
(171,0,o),
(179,0,cs),
(450,0,ls),
(458,0,o),
(463.778,4,o),
(465.527,13,cs),
(470.775,40,ls),
(472.33,48,o),
(468.302,53,o),
(460.302,53,cs),
(454.302,53,ls),
(409.302,53,o),
(402.494,90,o),
(411.436,136,cs),
(438.649,276,ls),
(439.815,282,o),
(441.982,288,o),
(445.953,293,cs),
(626.661,523,ls),
(671.935,581,o),
(713.989,607,o),
(752.989,607,cs),
(761.989,607,o),
(766.961,612,o),
(768.516,620,cs),
(773.764,647,ls),
(775.319,655,o),
(772.291,660,o),
(763.291,660,cs)
);
}
);
width = 699;
}
);
note = Y;
unicode = 89;
},
{
glyphname = Z;
kernLeft = Z;
kernRight = Z;
lastChange = "2025-02-26 16:27:39 +0000";
layers = (
{
anchors = (
{
name = bottom;
pos = (258,0);
},
{
name = top;
pos = (454.291,660);
}
);
background = {
shapes = (
{
closed = 1;
nodes = (
(595,172,ls),
(592,173,o),
(590,174,o),
(587,174,cs),
(583,174,o),
(579,171,o),
(576,166,cs),
(573,161,ls),
(537,106,o),
(476,80,o),
(312,80,cs),
(194,80,l),
(626,641,ls),
(628,644,o),
(631,648,o),
(631,651,cs),
(631,656,ls),
(631,658,o),
(630,660,o),
(626,660,cs),
(155,660,ls),
(149,660,o),
(143,660,o),
(138,664,cs),
(131,671,o),
(129,671,o),
(126,671,cs),
(121,671,o),
(117,670,o),
(114,664,cs),
(45,527,ls),
(43,524,o),
(42,522,o),
(42,519,cs),
(42,515,o),
(45,511,o),
(49,509,cs),
(86,488,ls),
(89,487,o),
(92,486,o),
(94,486,cs),
(98,486,o),
(101,489,o),
(105,494,cs),
(108,498,ls),
(150,549,o),
(186,589,o),
(266,589,cs),
(415,589,l),
(19,79,ls),
(16,74,o),
(13,68,o),
(13,62,cs),
(13,13,ls),
(13,4,o),
(18,0,o),
(26,0,cs),
(526,0,ls),
(532,0,o),
(539,0,o),
(543,-4,cs),
(547,-9,ls),
(550,-11,o),
(553,-11,o),
(555,-11,cs),
(560,-11,o),
(563,-9,o),
(566,-4,cs),
(636,133,ls),
(638,136,o),
(639,138,o),
(639,141,cs),
(639,144,o),
(638,148,o),
(632,151,cs)
);
}
);
};
layerId = m003;
shapes = (
{
closed = 1;
nodes = (
(606.906,159,ls),
(604.295,161,o),
(602.295,161,o),
(599.295,161,cs),
(595.295,161,o),
(590.712,158,o),
(586.74,153,cs),
(582.768,148,ls),
(520.412,69,o),
(443.719,50,o),
(279.719,50,cs),
(91.719,50,l),
(688.598,641,ls),
(691.181,644,o),
(694.958,648,o),
(695.542,651,cs),
(696.513,656,ls),
(696.902,658,o),
(696.291,660,o),
(692.291,660,cs),
(241.291,660,ls),
(235.291,660,o),
(229.291,660,o),
(225.069,664,cs),
(219.429,671,o),
(217.429,671,o),
(214.429,671,cs),
(209.429,671,o),
(205.235,670,o),
(201.069,664,cs),
(109.326,547,ls),
(106.743,544,o),
(105.354,542,o),
(104.771,539,cs),
(103.993,535,o),
(105.41,532,o),
(109.827,529,cs),
(116.05,525,ls),
(118.661,523,o),
(121.661,523,o),
(123.661,523,cs),
(127.661,523,o),
(131.244,526,o),
(136.216,531,cs),
(139.993,535,ls),
(191.907,586,o),
(234.321,619,o),
(314.321,619,cs),
(560.321,619,l),
(-13.475,49,ls),
(-18.447,44,o),
(-21.614,38,o),
(-22.78,32,cs),
(-26.473,13,ls),
(-28.222,4,o),
(-24,0,o),
(-16,0,cs),
(484,0,ls),
(490,0,o),
(497,0,o),
(500.222,-4,cs),
(503.251,-9,ls),
(505.862,-11,o),
(508.862,-11,o),
(510.862,-11,cs),
(515.862,-11,o),
(519.251,-9,o),
(523.222,-4,cs),
(619.853,133,ls),
(622.436,136,o),
(623.824,138,o),
(624.408,141,cs),
(624.991,144,o),
(624.574,147,o),
(619.351,151,cs)
);
}
);
width = 656;
},
{
anchors = (
{
name = bottom;
pos = (258,0);
},
{
name = top;
pos = (454.291,660);
}
);
hints = (
{
horizontal = 1;
place = (-12,21);
target = up;
type = BottomGhost;
}
);
layerId = m004;
shapes = (
{
closed = 1;
nodes = (
(586.433,172,ls),
(583.628,173,o),
(581.822,174,o),
(578.822,174,cs),
(574.822,174,o),
(570.239,171,o),
(566.267,166,cs),
(562.295,161,ls),
(515.604,106,o),
(449.55,80,o),
(285.55,80,cs),
(167.55,80,l),
(708.598,641,ls),
(711.181,644,o),
(714.958,648,o),
(715.542,651,cs),
(716.513,656,ls),
(716.902,658,o),
(716.291,660,o),
(712.291,660,cs),
(241.291,660,ls),
(235.291,660,o),
(229.291,660,o),
(225.069,664,cs),
(219.429,671,o),
(217.429,671,o),
(214.429,671,cs),
(209.429,671,o),
(205.235,670,o),
(201.069,664,cs),
(105.438,527,ls),
(102.855,524,o),
(101.467,522,o),
(100.883,519,cs),
(100.106,515,o),
(102.328,511,o),
(105.94,509,cs),
(138.858,488,ls),
(141.663,487,o),
(144.469,486,o),
(146.469,486,cs),
(150.469,486,o),
(154.052,489,o),
(159.024,494,cs),
(162.801,498,ls),
(214.715,549,o),
(258.49,589,o),
(338.49,589,cs),
(487.49,589,l),
(-7.644,79,ls),
(-11.616,74,o),
(-15.782,68,o),
(-16.948,62,cs),
(-26.473,13,ls),
(-28.222,4,o),
(-24,0,o),
(-16,0,cs),
(484,0,ls),
(490,0,o),
(497,0,o),
(500.222,-4,cs),
(503.251,-9,ls),
(505.862,-11,o),
(508.862,-11,o),
(510.862,-11,cs),
(515.862,-11,o),
(519.251,-9,o),
(523.222,-4,cs),
(619.853,133,ls),
(622.436,136,o),
(623.824,138,o),
(624.408,141,cs),
(624.991,144,o),
(624.768,148,o),
(619.351,151,cs)
);
}
);
width = 656;
}
);
note = Z;
unicode = 90;
},
{
glyphname = Saltillo;
lastChange = "2025-02-27 09:03:58 +0000";
layers = (
{
layerId = m003;
shapes = (
{
closed = 1;
nodes = (
(113.139,438,ls),
(111.711,428.951,o),
(114.612,425,o),
(123.612,425,cs),
(128.612,425,ls),
(136.612,425,o),
(142.049,428.951,o),
(144.139,438,cs),
(207.204,711,ls),
(209.294,720.049,o),
(204.731,724,o),
(196.731,724,cs),
(171.731,724,ls),
(162.731,724,o),
(157.632,720.049,o),
(156.204,711,cs)
);
}
);
width = 186;
},
{
layerId = m004;
shapes = (
{
closed = 1;
nodes = (
(113.139,438,ls),
(112.389,429,o),
(114.612,425,o),
(123.612,425,cs),
(143.612,425,ls),
(151.612,425,o),
(156.389,429,o),
(159.139,438,cs),
(232.204,711,ls),
(234.954,720,o),
(229.731,724,o),
(221.731,724,cs),
(161.731,724,ls),
(152.731,724,o),
(146.954,720,o),
(146.204,711,cs)
);
}
);
width = 186;
}
);
unicode = 42891;
},
{
glyphname = a;
kernLeft = a;
kernRight = a;
lastChange = "2025-06-18 09:58:12 +0000";
layers = (
{
anchors = (
{
name = bottom;
pos = (217,0);
},
{
name = ogonek;
pos = (441.665,24);
},
{
name = top;
pos = (295.527,440);
}
);
background = {
shapes = (
{
closed = 1;
nodes = (
(469,449,ls),
(469,451,o),
(469,451,o),
(467,451,c),
(466,451,l),
(466,451,o),
(465,451,o),
(462,450,cs),
(454,444,o),
(448,440,o),
(442,436,cs),
(426,424,o),
(406,413,o),
(375,400,c),
(338,433,o),
(290,451,o),
(232,451,cs),
(126,451,o),
(26,384,o),
(26,221,cs),
(26,50,o),
(142,-11,o),
(222,-11,cs),
(312,-11,o),
(346,46,o),
(356,70,c),
(352,45,o),
(346,-2,o),
(346,-8,cs),
(346,-11,o),
(347,-11,o),
(348,-11,cs),
(350,-11,ls),
(353,-11,o),
(355,-11,o),
(356,-10,cs),
(396,8,o),
(432,24,o),
(518,24,cs),
(527,24,o),
(532,28,o),
(532,36,cs),
(532,65,ls),
(532,71,o),
(530,76,o),
(521,77,cs),
(478,82,o),
(469,121,o),
(469,163,c)
);
},
{
closed = 1;
nodes = (
(346,124,l),
(344,119,o),
(324,66,o),
(261,66,cs),
(189,66,o),
(140,136,o),
(140,249,cs),
(140,322,o),
(163,392,o),
(248,392,cs),
(317,392,o),
(340,336,o),
(346,301,c)
);
}
);
};
layerId = m003;
shapes = (
{
closed = 1;
nodes = (
(342.41,105,l),
(339.438,100,o),
(293.192,37,o),
(209.192,37,cs),
(124.192,37,o),
(83.326,120,o),
(109.178,253,cs),
(125.701,338,o),
(168.834,421,o),
(268.834,421,cs),
(359.834,421,o),
(394.697,373.992,o),
(369.313,243.405,cs)
);
},
{
closed = 1;
nodes = (
(475.277,449,ls),
(475.666,451,o),
(474.666,451,o),
(472.666,451,cs),
(468.666,451,o),
(439.862,416,o),
(410.752,400,c),
(380.167,433,o),
(335.666,451,o),
(277.666,451,cs),
(171.666,451,o),
(58.642,384,o),
(26.958,221,cs),
(-6.281,50,o),
(97.862,-11,o),
(177.862,-11,cs),
(281.862,-11,o),
(337.829,66,o),
(348.494,90,c),
(343.494,90,l),
(328.719,50,o),
(314,0,o),
(312.445,-8,cs),
(311.862,-11,o),
(312.862,-11,o),
(313.862,-11,cs),
(315.862,-11,ls),
(318.862,-11,o),
(320.617,-10.596,o),
(322.056,-10,cs),
(365.555,8,o),
(415.665,24,o),
(441.665,24,cs),
(450.665,24,o),
(456.443,28,o),
(457.998,36,cs),
(459.747,45,ls),
(460.913,51,o),
(459.885,56,o),
(451.08,57,cs),
(409.052,62,o),
(403.745,81,o),
(411.909,123,cs)
);
}
);
width = 506;
},
{
anchors = (
{
name = bottom;
pos = (239,0);
},
{
name = ogonek;
pos = (445.471,23);
},
{
name = top;
pos = (295.527,440);
}
);
background = {
shapes = (
{
closed = 1;
nodes = (
(469,449,ls),
(469,451,o),
(469,451,o),
(467,451,c),
(466,451,l),
(466,451,o),
(465,451,o),
(462,450,cs),
(454,444,o),
(448,440,o),
(442,436,cs),
(426,424,o),
(406,413,o),
(375,400,c),
(338,433,o),
(290,451,o),
(232,451,cs),
(126,451,o),
(26,384,o),
(26,221,cs),
(26,50,o),
(142,-11,o),
(222,-11,cs),
(312,-11,o),
(346,46,o),
(356,70,c),
(352,45,o),
(346,-2,o),
(346,-8,cs),
(346,-11,o),
(347,-11,o),
(348,-11,cs),
(350,-11,ls),
(353,-11,o),
(355,-11,o),
(356,-10,cs),
(396,8,o),
(432,24,o),
(518,24,cs),
(527,24,o),
(532,28,o),
(532,36,cs),
(532,65,ls),
(532,71,o),
(530,76,o),
(521,77,cs),
(478,82,o),
(469,121,o),
(469,163,c)
);
},
{
closed = 1;
nodes = (
(346,124,l),
(344,119,o),
(324,66,o),
(261,66,cs),
(189,66,o),
(140,136,o),
(140,249,cs),
(140,322,o),
(163,392,o),
(248,392,cs),
(317,392,o),
(340,336,o),
(346,301,c)
);
}
);
};
layerId = m004;
shapes = (
{
closed = 1;
nodes = (
(328.103,124,l),
(325.131,119,o),
(294.829,66,o),
(231.829,66,cs),
(159.829,66,o),
(124.436,136,o),
(146.401,249,cs),
(160.59,322,o),
(197.197,392,o),
(282.197,392,cs),
(351.197,392,o),
(372.591,352.871,o),
(351.379,243.744,cs)
);
},
{
closed = 1;
nodes = (
(514.277,449,ls),
(514.666,451,o),
(513.666,451,o),
(511.666,451,cs),
(503.666,451,o),
(469.834,421,o),
(410.752,400,c),
(380.167,433,o),
(335.666,451,o),
(277.666,451,cs),
(171.666,451,o),
(58.642,384,o),
(26.958,221,cs),
(-6.281,50,o),
(97.862,-11,o),
(177.862,-11,cs),
(281.862,-11,o),
(327.829,66,o),
(338.494,90,c),
(333.494,90,l),
(318.719,50,o),
(304,0,o),
(302.445,-8,cs),
(301.862,-11,o),
(302.862,-11,o),
(303.862,-11,cs),
(305.862,-11,ls),
(308.862,-11,o),
(310.617,-10.596,o),
(312.056,-10,cs),
(355.555,8,o),
(394.665,24,o),
(480.665,24,cs),
(489.665,24,o),
(495.443,28,o),
(496.998,36,cs),
(502.635,65,ls),
(503.801,71,o),
(502.773,76,o),
(493.967,77,cs),
(451.939,82,o),
(450.52,121,o),
(458.684,163,cs)
);
}
);
width = 545;
}
);
note = a;
unicode = 97;
},
{
glyphname = ae;
kernLeft = a;
kernRight = e;
lastChange = "2025-02-27 10:58:26 +0000";
layers = (
{
anchors = (
{
name = top;
pos = (606.395,440);
}
);
background = {
shapes = (
{
closed = 1;
nodes = (
(326,-11,o),
(356,65,o),
(358,78,c),
(361,109,l),
(346,-9,ls),
(346,-11,o),
(347,-11,o),
(348,-11,cs),
(350,-11,ls),
(353,-11,o),
(355,-11,o),
(356,-10,cs),
(386,4,o),
(414,16,o),
(465,21,c),
(500,1,o),
(541,-11,o),
(590,-11,cs),
(679,-11,o),
(733,32,o),
(766,92,cs),
(769,97,o),
(772,103,o),
(772,107,cs),
(772,110,o),
(771,113,o),
(768,114,cs),
(740,131,o),
(738,132,o),
(733,132,cs),
(730,132,o),
(728,130,o),
(726,128,cs),
(695,83,o),
(651,62,o),
(613,62,cs),
(546,62,o),
(502,108,o),
(481,158,c),
(737,269,ls),
(743,272,o),
(744,275,o),
(744,280,cs),
(744,347,o),
(679,450,o),
(563,450,cs),
(531,450,o),
(498,444,o),
(469,430,c),
(469,450,ls),
(469,451,o),
(468,451,o),
(467,451,c),
(466,451,l),
(466,451,o),
(465,451,o),
(462,450,cs),
(457,445,o),
(451,441,o),
(443,436,cs),
(428,425,o),
(407,414,o),
(375,400,c),
(338,433,o),
(290,451,o),
(232,451,cs),
(126,451,o),
(26,384,o),
(26,221,cs),
(26,50,o),
(142,-11,o),
(222,-11,cs)
);
},
{
closed = 1;
nodes = (
(189,66,o),
(140,136,o),
(140,249,cs),
(140,322,o),
(163,392,o),
(248,392,cs),
(317,392,o),
(340,336,o),
(346,301,c),
(346,124,l),
(344,119,o),
(324,66,o),
(261,66,cs)
);
},
{
closed = 1;
nodes = (
(464,233,o),
(463,262,o),
(463,280,cs),
(463,337,o),
(493,380,o),
(541,380,cs),
(582,380,o),
(612,340,o),
(612,283,c),
(471,212,l)
);
}
);
};
layerId = m003;
shapes = (
{
ref = a;
},
{
alignment = -1;
pos = (340.474,0);
ref = e;
}
);
width = 764.61;
},
{
anchors = (
{
name = top;
pos = (610.799,440);
}
);
background = {
shapes = (
{
closed = 1;
nodes = (
(326,-11,o),
(356,65,o),
(358,78,c),
(361,109,l),
(346,-9,ls),
(346,-11,o),
(347,-11,o),
(348,-11,cs),
(350,-11,ls),
(353,-11,o),
(355,-11,o),
(356,-10,cs),
(386,4,o),
(414,16,o),
(465,21,c),
(500,1,o),
(541,-11,o),
(590,-11,cs),
(679,-11,o),
(733,32,o),
(766,92,cs),
(769,97,o),
(772,103,o),
(772,107,cs),
(772,110,o),
(771,113,o),
(768,114,cs),
(740,131,o),
(738,132,o),
(733,132,cs),
(730,132,o),
(728,130,o),
(726,128,cs),
(695,83,o),
(651,62,o),
(613,62,cs),
(546,62,o),
(502,108,o),
(481,158,c),
(737,269,ls),
(743,272,o),
(744,275,o),
(744,280,cs),
(744,347,o),
(679,450,o),
(563,450,cs),
(531,450,o),
(498,444,o),
(469,430,c),
(469,450,ls),
(469,451,o),
(468,451,o),
(467,451,c),
(466,451,l),
(466,451,o),
(465,451,o),
(462,450,cs),
(457,445,o),
(451,441,o),
(443,436,cs),
(428,425,o),
(407,414,o),
(375,400,c),
(338,433,o),
(290,451,o),
(232,451,cs),
(126,451,o),
(26,384,o),
(26,221,cs),
(26,50,o),
(142,-11,o),
(222,-11,cs)
);
},
{
closed = 1;
nodes = (
(189,66,o),
(140,136,o),
(140,249,cs),
(140,322,o),
(163,392,o),
(248,392,cs),
(317,392,o),
(340,336,o),
(346,301,c),
(346,124,l),
(344,119,o),
(324,66,o),
(261,66,cs)
);
},
{
closed = 1;
nodes = (
(464,233,o),
(463,262,o),
(463,280,cs),
(463,337,o),
(493,380,o),
(541,380,cs),
(582,380,o),
(612,340,o),
(612,283,c),
(471,212,l)
);
}
);
};
layerId = m004;
shapes = (
{
ref = a;
},
{
alignment = -1;
pos = (337.388,0);
ref = e;
}
);
width = 790.39;
}
);
metricLeft = a;
metricRight = e;
note = ae;
unicode = 230;
},
{
glyphname = b;
kernLeft = b;
kernRight = b;
lastChange = "2026-05-05 09:50:36 +0000";
layers = (
{
anchors = (
{
name = bottom;
pos = (198,0);
},
{
name = center;
pos = (222,744);
},
{
name = top;
pos = (284,440);
}
);
hints = (
{
horizontal = 1;
place = (704,-20);
target = down;
type = TopGhost;
}
);
layerId = m003;
shapes = (
{
closed = 1;
nodes = (
(296.862,-11,o),
(400.328,84,o),
(426.569,219,cs),
(459.808,390,o),
(362.666,451,o),
(287.666,451,cs),
(237.666,451,o),
(202.972,432,o),
(170.307,408,c),
(227.649,703,ls),
(227.844,704,o),
(226.844,704,o),
(225.844,704,cs),
(224.844,704,ls),
(222.844,704,o),
(220.649,703,o),
(216.872,699,cs),
(178.902,658,o),
(138.015,638,o),
(65.97,619.963,cs),
(58.127,618,o),
(51.933,617,o),
(50.572,610,cs),
(48.628,600,ls),
(47.462,594,o),
(48.49,589,o),
(57.323,588.383,cs),
(134.324,583,o),
(132.881,555,o),
(123.356,506,cs),
(57.85,169,ls),
(35.497,54,o),
(86.862,-11,o),
(190.862,-11,cs)
);
},
{
closed = 1;
nodes = (
(145.888,20,o),
(101.885,56,o),
(123.85,169,cs),
(166.031,386,l),
(194.724,405,o),
(214.473,414,o),
(243.473,414,cs),
(332.473,414,o),
(373.951,329,o),
(347.71,194,cs),
(330.604,106,o),
(279.888,20,o),
(196.888,20,cs)
);
}
);
width = 452.76;
},
{
anchors = (
{
name = bottom;
pos = (225,0);
},
{
name = center;
pos = (236,744);
},
{
name = top;
pos = (311,440);
}
);
hints = (
{
horizontal = 1;
place = (704,-20);
target = down;
type = TopGhost;
}
);
layerId = m004;
shapes = (
{
closed = 1;
nodes = (
(347.862,-11,o),
(454.328,84,o),
(480.569,219,cs),
(513.808,390,o),
(406.666,451,o),
(331.666,451,cs),
(281.666,451,o),
(246.972,432,o),
(226.307,408,c),
(283.455,702,ls),
(283.649,703,o),
(282.844,704,o),
(281.844,704,cs),
(280.844,704,ls),
(278.844,704,o),
(278.844,704,o),
(275.455,702,cs),
(217.68,662,o),
(174.015,638,o),
(67.783,620.554,cs),
(58.321,619,o),
(53.933,617,o),
(52.572,610,cs),
(46.741,580,ls),
(45.574,574,o),
(46.602,569,o),
(55.435,568.383,cs),
(132.436,563,o),
(127.3,516,o),
(117.776,467,cs),
(63.738,189,ls),
(35.553,44,o),
(117.862,-11,o),
(224.862,-11,cs)
);
},
{
closed = 1;
nodes = (
(205.136,47,o),
(163.328,84,o),
(180.239,171,cs),
(215.227,351,l),
(239.338,367,o),
(253.698,374,o),
(277.698,374,cs),
(347.698,374,o),
(383.092,304,o),
(361.127,191,cs),
(346.937,118,o),
(310.136,47,o),
(245.136,47,cs)
);
}
);
width = 506.76;
}
);
note = b;
unicode = 98;
},
{
glyphname = c;
kernLeft = a;
kernRight = c;
lastChange = "2026-05-05 10:55:35 +0000";
layers = (
{
anchors = (
{
name = bottom;
pos = (197,0);
},
{
name = top;
pos = (269.527,440);
}
);
background = {
shapes = (
{
closed = 1;
nodes = (
(382,135,ls),
(380,136,o),
(377,137,o),
(375,137,cs),
(371,137,o),
(367,136,o),
(364,131,cs),
(338,91,o),
(296,67,o),
(250,67,cs),
(161,67,o),
(130,149,o),
(130,236,cs),
(130,308,o),
(152,380,o),
(219,380,cs),
(271,380,o),
(294,341,o),
(291,301,cs),
(290,291,ls),
(290,288,o),
(291,285,o),
(296,285,cs),
(298,285,o),
(302,286,o),
(304,287,cs),
(405,313,ls),
(412,315,o),
(416,318,o),
(416,323,cs),
(416,325,o),
(416,326,o),
(415,329,cs),
(400,391,o),
(355,451,o),
(239,451,cs),
(140,451,o),
(30,387,o),
(17,241,cs),
(7,115,o),
(95,-8,o),
(227,-8,cs),
(305,-8,o),
(376,25,o),
(411,100,cs),
(412,103,o),
(412,106,o),
(412,107,cs),
(412,112,o),
(410,115,o),
(405,119,cs)
);
},
{
closed = 1;
nodes = (
(382,135,ls),
(380,136,o),
(377,137,o),
(375,137,cs),
(371,137,o),
(367,136,o),
(364,131,cs),
(338,91,o),
(296,67,o),
(250,67,cs),
(161,67,o),
(130,149,o),
(130,236,cs),
(130,308,o),
(152,380,o),
(219,380,cs),
(268,380,o),
(291,345,o),
(291,308,cs),
(291,300,o),
(290,296,o),
(290,291,cs),
(290,288,o),
(291,285,o),
(296,285,cs),
(298,285,o),
(302,286,o),
(304,287,cs),
(405,313,ls),
(412,315,o),
(416,318,o),
(416,323,cs),
(416,325,o),
(416,326,o),
(415,329,cs),
(400,391,o),
(355,451,o),
(239,451,cs),
(140,451,o),
(30,387,o),
(17,241,cs),
(7,115,o),
(95,-11,o),
(227,-11,cs),
(305,-11,o),
(376,25,o),
(411,100,cs),
(412,103,o),
(412,106,o),
(412,107,cs),
(412,112,o),
(410,115,o),
(405,119,cs)
);
}
);
};
layerId = m003;
shapes = (
{
closed = 1;
nodes = (
(261.862,-11,o),
(319.665,24,o),
(371.216,104,cs),
(375.158,110.117,o),
(375.771,112,o),
(372.159,114,cs),
(365.937,118,ls),
(363.155,119.789,o),
(361.22,118.949,o),
(358.354,115,cs),
(300.998,36,o),
(257.276,22,o),
(216.276,22,cs),
(115.276,22,o),
(86.853,133,o),
(107.263,238,cs),
(124.174,325,o),
(173,427,o),
(272,427,cs),
(326,427,o),
(338.309,372,o),
(327.813,318,cs),
(326.258,310,o),
(321.925,298,o),
(321.537,296,cs),
(321.148,294,o),
(322.953,293,o),
(326.148,294,cs),
(394.452,311,ls),
(408.035,314,o),
(414.785,323,o),
(413.923,334,cs),
(411.975,396,o),
(371.86,452,o),
(276.86,452,cs),
(196.86,452,o),
(75.42,388,o),
(34.489,241.099,cs),
(-0.646,115,o),
(63.862,-11,o),
(193.862,-11,cs)
);
}
);
width = 432;
},
{
anchors = (
{
name = bottom;
pos = (197,0);
},
{
name = top;
pos = (269.527,440);
}
);
background = {
shapes = (
{
closed = 1;
nodes = (
(382,135,ls),
(380,136,o),
(377,137,o),
(375,137,cs),
(371,137,o),
(367,136,o),
(364,131,cs),
(338,91,o),
(296,67,o),
(250,67,cs),
(161,67,o),
(130,149,o),
(130,236,cs),
(130,308,o),
(152,380,o),
(219,380,cs),
(271,380,o),
(294,341,o),
(291,301,cs),
(290,291,ls),
(290,288,o),
(291,285,o),
(296,285,cs),
(298,285,o),
(302,286,o),
(304,287,cs),
(405,313,ls),
(412,315,o),
(416,318,o),
(416,323,cs),
(416,325,o),
(416,326,o),
(415,329,cs),
(400,391,o),
(355,451,o),
(239,451,cs),
(140,451,o),
(30,387,o),
(17,241,cs),
(7,115,o),
(95,-8,o),
(227,-8,cs),
(305,-8,o),
(376,25,o),
(411,100,cs),
(412,103,o),
(412,106,o),
(412,107,cs),
(412,112,o),
(410,115,o),
(405,119,cs)
);
}
);
};
layerId = m004;
shapes = (
{
closed = 1;
nodes = (
(260.862,-11,o),
(329.665,24,o),
(378.438,100,cs),
(384.187,109,o),
(383.771,112,o),
(379.548,116,cs),
(356.241,135,ls),
(351.019,139,o),
(342.824,138,o),
(337.464,131,cs),
(303.689,91,o),
(267.023,67,o),
(231.023,67,cs),
(142.023,67,o),
(126.963,149,o),
(143.874,236,cs),
(157.869,308,o),
(193.865,380,o),
(250.865,380,cs),
(289.865,380,o),
(306.061,345,o),
(298.869,308,cs),
(297.314,300,o),
(295.537,296,o),
(294.565,291,cs),
(293.01,283,o),
(301.398,285,o),
(307.787,287,cs),
(413.841,313,ls),
(424.424,316,o),
(427.396,321,o),
(426.951,329,cs),
(424.003,391,o),
(390.666,451,o),
(284.666,451,cs),
(195.666,451,o),
(73.225,387,o),
(32.453,240.831,cs),
(-2.646,115,o),
(60.862,-11,o),
(192.862,-11,cs)
);
}
);
width = 432;
}
);
note = c;
unicode = 99;
},
{
glyphname = d;
kernLeft = a;
kernRight = a;
lastChange = "2025-02-27 13:08:36 +0000";
layers = (
{
anchors = (
{
name = bottom;
pos = (255,0);
}
);
background = {
shapes = (
{
closed = 1;
nodes = (
(469,702,ls),
(469,704,o),
(469,704,o),
(467,704,cs),
(466,704,ls),
(465,704,o),
(465,704,o),
(462,702,cs),
(438,685,o),
(389,651,o),
(297,620,cs),
(289,618,o),
(283,616,o),
(283,609,cs),
(283,579,ls),
(283,573,o),
(285,568,o),
(294,568,cs),
(342,562,o),
(346,514,o),
(346,466,cs),
(346,410,l),
(315,437,o),
(276,451,o),
(232,451,cs),
(126,451,o),
(26,384,o),
(26,221,cs),
(26,50,o),
(142,-11,o),
(222,-11,cs),
(312,-11,o),
(346,46,o),
(356,70,c),
(351,43,o),
(348,18,o),
(346,-9,cs),
(346,-11,o),
(347,-11,o),
(348,-11,cs),
(351,-11,ls),
(353,-11,o),
(355,-11,o),
(356,-10,cs),
(396,8,o),
(432,24,o),
(518,24,cs),
(527,24,o),
(532,28,o),
(532,36,cs),
(532,65,ls),
(532,71,o),
(530,76,o),
(521,77,cs),
(478,82,o),
(469,121,o),
(469,163,cs)
);
},
{
closed = 1;
nodes = (
(346,141,l),
(338,108,o),
(309,66,o),
(261,66,cs),
(189,66,o),
(140,136,o),
(140,249,cs),
(140,322,o),
(163,385,o),
(248,385,cs),
(306,385,o),
(346,340,o),
(346,285,cs)
);
}
);
};
hints = (
{
horizontal = 1;
place = (704,-20);
target = down;
type = TopGhost;
}
);
layerId = m003;
shapes = (
{
closed = 1;
nodes = (
(281.862,-11,o),
(337.829,66,o),
(348.494,90,c),
(343.494,90,l),
(328.719,50,o),
(314,0,o),
(312.445,-8,cs),
(311.862,-11,o),
(312.862,-11,o),
(313.862,-11,cs),
(315.862,-11,ls),
(318.862,-11,o),
(320.862,-11,o),
(322.056,-10,cs),
(365.555,8,o),
(415.665,24,o),
(441.665,24,cs),
(450.665,24,o),
(456.443,28,o),
(457.998,36,cs),
(459.747,45,ls),
(460.913,51,o),
(459.885,56,o),
(451.08,57,cs),
(409.052,62,o),
(403.745,81,o),
(411.909,123,cs),
(524.649,703,ls),
(524.844,704,o),
(523.844,704,o),
(522.844,704,cs),
(521.844,704,ls),
(519.844,704,o),
(517.649,703,o),
(513.872,699,cs),
(475.902,658,o),
(435.015,638,o),
(392.71,621,cs),
(385.127,618,o),
(378.933,617,o),
(377.572,610,cs),
(375.628,600,ls),
(374.462,594,o),
(375.49,589,o),
(384.296,588,cs),
(431.324,583,o),
(429.881,555,o),
(420.356,506,c),
(398.975,396,l),
(410.752,400,l),
(380.167,433,o),
(335.666,451,o),
(277.666,451,cs),
(171.666,451,o),
(58.642,384,o),
(26.958,221,cs),
(-6.281,50,o),
(97.862,-11,o),
(177.862,-11,cs)
);
},
{
closed = 1;
nodes = (
(124.192,37,o),
(83.326,120,o),
(109.178,253,cs),
(125.701,338,o),
(168.834,421,o),
(268.834,421,cs),
(359.834,421,o),
(390.879,353.975,o),
(375.844,276.745,c),
(342.41,105,l),
(339.438,100,o),
(293.192,37,o),
(209.192,37,cs)
);
}
);
width = 506;
},
{
anchors = (
{
name = bottom;
pos = (255,0);
}
);
background = {
shapes = (
{
closed = 1;
nodes = (
(346,124,l),
(344,119,o),
(324,66,o),
(261,66,cs),
(189,66,o),
(140,136,o),
(140,249,cs),
(140,322,o),
(163,392,o),
(248,392,cs),
(317,392,o),
(340,336,o),
(346,301,c)
);
},
{
closed = 1;
nodes = (
(469,449,ls),
(469,451,o),
(468,451,o),
(466,451,cs),
(458,451,o),
(430,421,o),
(375,400,c),
(338,433,o),
(290,451,o),
(232,451,cs),
(126,451,o),
(26,384,o),
(26,221,cs),
(26,50,o),
(142,-11,o),
(222,-11,cs),
(326,-11,o),
(357,66,o),
(363,90,c),
(358,90,l),
(351,50,o),
(346,0,o),
(346,-8,cs),
(346,-11,o),
(347,-11,o),
(348,-11,cs),
(350,-11,ls),
(353,-11,o),
(355,-11,o),
(356,-10,cs),
(396,8,o),
(432,24,o),
(518,24,cs),
(527,24,o),
(532,28,o),
(532,36,cs),
(532,65,ls),
(532,71,o),
(530,76,o),
(521,77,cs),
(478,82,o),
(469,121,o),
(469,163,cs)
);
}
);
};
hints = (
{
horizontal = 1;
place = (704,-20);
target = down;
type = TopGhost;
}
);
layerId = m004;
shapes = (
{
closed = 1;
nodes = (
(281.862,-11,o),
(327.829,66,o),
(338.494,90,c),
(342.889,110.241,l),
(328.114,70.241,o),
(312.054,26,o),
(302.251,-9,cs),
(301.862,-11,o),
(302.862,-11,o),
(303.862,-11,cs),
(306.862,-11,ls),
(308.862,-11,o),
(310.862,-11,o),
(312.056,-10,cs),
(355.555,8,o),
(394.665,24,o),
(480.665,24,cs),
(489.665,24,o),
(495.443,28,o),
(496.998,36,cs),
(502.635,65,ls),
(503.801,71,o),
(502.773,76,o),
(493.967,77,cs),
(451.939,82,o),
(450.52,121,o),
(458.684,163,cs),
(563.455,702,ls),
(563.649,703,o),
(562.844,704,o),
(561.844,704,cs),
(560.844,704,ls),
(558.844,704,o),
(558.844,704,o),
(555.455,702,cs),
(497.68,662,o),
(454.015,638,o),
(377.71,621,cs),
(368.321,619,o),
(363.933,617,o),
(362.572,610,cs),
(356.741,580,ls),
(355.574,574,o),
(356.602,569,o),
(365.408,568,cs),
(412.436,563,o),
(407.3,516,o),
(397.776,467,cs),
(384.363,398,l),
(399.724,405,l),
(392.64,420,o),
(355.666,451,o),
(277.666,451,cs),
(171.666,451,o),
(58.642,384,o),
(26.958,221,cs),
(-6.281,50,o),
(97.862,-11,o),
(177.862,-11,cs)
);
},
{
closed = 1;
nodes = (
(159.829,66,o),
(124.436,136,o),
(146.401,249,cs),
(160.59,322,o),
(197.197,392,o),
(282.197,392,cs),
(351.197,392,o),
(368.448,335.213,o),
(355.181,265.757,c),
(328.103,124,l),
(325.131,119,o),
(294.829,66,o),
(231.829,66,cs)
);
}
);
width = 545;
}
);
note = d;
unicode = 100;
},
{
glyphname = dcroat;
kernLeft = a;
kernRight = dcroat;
lastChange = "2026-05-05 10:45:18 +0000";
layers = (
{
hints = (
{
horizontal = 1;
place = (704,-20);
target = down;
type = TopGhost;
}
);
layerId = m003;
shapes = (
{
ref = d;
},
{
closed = 1;
nodes = (
(523.246,490,ls),
(531.246,490,o),
(537.218,495,o),
(538.773,503,cs),
(540.134,510,ls),
(541.883,519,o),
(537.855,524,o),
(529.855,524,cs),
(309.855,524,ls),
(300.855,524,o),
(294.883,519,o),
(293.134,510,cs),
(291.773,503,ls),
(290.218,495,o),
(294.246,490,o),
(303.246,490,cs)
);
}
);
width = 506;
},
{
hints = (
{
horizontal = 1;
place = (704,-20);
target = down;
type = TopGhost;
}
);
layerId = m004;
shapes = (
{
ref = d;
},
{
closed = 1;
nodes = (
(557.804,462,ls),
(565.804,462,o),
(571.776,467,o),
(573.331,475,cs),
(580.134,510,ls),
(581.883,519,o),
(577.855,524,o),
(569.855,524,cs),
(349.855,524,ls),
(340.855,524,o),
(334.883,519,o),
(333.134,510,cs),
(326.331,475,ls),
(324.776,467,o),
(328.804,462,o),
(337.804,462,cs)
);
}
);
width = 545;
}
);
note = dcroat;
unicode = 273;
},
{
glyphname = eth;
kernLeft = eth;
kernRight = eth;
lastChange = "2025-02-26 16:39:55 +0000";
layers = (
{
layerId = m003;
shapes = (
{
closed = 1;
nodes = (
(324.449,-10.943,o),
(415.758,91.645,o),
(439.854,215.608,cs),
(486.815,457.203,o),
(379.3,693.01,o),
(142.9,694,cs),
(134.9,694,o),
(129.928,689,o),
(128.373,681,cs),
(127.012,674,ls),
(125.457,666,o),
(128.485,661,o),
(137.291,660,cs),
(264.159,648.167,o),
(378.313,528.185,o),
(382.054,372.404,c),
(401.883,392.865,l),
(372.141,429.068,o),
(328.264,450.943,o),
(275.702,450.943,cs),
(141.946,450.943,o),
(51.684,348.226,o),
(27.613,224.39,cs),
(2.249,93.901,o),
(75.693,-10.943,o),
(190.765,-10.943,cs)
);
},
{
closed = 1;
nodes = (
(122.917,25.461,o),
(82.419,188.209,o),
(101.004,283.818,cs),
(116.324,362.632,o),
(175.127,414.539,o),
(236.141,414.539,cs),
(343.55,414.539,o),
(384.048,251.79,o),
(365.464,156.181,cs),
(350.144,77.367,o),
(291.339,25.461,o),
(230.326,25.461,cs)
);
},
{
closed = 1;
nodes = (
(220.483,520.076,o),
(223.503,521.239,o),
(227.454,525.076,cs),
(377.834,671.076,ls),
(381.188,674.332,o),
(383,677.076,o),
(383.583,680.076,cs),
(384.167,683.076,o),
(382.229,685.484,o),
(378.333,689.076,cs),
(374.764,692.368,ls),
(371.424,695.448,o),
(369.541,696.368,o),
(366.541,696.368,cs),
(362.541,696.368,o),
(359.327,694.204,o),
(355.375,690.368,cs),
(204.995,544.368,ls),
(202.146,541.601,o),
(199.829,538.368,o),
(199.44,536.368,cs),
(198.663,532.368,o),
(199.789,529.038,o),
(203.497,526.368,cs),
(208.066,523.076,ls),
(211.382,520.687,o),
(213.483,520.076,o),
(216.483,520.076,cs)
);
}
);
width = 504;
},
{
layerId = m004;
shapes = (
{
closed = 1;
nodes = (
(336.862,-11,o),
(453.855,97,o),
(479.319,228,cs),
(522.86,452,o),
(381.706,693,o),
(142.9,694,cs),
(134.9,694,o),
(129.928,689,o),
(128.373,681,cs),
(122.153,649,ls),
(120.598,641,o),
(123.626,636,o),
(132.431,635,cs),
(277.492,621.471,o),
(344.849,502.445,o),
(346.356,412.623,c),
(387.376,434.979,l),
(351.983,442.267,o),
(325.467,449,o),
(294.277,449,cs),
(172.277,449,o),
(56.726,369,o),
(27.764,220,cs),
(2.883,92,o),
(83.862,-11,o),
(210.862,-11,cs)
);
},
{
closed = 1;
nodes = (
(150.302,53,o),
(135.349,187,o),
(150.122,263,cs),
(162.562,327,o),
(202.253,382,o),
(266.253,382,cs),
(354.253,382,o),
(369.206,248,o),
(354.433,172,cs),
(341.021,103,o),
(299.302,53,o),
(238.302,53,cs)
);
},
{
closed = 1;
nodes = (
(213.94,509,o),
(216.96,510.163,o),
(220.911,514,cs),
(371.291,660,ls),
(374.644,663.256,o),
(376.457,666,o),
(377.04,669,cs),
(377.624,672,o),
(375.707,674.43,o),
(371.79,678,cs),
(345.455,702,ls),
(342.096,705.061,o),
(340.232,706,o),
(337.232,706,cs),
(333.232,706,o),
(330.018,703.837,o),
(326.066,700,cs),
(175.687,554,ls),
(172.837,551.233,o),
(170.52,548,o),
(170.132,546,cs),
(169.354,542,o),
(170.771,539,o),
(174.188,536,cs),
(201.523,512,ls),
(204.579,509.317,o),
(206.94,509,o),
(209.94,509,cs)
);
}
);
width = 504;
}
);
note = eth;
unicode = 240;
},
{
glyphname = e;
kernLeft = a;
kernRight = e;
lastChange = "2026-05-05 10:54:10 +0000";
layers = (
{
anchors = (
{
name = bottom;
pos = (188,0);
},
{
name = ogonek;
pos = (225.421,-5.924);
},
{
name = top;
pos = (238.527,440);
}
);
background = {
shapes = (
{
closed = 1;
nodes = (
(417.911,106.668,o),
(416.45,110.639,o),
(411,114,cs),
(383.27,131.098,ls),
(377.132,134.882,o),
(371.676,132.655,o),
(367.151,125.983,cs),
(338,83,o),
(294,62,o),
(256,62,cs),
(182.608,62,o),
(137.173,115.585,o),
(119.695,169.949,c),
(118.118,200.474,l),
(96.058,237.684,o),
(92.343,380,o),
(184,380,cs),
(236.59,380,o),
(273.623,310.858,o),
(245.101,224.843,c),
(311.349,311.174,l),
(62.852,186.926,l),
(71.55,135.169,l),
(379,269,ls),
(385.151,271.677,o),
(387,275,o),
(387,280,cs),
(387,347,o),
(322,451,o),
(197.584,451,cs),
(102,451,o),
(-4,387,o),
(-4,224,cs),
(-4,97,o),
(86,-11,o),
(232,-11,cs),
(323,-11,o),
(376,32,o),
(413.09,98.08,cs)
);
}
);
};
layerId = m003;
shapes = (
{
closed = 1;
nodes = (
(377.382,110,o),
(377.611,111.781,o),
(374.159,114,cs),
(367.937,118,ls),
(365.155,119.789,o),
(363.355,118.865,o),
(360.354,115,cs),
(310.14,50.351,o),
(257.066,22.906,o),
(210.918,22.906,cs),
(141.788,22.906,o),
(100.233,92.981,o),
(97.436,172.368,c),
(100.888,177.485,l),
(83.696,264.312,o),
(136.864,414.094,o),
(239.891,414.094,cs),
(324.945,414.094,o),
(329.711,326.468,o),
(304.368,263.08,c),
(337.891,301.174,l),
(46.822,167.006,l),
(52.976,143.668,l),
(264.631,229.803,ls),
(352,265.359,o),
(377.446,276.988,o),
(386.874,325.492,cs),
(396.868,376.9,o),
(367.873,451,o),
(256.599,451,cs),
(177.873,451,o),
(59.225,387,o),
(27.541,224,cs),
(2.855,97,o),
(71.862,-11,o),
(187.862,-11,cs),
(265.945,-11,o),
(327.95,38.811,o),
(373.216,104,cs)
);
}
);
width = 404.14;
},
{
anchors = (
{
name = bottom;
pos = (208,0);
},
{
name = ogonek;
pos = (246.855,-5.924);
},
{
name = top;
pos = (258.527,440);
}
);
background = {
shapes = (
{
closed = 1;
nodes = (
(91.55,135.169,l),
(399,269,ls),
(405.151,271.677,o),
(407,275,o),
(407,280,cs),
(407,347,o),
(342,451,o),
(217.584,451,cs),
(122,451,o),
(16,387,o),
(16,224,cs),
(16,97,o),
(106,-11,o),
(252,-11,cs),
(342,-11,o),
(396,32,o),
(429,92,cs),
(431.81,97.109,o),
(435.181,103,o),
(435.181,107,cs),
(435.181,110,o),
(433.703,112.359,o),
(431,114,cs),
(403,131,o),
(401,132,o),
(396,132,cs),
(393,132,o),
(390.703,130.472,o),
(389,128,cs),
(358,83,o),
(314,62,o),
(276,62,cs),
(202.608,62,o),
(157.173,115.585,o),
(139.695,169.949,c),
(138.118,200.474,l),
(116.058,237.684,o),
(112.343,380,o),
(204,380,cs),
(256.59,380,o),
(293.623,310.858,o),
(265.101,224.843,c),
(331.349,311.174,l),
(82.852,186.926,l)
);
}
);
};
layerId = m004;
shapes = (
{
closed = 1;
nodes = (
(406.645,106.668,o),
(405.956,110.639,o),
(401.159,114,cs),
(376.753,131.098,ls),
(371.35,134.882,o),
(365.462,132.655,o),
(359.64,125.983,cs),
(322.134,83,o),
(274.052,62,o),
(246.052,62,cs),
(182.66,62,o),
(147.64,115.585,o),
(140.73,169.949,c),
(145.086,200.474,l),
(130.259,237.684,o),
(154.208,380,o),
(235.865,380,cs),
(278.455,380,o),
(302.048,310.858,o),
(256.806,224.843,c),
(339.835,311.174,l),
(87.187,186.926,l),
(85.824,135.169,l),
(312.697,230.234,ls),
(367.106,253.033,o),
(392.769,268.964,o),
(402.726,320.19,cs),
(414.032,378.356,o),
(377.666,451,o),
(263.25,451,cs),
(177.666,451,o),
(59.225,387,o),
(27.541,224,cs),
(2.855,97,o),
(71.862,-11,o),
(207.862,-11,cs),
(288.862,-11,o),
(350.22,32,o),
(400.155,98.08,cs)
);
}
);
width = 433;
},
{
anchors = (
{
name = bottom;
pos = (260,0);
},
{
name = ogonek;
pos = (362,24);
},
{
name = top;
pos = (225,440);
}
);
associatedMasterId = m004;
layerId = "71FB114D-B393-4719-9C7C-BD5342579430";
name = "25 févr. 25 à 11:59";
shapes = (
{
closed = 1;
nodes = (
(101.55,135.169,l),
(409,269,ls),
(415.151,271.677,o),
(417,275,o),
(417,280,cs),
(417,347,o),
(352,451,o),
(227.584,451,cs),
(132,451,o),
(26,387,o),
(26,224,cs),
(26,97,o),
(116,-11,o),
(262,-11,cs),
(352,-11,o),
(406,32,o),
(439,92,cs),
(441.81,97.109,o),
(445.181,103,o),
(445.181,107,cs),
(445.181,110,o),
(443.703,112.359,o),
(441,114,cs),
(413,131,o),
(411,132,o),
(406,132,cs),
(403,132,o),
(400.703,130.472,o),
(399,128,cs),
(368,83,o),
(324,62,o),
(286,62,cs),
(212.608,62,o),
(167.173,115.585,o),
(149.695,169.949,c),
(148.118,200.474,l),
(126.058,237.684,o),
(122.343,380,o),
(214,380,cs),
(266.59,380,o),
(303.623,310.858,o),
(275.101,224.843,c),
(341.349,311.174,l),
(92.852,186.926,l)
);
}
);
width = 453;
}
);
note = e;
unicode = 101;
},
{
glyphname = f;
lastChange = "2025-02-26 16:27:39 +0000";
layers = (
{
background = {
shapes = (
{
closed = 1;
nodes = (
(43,440,l),
(-22,440,ls),
(-31,440,o),
(-35,436,o),
(-35,427,cs),
(-35,400,ls),
(-35,392,o),
(-31,387,o),
(-22,387,cs),
(41,387,o),
(42,334,o),
(42,287,cs),
(42,136,ls),
(42,89,o),
(21,53,o),
(-22,53,cs),
(-31,53,o),
(-35,48,o),
(-35,40,cs),
(-35,13,ls),
(-35,4,o),
(-31,0,o),
(-22,0,cs),
(226,0,ls),
(234,0,o),
(239,4,o),
(239,13,cs),
(239,40,ls),
(239,48,o),
(234,53,o),
(226,53,cs),
(183,53,o),
(161,89,o),
(161,136,cs),
(161,376,l),
(279,376,ls),
(287,376,o),
(292,380,o),
(292,389,cs),
(292,427,ls),
(292,436,o),
(287,440,o),
(279,440,cs),
(161,440,l),
(161,498,ls),
(161,565,o),
(167,610,o),
(189,636,cs),
(200,649,o),
(213,656,o),
(226,656,cs),
(247,656,o),
(267,638,o),
(267,605,cs),
(267,589,o),
(262,570,o),
(251,547,cs),
(249,544,o),
(248,540,o),
(248,538,cs),
(248,533,o),
(250,530,o),
(253,530,cs),
(258,530,o),
(317,543,o),
(349,550,cs),
(362,553,o),
(368,558,o),
(371,567,cs),
(377,582,o),
(380,597,o),
(380,611,cs),
(380,664,o),
(335,704,o),
(242,704,cs),
(88,704,o),
(43,552,o),
(43,447,cs)
);
}
);
};
layerId = m003;
shapes = (
{
closed = 1;
nodes = (
(139.527,440,l),
(74.527,440,ls),
(65.527,440,o),
(60.75,436,o),
(59,427,cs),
(57.64,420,ls),
(56.085,412,o),
(59.113,407,o),
(68.113,407,cs),
(131.113,407,o),
(121.811,354,o),
(112.675,307,cs),
(71.661,96,ls),
(62.525,49,o),
(38.415,33,o),
(-4.585,33,cs),
(-13.585,33,o),
(-18.557,28,o),
(-20.112,20,cs),
(-21.473,13,ls),
(-23.222,4,o),
(-20,0,o),
(-11,0,cs),
(184,0,ls),
(192,0,o),
(197.778,4,o),
(199.527,13,cs),
(200.888,20,ls),
(202.443,28,o),
(198.415,33,o),
(190.415,33,cs),
(147.415,33,o),
(128.525,49,o),
(137.661,96,cs),
(195.975,396,l),
(313.975,396,ls),
(321.975,396,o),
(327.752,400,o),
(329.502,409,cs),
(333,427,ls),
(334.75,436,o),
(330.527,440,o),
(322.527,440,cs),
(204.527,440,l),
(219.689,518,ls),
(232.518,584,o),
(260.001,676,o),
(315.401,676,cs),
(388.498,676,o),
(347.109,579.384,o),
(325.326,547,cs),
(320.979,540.538,o),
(316.204,530,o),
(326.568,530,cs),
(331.568,530,o),
(335.216,531,o),
(368.771,539,cs),
(382.343,542.236,o),
(389.326,547,o),
(394.075,556,cs),
(425.473,608.824,o),
(436.537,704,o),
(326.844,704,cs),
(215.844,704,o),
(165.38,573,o),
(144.97,468,cs)
);
}
);
width = 301;
},
{
layerId = m004;
shapes = (
{
closed = 1;
nodes = (
(139.527,440,l),
(74.527,440,ls),
(65.527,440,o),
(60.75,436,o),
(59,427,cs),
(53.752,400,ls),
(52.197,392,o),
(55.225,387,o),
(64.225,387,cs),
(127.225,387,o),
(117.923,334,o),
(108.787,287,cs),
(79.436,136,ls),
(70.3,89,o),
(42.302,53,o),
(-0.698,53,cs),
(-9.698,53,o),
(-14.67,48,o),
(-16.225,40,cs),
(-21.473,13,ls),
(-23.222,4,o),
(-20,0,o),
(-11,0,cs),
(237,0,ls),
(245,0,o),
(250.778,4,o),
(252.527,13,cs),
(257.775,40,ls),
(259.33,48,o),
(255.302,53,o),
(247.302,53,cs),
(204.302,53,o),
(189.3,89,o),
(198.436,136,cs),
(245.087,376,l),
(363.087,376,ls),
(371.087,376,o),
(376.865,380,o),
(378.614,389,cs),
(386,427,ls),
(387.75,436,o),
(383.527,440,o),
(375.527,440,cs),
(257.527,440,l),
(268.801,498,ls),
(281.63,564,o),
(309.113,656,o),
(364.513,656,cs),
(414.41,656,o),
(398.604,592.014,o),
(368.326,547,cs),
(361.361,536.646,o),
(361.06,530,o),
(371.56,530,cs),
(376.56,530,o),
(433.354,542,o),
(466.909,550,cs),
(480.481,553.236,o),
(487.464,558,o),
(492.214,567,cs),
(536.305,641.179,o),
(505.337,704,o),
(389.844,704,cs),
(235.844,704,o),
(161.298,552,o),
(140.888,447,cs)
);
}
);
width = 354;
}
);
note = f;
unicode = 102;
},
{
glyphname = g;
kernLeft = g;
kernRight = g;
lastChange = "2026-05-05 11:01:55 +0000";
layers = (
{
anchors = (
{
name = top;
pos = (272.527,440);
}
);
background = {
shapes = (
{
closed = 1;
nodes = (
(304.301,420.965,o),
(322,343.71,o),
(322,281.906,cs),
(322,221.29,o),
(304.301,144.035,o),
(223.084,144.035,cs),
(141.867,144.035,o),
(116,221.29,o),
(116,281.906,cs),
(116,343.71,o),
(141.867,420.965,o),
(223.084,420.965,cs)
);
},
{
closed = 1;
nodes = (
(90.043,166.459,l),
(52.694,155.775,o),
(26,125.061,o),
(26,81,cs),
(26,48,o),
(40,20,o),
(70,1,c),
(40,-16,o),
(18,-43,o),
(18,-82,cs),
(18,-156,o),
(110,-189,o),
(217,-189,cs),
(323,-189,o),
(436,-155,o),
(436,-59,cs),
(436,47,o),
(335,66,o),
(232,71,cs),
(124,77,o),
(104,90,o),
(104,117,cs),
(104,129.736,o),
(112.01,140.469,o),
(125.197,143.533,c)
);
},
{
closed = 1;
nodes = (
(130,-128,o),
(106,-97,o),
(106,-70,cs),
(106,-50,o),
(114,-34,o),
(130,-23,c),
(153,-28,o),
(180,-32,o),
(212,-33,cs),
(301,-38,o),
(353,-46,o),
(353,-84,cs),
(353,-111,o),
(305,-128,o),
(218,-128,cs)
);
},
{
closed = 1;
nodes = (
(122.849,114,o),
(222.399,114,cs),
(330.065,114,o),
(401.645,189,o),
(401.645,282,cs),
(401.645,312,o),
(394.781,340,o),
(381.054,363,c),
(420.276,363,o),
(442.828,397,o),
(442.828,454,cs),
(442.828,462,o),
(442.828,467,o),
(437.925,467,cs),
(436.945,467,o),
(434.984,467,o),
(431.036,466.112,cs),
(368.167,452.65,ls),
(360.462,451,o),
(358.501,446,o),
(358.501,439,cs),
(358.501,436,ls),
(358.501,419,o),
(351.637,414,o),
(343.793,414,cs),
(340.851,414,o),
(335.948,414,o),
(331.2,417.228,cs),
(300.648,438,o),
(260.446,451,o),
(222.399,451,cs),
(113.752,451,o),
(42.172,375,o),
(42.172,282,cs),
(42.172,181.705,o)
);
}
);
};
layerId = m003;
shapes = (
{
closed = 1;
nodes = (
(300.224,114,o),
(386.383,189,o),
(404.46,282,cs),
(410.292,312,o),
(410.896,338.057,o),
(395.233,372.556,c),
(438.487,361.203,o),
(467.997,397,o),
(479.077,454,cs),
(480.632,462,o),
(481.604,467,o),
(476.701,467,cs),
(475.721,467,o),
(473.76,466.92,o),
(469.639,466.112,cs),
(445.904,461.457,ls),
(434.371,459.195,o),
(430.159,451.903,o),
(428.204,441.846,cs),
(423.744,418.901,ls),
(419.861,398.923,o),
(412.078,389.426,o),
(398.512,389.426,cs),
(385.709,389.426,o),
(378.85,396.687,o),
(370.035,406.372,cs),
(345.179,433.681,o),
(303.752,451,o),
(268.065,451,cs),
(169.418,451,o),
(83.065,375,o),
(64.987,282,cs),
(45.492,181.705,o),
(113.008,114,o),
(202.558,114,cs)
);
},
{
closed = 1;
nodes = (
(258.468,-189,o),
(381.691,-142.913,o),
(381.691,-77.744,cs),
(381.691,-41.757,o),
(351.588,-17.487,o),
(267.522,14.799,cs),
(151.699,59.282,ls),
(112.873,74.194,o),
(81.113,88.523,o),
(81.113,106.47,cs),
(81.113,118.456,o),
(90.547,128.359,o),
(111.097,143.533,c),
(106.892,164.063,l),
(73.867,149.109,o),
(38.035,122.995,o),
(37.8,88.543,cs),
(37.596,58.592,o),
(67.175,31.442,o),
(139.023,3.456,cs),
(263.683,-45.101,ls),
(299.621,-59.1,o),
(311.554,-75.183,o),
(311.554,-93.383,cs),
(311.554,-136.899,o),
(218.508,-151.991,o),
(163.754,-151.991,cs),
(78.411,-151.991,o),
(10.434,-134.038,o),
(10.434,-90.326,cs),
(10.434,-42.294,o),
(76.04,-3.142,o),
(121.599,13.291,c),
(93.668,26.409,l),
(21.28,-2.544,o),
(-46.623,-38.667,o),
(-46.623,-96.231,cs),
(-46.623,-149.063,o),
(25.798,-189,o),
(139.394,-189,cs)
);
},
{
closed = 1;
nodes = (
(137.865,144.035,o),
(127.014,221.29,o),
(138.797,281.906,cs),
(150.81,343.71,o),
(191.694,420.965,o),
(262.911,420.965,cs),
(334.128,420.965,o),
(336.81,343.71,o),
(324.797,281.906,cs),
(313.014,221.29,o),
(280.299,144.035,o),
(209.082,144.035,cs)
);
}
);
width = 456;
},
{
anchors = (
{
name = top;
pos = (272.527,440);
}
);
background = {
shapes = (
{
closed = 0;
nodes = (
(94.51,1.04,ls),
(142.758,-17.742,o),
(185.193,-34.06,o),
(252.417,-60.467,cs)
);
},
{
closed = 0;
nodes = (
(147.018,89.771,ls),
(195.266,70.989,o),
(237.701,54.671,o),
(304.925,28.264,cs)
);
}
);
};
layerId = m004;
shapes = (
{
closed = 1;
nodes = (
(312.159,114,o),
(399.738,189,o),
(417.815,282,cs),
(423.647,312,o),
(422.089,340,o),
(412.56,363,c),
(452.56,363,o),
(482.169,397,o),
(493.249,454,cs),
(494.804,462,o),
(495.776,467,o),
(490.776,467,cs),
(489.776,467,o),
(487.776,467,o),
(483.581,466,cs),
(416.86,452,ls),
(408.666,451,o),
(405.694,446,o),
(404.333,439,cs),
(403.75,436,ls),
(400.445,419,o),
(392.473,413.294,o),
(384.473,413.294,cs),
(379.25,413.294,o),
(374.958,415.16,o),
(370.904,418.266,cs),
(345.139,438,o),
(306.666,451,o),
(267.666,451,cs),
(156.666,451,o),
(68.893,375,o),
(50.815,282,cs),
(31.32,181.705,o),
(100.436,114,o),
(202.159,114,cs)
);
},
{
closed = 1;
nodes = (
(286.516,-189,o),
(402.439,-147.054,o),
(402.439,-69.442,cs),
(402.439,-20.959,o),
(372.547,-1.648,o),
(264.014,40.624,cs),
(156.9,82.343,ls),
(100.806,104.191,o),
(92.6,110.78,o),
(92.6,123.05,cs),
(92.6,135.982,o),
(108.089,144.577,o),
(125.563,151.055,c),
(103.462,173.976,l),
(55.441,157.955,o),
(12.304,129.833,o),
(12.304,80.343,cs),
(12.304,36.525,o),
(48.15,13.668,o),
(117.235,-13.741,cs),
(206.523,-49.165,ls),
(269.596,-74.189,o),
(283.534,-82.353,o),
(283.534,-95.89,cs),
(283.534,-122.438,o),
(204.955,-137.095,o),
(140.938,-137.095,cs),
(73.709,-137.095,o),
(35.216,-112.078,o),
(35.216,-82.877,cs),
(35.216,-48.184,o),
(87.98,-14.99,o),
(120.615,-3.219,c),
(80.399,17.008,l),
(15.161,-9.085,o),
(-47.188,-40.144,o),
(-47.188,-98.007,cs),
(-47.188,-149.955,o),
(18.99,-189,o),
(109.949,-189,cs)
);
},
{
closed = 1;
nodes = (
(155.267,166,o),
(148.902,231,o),
(158.815,282,cs),
(168.923,334,o),
(200.558,399,o),
(257.558,399,cs),
(314.558,399,o),
(314.923,334,o),
(304.815,282,cs),
(294.902,231,o),
(269.267,166,o),
(212.267,166,cs)
);
}
);
width = 476;
},
{
anchors = (
{
name = top;
pos = (272.527,440);
}
);
associatedMasterId = m003;
background = {
shapes = (
{
closed = 1;
nodes = (
(304.301,420.965,o),
(322,343.71,o),
(322,281.906,cs),
(322,221.29,o),
(304.301,144.035,o),
(223.084,144.035,cs),
(141.867,144.035,o),
(116,221.29,o),
(116,281.906,cs),
(116,343.71,o),
(141.867,420.965,o),
(223.084,420.965,cs)
);
},
{
closed = 1;
nodes = (
(90.043,166.459,l),
(52.694,155.775,o),
(26,125.061,o),
(26,81,cs),
(26,48,o),
(40,20,o),
(70,1,c),
(40,-16,o),
(18,-43,o),
(18,-82,cs),
(18,-156,o),
(110,-189,o),
(217,-189,cs),
(323,-189,o),
(436,-155,o),
(436,-59,cs),
(436,47,o),
(335,66,o),
(232,71,cs),
(124,77,o),
(104,90,o),
(104,117,cs),
(104,129.736,o),
(112.01,140.469,o),
(125.197,143.533,c)
);
},
{
closed = 1;
nodes = (
(130,-128,o),
(106,-97,o),
(106,-70,cs),
(106,-50,o),
(114,-34,o),
(130,-23,c),
(153,-28,o),
(180,-32,o),
(212,-33,cs),
(301,-38,o),
(353,-46,o),
(353,-84,cs),
(353,-111,o),
(305,-128,o),
(218,-128,cs)
);
},
{
closed = 1;
nodes = (
(122.849,114,o),
(222.399,114,cs),
(330.065,114,o),
(401.645,189,o),
(401.645,282,cs),
(401.645,312,o),
(394.781,340,o),
(381.054,363,c),
(420.276,363,o),
(442.828,397,o),
(442.828,454,cs),
(442.828,462,o),
(442.828,467,o),
(437.925,467,cs),
(436.945,467,o),
(434.984,467,o),
(431.036,466.112,cs),
(368.167,452.65,ls),
(360.462,451,o),
(358.501,446,o),
(358.501,439,cs),
(358.501,436,ls),
(358.501,419,o),
(351.637,414,o),
(343.793,414,cs),
(340.851,414,o),
(335.948,414,o),
(331.2,417.228,cs),
(300.648,438,o),
(260.446,451,o),
(222.399,451,cs),
(113.752,451,o),
(42.172,375,o),
(42.172,282,cs),
(42.172,181.705,o)
);
}
);
};
layerId = "A4BAE126-9CAD-4CBF-8489-608591CAF325";
name = "4 mai 26 à 19:57";
shapes = (
{
closed = 1;
nodes = (
(344.128,420.965,o),
(346.81,343.71,o),
(334.797,281.906,cs),
(323.014,221.29,o),
(290.299,144.035,o),
(209.082,144.035,cs),
(127.865,144.035,o),
(117.014,221.29,o),
(128.797,281.906,cs),
(140.81,343.71,o),
(181.694,420.965,o),
(262.911,420.965,cs)
);
},
{
closed = 1;
nodes = (
(66.69,17.988,l),
(16.799,-3.231,o),
(-22.458,-33.223,o),
(-31.216,-78.281,cs),
(-45.6,-152.281,o),
(31.262,-189,o),
(138.262,-189,cs),
(234.262,-189,o),
(341.619,-155,o),
(357.736,-72.086,cs),
(376.553,24.719,o),
(286.462,38.637,o),
(184.66,44.552,cs),
(87.735,50.183,o),
(53.529,61.867,o),
(60.761,99.072,cs),
(65.93,125.666,o),
(118.793,148.078,o),
(131.097,143.533,c),
(115.461,161.854,l),
(76.035,151.17,o),
(28.309,125.061,o),
(19.745,81,cs),
(5.695,8.719,o),
(90.514,-7.942,o),
(167.697,-11.849,cs),
(245.978,-15.812,o),
(301.321,-23.973,o),
(290.765,-78.281,cs),
(281.629,-125.281,o),
(222.677,-156,o),
(145.677,-156,cs),
(35.66,-156,o),
(17.699,-116.686,o),
(28.082,-63.267,cs),
(34.292,-31.318,o),
(55.158,-3.789,o),
(97.179,9.006,c)
);
},
{
closed = 1;
nodes = (
(103.008,114,o),
(202.558,114,cs),
(310.224,114,o),
(396.383,189,o),
(414.46,282,cs),
(420.292,312,o),
(420.896,338.057,o),
(405.233,372.556,c),
(448.487,361.203,o),
(477.997,397,o),
(489.077,454,cs),
(490.632,462,o),
(491.604,467,o),
(486.701,467,cs),
(485.721,467,o),
(483.76,466.92,o),
(479.639,466.112,cs),
(455.904,461.457,ls),
(444.371,459.195,o),
(440.159,451.903,o),
(438.204,441.846,cs),
(433.744,418.901,ls),
(429.861,398.923,o),
(422.078,389.426,o),
(408.512,389.426,cs),
(395.709,389.426,o),
(388.85,396.687,o),
(380.035,406.372,cs),
(355.179,433.681,o),
(313.752,451,o),
(268.065,451,cs),
(159.418,451,o),
(73.065,375,o),
(54.987,282,cs),
(35.492,181.705,o)
);
}
);
width = 459;
},
{
anchors = (
{
name = top;
pos = (272.527,440);
}
);
associatedMasterId = m004;
background = {
shapes = (
{
closed = 1;
nodes = (
(381,452,ls),
(373,451,o),
(371,446,o),
(371,439,cs),
(371,436,ls),
(371,419,o),
(364,414,o),
(356,414,cs),
(353,414,o),
(348,414,o),
(343,417,cs),
(312,438,o),
(271,451,o),
(222,451,cs),
(101,451,o),
(28,375,o),
(28,282,cs),
(28,235,o),
(47,194,o),
(80,163,c),
(48,150,o),
(26,121,o),
(26,81,cs),
(26,48,o),
(40,20,o),
(70,1,c),
(40,-16,o),
(18,-43,o),
(18,-82,cs),
(18,-156,o),
(110,-189,o),
(217,-189,cs),
(323,-189,o),
(436,-155,o),
(436,-59,cs),
(436,47,o),
(335,66,o),
(232,71,cs),
(124,77,o),
(104,90,o),
(104,117,cs),
(104,126,o),
(108,134,o),
(115,139,c),
(144,123,o),
(180,114,o),
(222,114,cs),
(342,114,o),
(415,189,o),
(415,282,cs),
(415,312,o),
(408,340,o),
(394,363,c),
(434,363,o),
(457,397,o),
(457,454,cs),
(457,462,o),
(457,467,o),
(452,467,cs),
(451,467,o),
(449,467,o),
(445,466,cs)
);
},
{
closed = 1;
nodes = (
(289,399,o),
(302,334,o),
(302,282,cs),
(302,231,o),
(289,166,o),
(222,166,cs),
(155,166,o),
(136,231,o),
(136,282,cs),
(136,334,o),
(155,399,o),
(222,399,cs)
);
},
{
closed = 1;
nodes = (
(130,-128,o),
(106,-97,o),
(106,-70,cs),
(106,-50,o),
(114,-34,o),
(130,-23,c),
(153,-28,o),
(180,-32,o),
(212,-33,cs),
(301,-38,o),
(353,-46,o),
(353,-84,cs),
(353,-111,o),
(305,-128,o),
(218,-128,cs)
);
}
);
};
layerId = "735DF8E0-4A38-4BB0-80C8-FD67664DE6AA";
name = "4 mai 26 à 19:57";
shapes = (
{
closed = 1;
nodes = (
(324.558,399,o),
(324.923,334,o),
(314.815,282,cs),
(304.902,231,o),
(279.267,166,o),
(212.267,166,cs),
(145.267,166,o),
(138.902,231,o),
(148.815,282,cs),
(158.923,334,o),
(190.558,399,o),
(257.558,399,cs)
);
},
{
closed = 1;
nodes = (
(44.1,8.205,l),
(3.829,-7.902,o),
(-31.181,-36.942,o),
(-39.939,-82,cs),
(-54.323,-156,o),
(31.262,-189,o),
(138.262,-189,cs),
(244.262,-189,o),
(363.871,-155,o),
(382.532,-59,cs),
(403.136,47,o),
(305.829,66,o),
(203.801,71,cs),
(96.967,77,o),
(79.494,90,o),
(84.742,117,cs),
(87.218,129.736,o),
(97.314,140.469,o),
(111.097,143.533,c),
(80.399,166.459,l),
(40.974,155.775,o),
(8.309,125.061,o),
(-0.255,81,cs),
(-17.475,-7.589,o),
(73.392,-30.164,o),
(163.585,-33,cs),
(251.614,-38,o),
(302.059,-46,o),
(295.848,-77.951,cs),
(289.424,-111,o),
(238.119,-128,o),
(151.119,-128,cs),
(63.119,-128,o),
(45.145,-97,o),
(50.393,-70,cs),
(55.411,-44.188,o),
(72.458,-25.039,o),
(101.117,-14.702,c)
);
},
{
closed = 1;
nodes = (
(90.436,114,o),
(202.159,114,cs),
(322.159,114,o),
(409.738,189,o),
(427.815,282,cs),
(433.647,312,o),
(432.089,340,o),
(422.56,363,c),
(462.56,363,o),
(492.169,397,o),
(503.249,454,cs),
(504.804,462,o),
(505.776,467,o),
(500.776,467,cs),
(499.776,467,o),
(497.776,467,o),
(493.581,466,cs),
(426.86,452,ls),
(418.666,451,o),
(415.694,446,o),
(414.333,439,cs),
(413.75,436,ls),
(410.445,419,o),
(402.473,414,o),
(394.473,414,cs),
(391.473,414,o),
(386.473,414,o),
(382.057,417,cs),
(355.139,438,o),
(316.666,451,o),
(267.666,451,cs),
(146.666,451,o),
(58.893,375,o),
(40.815,282,cs),
(21.32,181.705,o)
);
}
);
width = 459;
}
);
note = g;
unicode = 103;
},
{
glyphname = h;
kernLeft = h;
kernRight = h;
lastChange = "2026-05-04 13:51:36 +0000";
layers = (
{
anchors = (
{
name = bottom;
pos = (209,0);
}
);
layerId = m003;
shapes = (
{
closed = 1;
nodes = (
(186.415,33,ls),
(143.415,33,o),
(125.719,50,o),
(134.855,97,cs),
(164.765,250.873,l),
(189.485,378.046,o),
(256.794,411.488,o),
(316.347,411.488,cs),
(380.037,411.488,o),
(395.688,368.803,o),
(385.957,318.741,cs),
(342.661,96,ls),
(333.525,49,o),
(307.415,33,o),
(275.415,33,cs),
(272.415,33,ls),
(264.415,33,o),
(258.443,28,o),
(256.888,20,cs),
(255.527,13,ls),
(253.778,4,o),
(258,0,o),
(266,0,cs),
(457,0,ls),
(465,0,o),
(470.778,4,o),
(472.527,13,cs),
(473.888,20,ls),
(475.443,28,o),
(471.415,33,o),
(463.415,33,cs),
(461.415,33,ls),
(418.415,33,o),
(399.525,49,o),
(408.661,96,cs),
(452.007,319,ls),
(469.572,409.364,o),
(410.666,451,o),
(345.666,451,cs),
(269.013,451,o),
(210.166,410.188,o),
(186.013,360.184,c),
(252.649,703,ls),
(252.844,704,o),
(251.844,704,o),
(250.844,704,cs),
(249.844,704,ls),
(247.844,704,o),
(245.649,703,o),
(241.872,699,cs),
(203.902,658,o),
(163.015,638,o),
(120.71,621,cs),
(113.127,618,o),
(106.933,617,o),
(105.572,610,cs),
(103.628,600,ls),
(102.462,594,o),
(103.49,589,o),
(112.296,588,cs),
(159.324,583,o),
(157.881,555,o),
(148.356,506,cs),
(68.661,96,ls),
(59.525,49,o),
(35.415,33,o),
(-7.585,33,cs),
(-9.585,33,ls),
(-17.585,33,o),
(-23.557,28,o),
(-25.112,20,cs),
(-26.473,13,ls),
(-28.222,4,o),
(-23,0,o),
(-14,0,cs),
(181,0,ls),
(190,0,o),
(196.778,4,o),
(198.527,13,cs),
(199.888,20,ls),
(201.443,28,o),
(198.415,33,o),
(189.415,33,cs)
);
}
);
width = 531;
},
{
anchors = (
{
name = bottom;
pos = (267,0);
}
);
layerId = m004;
shapes = (
{
closed = 1;
nodes = (
(244.302,53,ls),
(201.302,53,o),
(187.494,90,o),
(196.63,137,cs),
(220.061,257.543,l),
(238.507,352.437,o),
(312.837,374,o),
(353.698,374,cs),
(407.698,374,o),
(413.383,336.364,o),
(401.914,277.364,cs),
(374.436,136,ls),
(365.3,89,o),
(346.302,53,o),
(314.302,53,cs),
(306.302,53,ls),
(298.302,53,o),
(292.33,48,o),
(290.775,40,cs),
(285.527,13,ls),
(283.778,4,o),
(288,0,o),
(296,0,cs),
(535,0,ls),
(543,0,o),
(548.778,4,o),
(550.527,13,cs),
(555.775,40,ls),
(557.33,48,o),
(553.302,53,o),
(545.302,53,cs),
(543.302,53,ls),
(500.302,53,o),
(485.3,89,o),
(494.436,136,cs),
(524.247,289.364,ls),
(547.572,409.364,o),
(488.666,451,o),
(406.666,451,cs),
(331.033,451,o),
(262.189,412.076,o),
(239.751,358.84,c),
(306.455,702,ls),
(306.649,703,o),
(305.844,704,o),
(304.844,704,cs),
(303.844,704,ls),
(301.844,704,o),
(301.844,704,o),
(298.455,702,cs),
(240.68,662,o),
(197.015,638,o),
(120.71,621,cs),
(111.321,619,o),
(106.933,617,o),
(105.572,610,cs),
(99.741,580,ls),
(98.574,574,o),
(99.602,569,o),
(108.408,568,cs),
(155.436,563,o),
(150.106,515,o),
(140.581,466,cs),
(76.436,136,ls),
(67.3,89,o),
(39.302,53,o),
(-3.698,53,cs),
(-5.698,53,ls),
(-13.698,53,o),
(-19.67,48,o),
(-21.225,40,cs),
(-26.473,13,ls),
(-28.222,4,o),
(-23,0,o),
(-14,0,cs),
(235,0,ls),
(244,0,o),
(250.778,4,o),
(252.527,13,cs),
(257.775,40,ls),
(259.33,48,o),
(256.302,53,o),
(247.302,53,cs)
);
}
);
width = 599;
},
{
anchors = (
{
name = bottom;
pos = (209,0);
}
);
associatedMasterId = m003;
layerId = "62147E10-6C5A-4B87-B02D-FC926F6B9B81";
name = "27 févr. 25 à 16:15";
shapes = (
{
closed = 1;
nodes = (
(169.839,298.609,l),
(202.766,366.734,o),
(252.559,411.488,o),
(316.347,411.488,cs),
(380.037,411.488,o),
(397.561,378.439,o),
(385.957,318.741,cs),
(342.661,96,ls),
(333.525,49,o),
(307.415,33,o),
(275.415,33,cs),
(272.415,33,ls),
(264.415,33,o),
(258.443,28,o),
(256.888,20,cs),
(255.527,13,ls),
(253.778,4,o),
(258,0,o),
(266,0,cs),
(457,0,ls),
(465,0,o),
(470.778,4,o),
(472.527,13,cs),
(473.888,20,ls),
(475.443,28,o),
(471.415,33,o),
(463.415,33,cs),
(461.415,33,ls),
(418.415,33,o),
(399.525,49,o),
(408.661,96,cs),
(452.007,319,ls),
(471.445,419,o),
(410.666,451,o),
(345.666,451,cs),
(261.189,451,o),
(198.339,385.687,o),
(179.719,349.44,c)
);
},
{
closed = 1;
nodes = (
(186.415,33,ls),
(143.415,33,o),
(125.719,50,o),
(134.855,97,cs),
(252.649,703,ls),
(252.844,704,o),
(251.844,704,o),
(250.844,704,cs),
(249.844,704,ls),
(247.844,704,o),
(245.649,703,o),
(241.872,699,cs),
(203.902,658,o),
(163.015,638,o),
(120.71,621,cs),
(113.127,618,o),
(106.933,617,o),
(105.572,610,cs),
(103.628,600,ls),
(102.462,594,o),
(103.49,589,o),
(112.296,588,cs),
(159.324,583,o),
(157.881,555,o),
(148.356,506,cs),
(68.661,96,ls),
(59.525,49,o),
(35.415,33,o),
(-7.585,33,cs),
(-9.585,33,ls),
(-17.585,33,o),
(-23.557,28,o),
(-25.112,20,cs),
(-26.473,13,ls),
(-28.222,4,o),
(-23,0,o),
(-14,0,cs),
(181,0,ls),
(190,0,o),
(196.778,4,o),
(198.527,13,cs),
(199.888,20,ls),
(201.443,28,o),
(198.415,33,o),
(189.415,33,cs)
);
}
);
width = 531;
},
{
anchors = (
{
name = bottom;
pos = (267,0);
}
);
associatedMasterId = m004;
layerId = "DCFAD895-2A1B-4064-B791-BD28459B12B1";
name = "27 févr. 25 à 16:15";
shapes = (
{
closed = 1;
nodes = (
(214.642,278.017,l),
(242.645,335.216,o),
(306.087,374,o),
(353.698,374,cs),
(407.698,374,o),
(415.256,346,o),
(403.787,287,cs),
(374.436,136,ls),
(365.3,89,o),
(346.302,53,o),
(314.302,53,cs),
(306.302,53,ls),
(298.302,53,o),
(292.33,48,o),
(290.775,40,cs),
(285.527,13,ls),
(283.778,4,o),
(288,0,o),
(296,0,cs),
(535,0,ls),
(543,0,o),
(548.778,4,o),
(550.527,13,cs),
(555.775,40,ls),
(557.33,48,o),
(553.302,53,o),
(545.302,53,cs),
(543.302,53,ls),
(500.302,53,o),
(485.3,89,o),
(494.436,136,cs),
(526.12,299,ls),
(549.445,419,o),
(488.666,451,o),
(406.666,451,cs),
(319.189,451,o),
(254.774,382.455,o),
(226.208,340.611,c)
);
},
{
closed = 1;
nodes = (
(244.302,53,ls),
(201.302,53,o),
(187.494,90,o),
(196.63,137,cs),
(306.455,702,ls),
(306.649,703,o),
(305.844,704,o),
(304.844,704,cs),
(303.844,704,ls),
(301.844,704,o),
(301.844,704,o),
(298.455,702,cs),
(240.68,662,o),
(197.015,638,o),
(120.71,621,cs),
(111.321,619,o),
(106.933,617,o),
(105.572,610,cs),
(99.741,580,ls),
(98.574,574,o),
(99.602,569,o),
(108.408,568,cs),
(155.436,563,o),
(150.106,515,o),
(140.581,466,cs),
(76.436,136,ls),
(67.3,89,o),
(39.302,53,o),
(-3.698,53,cs),
(-5.698,53,ls),
(-13.698,53,o),
(-19.67,48,o),
(-21.225,40,cs),
(-26.473,13,ls),
(-28.222,4,o),
(-23,0,o),
(-14,0,cs),
(235,0,ls),
(244,0,o),
(250.778,4,o),
(252.527,13,cs),
(257.775,40,ls),
(259.33,48,o),
(256.302,53,o),
(247.302,53,cs)
);
}
);
width = 599;
}
);
note = h;
unicode = 104;
},
{
glyphname = hbar;
kernLeft = h;
kernRight = h;
lastChange = "2025-02-27 10:59:19 +0000";
layers = (
{
hints = (
{
horizontal = 1;
place = (704,-20);
target = down;
type = TopGhost;
}
);
layerId = m003;
shapes = (
{
ref = h;
},
{
closed = 1;
nodes = (
(109.799,534,ls),
(100.799,534,o),
(94.827,529,o),
(93.078,520,cs),
(90.162,505,ls),
(88.607,497,o),
(92.635,492,o),
(101.635,492,cs),
(326.635,492,ls),
(335.635,492,o),
(340.607,497,o),
(342.162,505,cs),
(345.078,520,ls),
(346.827,529,o),
(343.799,534,o),
(334.799,534,cs)
);
}
);
width = 599;
},
{
hints = (
{
horizontal = 1;
place = (704,-20);
target = down;
type = TopGhost;
}
);
layerId = m004;
shapes = (
{
ref = h;
},
{
closed = 1;
nodes = (
(107.855,524,ls),
(98.855,524,o),
(92.883,519,o),
(91.134,510,cs),
(84.331,475,ls),
(82.776,467,o),
(86.804,462,o),
(95.804,462,cs),
(350.804,462,ls),
(359.804,462,o),
(364.776,467,o),
(366.331,475,cs),
(373.134,510,ls),
(374.883,519,o),
(371.855,524,o),
(362.855,524,cs)
);
}
);
width = 599;
}
);
note = hbar;
unicode = 295;
},
{
glyphname = idotless;
kernLeft = i;
kernRight = a;
lastChange = "2025-02-26 16:29:18 +0000";
layers = (
{
anchors = (
{
name = bottom;
pos = (84,0);
},
{
name = ogonek;
pos = (181,0);
},
{
name = top;
pos = (169.527,440);
}
);
layerId = m003;
shapes = (
{
closed = 1;
nodes = (
(186.415,33,ls),
(143.415,33,o),
(125.719,50,o),
(134.855,97,cs),
(206.581,466,ls),
(206.776,467,o),
(205.776,467,o),
(204.776,467,cs),
(203.776,467,ls),
(201.776,467,o),
(199.581,466,o),
(195.804,462,cs),
(157.834,421,o),
(116.947,401,o),
(74.642,384,cs),
(67.059,381,o),
(60.865,380,o),
(59.504,373,cs),
(57.56,363,ls),
(56.394,357,o),
(57.422,352,o),
(66.227,351,cs),
(113.256,346,o),
(111.813,318,o),
(102.288,269,cs),
(68.661,96,ls),
(59.525,49,o),
(35.415,33,o),
(-7.585,33,cs),
(-9.585,33,ls),
(-17.585,33,o),
(-23.557,28,o),
(-25.112,20,cs),
(-26.473,13,ls),
(-28.222,4,o),
(-23,0,o),
(-14,0,cs),
(181,0,ls),
(190,0,o),
(196.778,4,o),
(198.527,13,cs),
(199.888,20,ls),
(201.443,28,o),
(198.415,33,o),
(189.415,33,cs)
);
}
);
width = 251;
},
{
anchors = (
{
name = bottom;
pos = (111,0);
},
{
name = ogonek;
pos = (235,0);
},
{
name = top;
pos = (196.527,440);
}
);
layerId = m004;
shapes = (
{
closed = 1;
nodes = (
(244.302,53,ls),
(201.302,53,o),
(187.494,90,o),
(196.63,137,cs),
(260.387,465,ls),
(260.581,466,o),
(259.776,467,o),
(258.776,467,cs),
(257.776,467,ls),
(255.776,467,o),
(255.776,467,o),
(252.387,465,cs),
(194.612,425,o),
(150.947,401,o),
(74.642,384,cs),
(65.253,382,o),
(60.865,380,o),
(59.504,373,cs),
(53.672,343,ls),
(52.506,337,o),
(53.534,332,o),
(62.34,331,cs),
(109.368,326,o),
(104.038,278,o),
(94.513,229,cs),
(76.436,136,ls),
(67.3,89,o),
(39.302,53,o),
(-3.698,53,cs),
(-5.698,53,ls),
(-13.698,53,o),
(-19.67,48,o),
(-21.225,40,cs),
(-26.473,13,ls),
(-28.222,4,o),
(-23,0,o),
(-14,0,cs),
(235,0,ls),
(244,0,o),
(250.778,4,o),
(252.527,13,cs),
(257.775,40,ls),
(259.33,48,o),
(256.302,53,o),
(247.302,53,cs)
);
}
);
width = 305;
}
);
note = dotlessi;
unicode = 305;
},
{
glyphname = jdotless;
kernLeft = j;
kernRight = j;
lastChange = "2026-05-05 11:13:25 +0000";
layers = (
{
anchors = (
{
name = top;
pos = (182.527,440);
}
);
layerId = m003;
shapes = (
{
closed = 1;
nodes = (
(219.581,466,ls),
(219.776,467,o),
(218.776,467,o),
(217.776,467,cs),
(216.776,467,ls),
(214.776,467,o),
(212.581,466,o),
(208.804,462,cs),
(170.834,421,o),
(129.947,401,o),
(57.902,382.963,cs),
(50.059,381,o),
(43.865,380,o),
(42.504,373,cs),
(40.56,363,ls),
(39.394,357,o),
(40.422,352,o),
(49.254,351.383,cs),
(126.256,346,o),
(124.813,318,o),
(115.288,269,cs),
(53.662,-48.04,ls),
(42.201,-107,o),
(21.094,-159,o),
(-32.906,-159,cs),
(-91.906,-159,o),
(-94.154,-97.04,o),
(-85.795,-54.04,cs),
(-84.046,-45.04,o),
(-88.463,-42.04,o),
(-93.463,-42.04,cs),
(-96.463,-42.04,o),
(-99.826,-44.097,o),
(-106.629,-48.04,cs),
(-130.492,-61.866,ls),
(-138.608,-66.57,o),
(-140.026,-73.866,o),
(-141.192,-79.866,cs),
(-144.497,-96.866,o),
(-133.543,-188,o),
(-44.543,-188,cs),
(74.296,-188,o),
(118.489,-54.076,o),
(131.916,15,cs)
);
}
);
width = 226;
},
{
anchors = (
{
name = top;
pos = (208.767,440);
}
);
layerId = m004;
shapes = (
{
closed = 1;
nodes = (
(272.627,465,ls),
(272.821,466,o),
(272.016,467,o),
(271.016,467,cs),
(270.016,467,ls),
(268.016,467,o),
(268.016,467,o),
(264.627,465,cs),
(206.852,425,o),
(163.187,401,o),
(56.955,383.554,cs),
(47.493,382,o),
(43.105,380,o),
(41.744,373,cs),
(35.912,343,ls),
(34.746,337,o),
(35.774,332,o),
(44.607,331.383,cs),
(121.608,326,o),
(116.278,278,o),
(106.753,229,cs),
(61.462,-4,ls),
(47.273,-77,o),
(32.221,-139,o),
(-20.779,-139,cs),
(-69.779,-139,o),
(-72.643,-92,o),
(-64.285,-49,cs),
(-62.535,-40,o),
(-66.952,-37,o),
(-71.952,-37,cs),
(-74.952,-37,o),
(-78.341,-39,o),
(-85.118,-43,cs),
(-149.088,-84,ls),
(-157.06,-89,o),
(-161.421,-96,o),
(-162.587,-102,cs),
(-165.891,-119,o),
(-145.303,-188,o),
(-36.303,-188,cs),
(117.697,-188,o),
(171.549,-55,o),
(192.931,55,cs)
);
}
);
width = 279.24;
}
);
unicode = 567;
},
{
glyphname = k;
kernLeft = h;
kernRight = k;
lastChange = "2025-02-26 16:27:39 +0000";
layers = (
{
anchors = (
{
name = bottom;
pos = (225.076,0);
}
);
hints = (
{
horizontal = 1;
place = (704,-20);
target = down;
type = TopGhost;
}
);
layerId = m003;
shapes = (
{
closed = 1;
nodes = (
(171,0,ls),
(180,0,o),
(186.778,4,o),
(188.527,13,cs),
(189.888,20,ls),
(191.443,28,o),
(188.415,33,o),
(176.415,33,cs),
(143.415,33,o),
(125.719,50,o),
(134.855,97,cs),
(252.649,703,ls),
(252.844,704,o),
(251.844,704,o),
(250.844,704,cs),
(249.844,704,ls),
(247.844,704,o),
(245.649,703,o),
(241.872,699,cs),
(203.902,658,o),
(163.015,638,o),
(120.71,621,cs),
(113.127,618,o),
(106.933,617,o),
(105.572,610,cs),
(103.628,600,ls),
(102.462,594,o),
(103.49,589,o),
(112.296,588,cs),
(159.324,583,o),
(157.881,555,o),
(148.356,506,cs),
(68.661,96,ls),
(59.525,49,o),
(35.415,33,o),
(-7.585,33,cs),
(-17.585,33,o),
(-23.557,28,o),
(-25.112,20,cs),
(-26.473,13,ls),
(-28.222,4,o),
(-23,0,o),
(-14,0,cs)
);
},
{
closed = 1;
nodes = (
(441.509,-0.005,ls),
(450.509,-0.005,o),
(455.287,3.995,o),
(457.036,12.995,cs),
(458.397,19.995,ls),
(459.952,27.995,o),
(456.924,32.995,o),
(449.924,32.995,cs),
(446.924,32.995,ls),
(434.924,32.995,o),
(427.097,39.839,o),
(411.172,59.995,cs),
(245.053,270.253,l),
(195.027,238.486,l),
(335.977,58.995,ls),
(340.359,53.416,o),
(342.228,49.995,o),
(341.451,45.995,cs),
(339.701,36.995,o),
(325.924,32.995,o),
(314.924,32.995,cs),
(291.924,32.995,ls),
(284.924,32.995,o),
(278.952,27.995,o),
(277.397,19.995,cs),
(276.036,12.995,ls),
(274.287,3.995,o),
(278.509,-0.005,o),
(286.509,-0.005,cs)
);
},
{
closed = 1;
nodes = (
(371.033,350,ls),
(424.883,391.171,o),
(447.113,407,o),
(482.113,407,cs),
(492.113,407,ls),
(499.113,407,o),
(505.085,412,o),
(506.64,420,cs),
(508,427,ls),
(509.75,436,o),
(505.527,440,o),
(496.527,440,cs),
(341.527,440,ls),
(332.527,440,o),
(327.75,436,o),
(326,427,cs),
(324.64,420,ls),
(323.085,412,o),
(326.113,407,o),
(333.113,407,cs),
(360.113,407,ls),
(372.113,407,o),
(376.141,402,o),
(374.975,396,cs),
(374.003,391,o),
(371.609,387.75,o),
(365.448,383,cs),
(152.563,218.876,l),
(144.776,177.014,l)
);
}
);
width = 512.51;
},
{
anchors = (
{
name = bottom;
pos = (251.833,0);
}
);
hints = (
{
horizontal = 1;
place = (704,-20);
target = down;
type = TopGhost;
}
);
layerId = m004;
shapes = (
{
closed = 1;
nodes = (
(219,0,ls),
(227,0,o),
(233.778,4,o),
(235.527,13,cs),
(240.775,40,ls),
(242.33,48,o),
(237.302,53,o),
(229.302,53,cs),
(186.302,53,o),
(182.218,68,o),
(195.436,136,cs),
(305.455,702,ls),
(305.649,703,o),
(304.844,704,o),
(303.844,704,cs),
(302.142,704,ls),
(300.142,704,o),
(299.086,703.149,o),
(297.455,702,cs),
(240.68,662,o),
(197.015,638,o),
(120.71,621,cs),
(113.299,619.349,o),
(106.134,618.037,o),
(104.774,611.037,cs),
(98.741,580,ls),
(97.574,574,o),
(99.668,569.008,o),
(107.408,568,cs),
(155.555,561.729,o),
(148.911,514,o),
(139.581,466,cs),
(75.436,136,ls),
(66.3,89,o),
(38.302,53,o),
(-5.698,53,cs),
(-13.698,53,o),
(-19.67,48,o),
(-21.225,40,cs),
(-26.473,13,ls),
(-28.222,4,o),
(-24,0,o),
(-16,0,cs)
);
},
{
closed = 1;
nodes = (
(494,0,ls),
(503,0,o),
(507.778,4,o),
(509.527,13,cs),
(514.775,40,ls),
(516.33,48,o),
(513.302,53,o),
(506.302,53,cs),
(503.302,53,ls),
(491.302,53,o),
(483.047,59.495,o),
(467.55,80,cs),
(308.818,290.048,l),
(221.299,216.771,l),
(321.356,79,ls),
(326.384,74,o),
(327.607,70,o),
(326.829,66,cs),
(325.08,57,o),
(311.302,53,o),
(300.302,53,cs),
(297.302,53,ls),
(290.302,53,o),
(284.33,48,o),
(282.775,40,cs),
(277.527,13,ls),
(275.778,4,o),
(280,0,o),
(288,0,cs)
);
},
{
closed = 1;
nodes = (
(395.146,330,ls),
(449.021,371.135,o),
(471.225,387,o),
(506.225,387,cs),
(516.225,387,ls),
(523.225,387,o),
(529.197,392,o),
(530.752,400,cs),
(536,427,ls),
(537.75,436,o),
(533.527,440,o),
(524.527,440,cs),
(329.527,440,ls),
(320.527,440,o),
(315.75,436,o),
(314,427,cs),
(308.752,400,ls),
(307.197,392,o),
(310.225,387,o),
(317.225,387,cs),
(344.225,387,ls),
(356.225,387,o),
(360.253,382,o),
(359.087,376,cs),
(358.115,371,o),
(355.532,368,o),
(349.56,363,cs),
(209.762,255.254,l),
(194.776,177.014,l)
);
}
);
width = 565;
}
);
note = k;
unicode = 107;
},
{
glyphname = kgreenlandic;
kernLeft = h;
kernRight = k;
lastChange = "2025-02-26 16:40:35 +0000";
layers = (
{
layerId = m003;
shapes = (
{
closed = 1;
nodes = (
(171,0,ls),
(180,0,o),
(186.778,4,o),
(188.527,13,cs),
(189.888,20,ls),
(191.443,28,o),
(188.415,33,o),
(176.415,33,cs),
(143.415,33,o),
(125.719,50,o),
(134.855,97,cs),
(182.829,343.806,ls),
(190.41,382.806,o),
(200.275,406.806,o),
(255.922,406.806,cs),
(268.075,406.806,o),
(273.047,411.806,o),
(274.602,419.806,cs),
(275.963,426.806,ls),
(277.712,435.806,o),
(274.49,439.806,o),
(265.49,439.806,cs),
(70.49,439.806,ls),
(61.49,439.806,o),
(56.712,435.806,o),
(54.963,426.806,cs),
(53.602,419.806,ls),
(52.047,411.806,o),
(55.075,406.806,o),
(64.075,406.806,cs),
(124.075,406.806,o),
(124.643,384.006,o),
(116.829,343.806,cs),
(68.661,96,ls),
(59.525,49,o),
(35.415,33,o),
(-7.585,33,cs),
(-17.585,33,o),
(-23.557,28,o),
(-25.112,20,cs),
(-26.473,13,ls),
(-28.222,4,o),
(-23,0,o),
(-14,0,cs)
);
},
{
closed = 1;
nodes = (
(441.509,-0.005,ls),
(450.509,-0.005,o),
(455.287,3.995,o),
(457.036,12.995,cs),
(458.397,19.995,ls),
(459.952,27.995,o),
(456.924,32.995,o),
(449.924,32.995,cs),
(446.924,32.995,ls),
(434.924,32.995,o),
(427.097,39.839,o),
(411.172,59.995,cs),
(245.053,270.253,l),
(195.027,238.486,l),
(335.977,58.995,ls),
(340.359,53.416,o),
(342.228,49.995,o),
(341.451,45.995,cs),
(339.701,36.995,o),
(325.924,32.995,o),
(314.924,32.995,cs),
(291.924,32.995,ls),
(284.924,32.995,o),
(278.952,27.995,o),
(277.397,19.995,cs),
(276.036,12.995,ls),
(274.287,3.995,o),
(278.509,-0.005,o),
(286.509,-0.005,cs)
);
},
{
closed = 1;
nodes = (
(371.033,350,ls),
(424.883,391.171,o),
(447.113,407,o),
(482.113,407,cs),
(492.113,407,ls),
(499.113,407,o),
(505.085,412,o),
(506.64,420,cs),
(508,427,ls),
(509.75,436,o),
(505.527,440,o),
(496.527,440,cs),
(341.527,440,ls),
(332.527,440,o),
(327.75,436,o),
(326,427,cs),
(324.64,420,ls),
(323.085,412,o),
(326.113,407,o),
(333.113,407,cs),
(360.113,407,ls),
(372.113,407,o),
(376.141,402,o),
(374.975,396,cs),
(374.003,391,o),
(371.609,387.75,o),
(365.448,383,cs),
(152.563,218.876,l),
(144.776,177.014,l)
);
}
);
width = 512.51;
},
{
layerId = m004;
shapes = (
{
closed = 1;
nodes = (
(219,0,ls),
(227,0,o),
(233.778,4,o),
(235.527,13,cs),
(240.775,40,ls),
(242.33,48,o),
(237.302,53,o),
(229.302,53,cs),
(186.302,53,o),
(185.218,68,o),
(198.436,136,cs),
(231.092,304,ls),
(244.309,372,o),
(251.225,387,o),
(294.225,387,cs),
(302.225,387,o),
(309.197,392,o),
(310.752,400,cs),
(316,427,ls),
(317.75,436,o),
(312.527,440,o),
(304.527,440,cs),
(69.527,440,ls),
(61.527,440,o),
(55.75,436,o),
(54,427,cs),
(48.752,400,ls),
(47.197,392,o),
(51.225,387,o),
(59.225,387,cs),
(103.225,387,o),
(117.227,351,o),
(108.092,304,cs),
(75.436,136,ls),
(66.3,89,o),
(38.302,53,o),
(-5.698,53,cs),
(-13.698,53,o),
(-19.67,48,o),
(-21.225,40,cs),
(-26.473,13,ls),
(-28.222,4,o),
(-24,0,o),
(-16,0,cs)
);
},
{
closed = 1;
nodes = (
(494,0,ls),
(503,0,o),
(507.778,4,o),
(509.527,13,cs),
(514.775,40,ls),
(516.33,48,o),
(513.302,53,o),
(506.302,53,cs),
(503.302,53,ls),
(491.302,53,o),
(483.663,60,o),
(467.55,80,cs),
(308.232,279,l),
(222.986,216,l),
(321.356,79,ls),
(326.384,74,o),
(327.607,70,o),
(326.829,66,cs),
(325.08,57,o),
(311.302,53,o),
(300.302,53,cs),
(287.302,53,ls),
(280.302,53,o),
(274.33,48,o),
(272.775,40,cs),
(267.527,13,ls),
(265.778,4,o),
(270,0,o),
(278,0,cs)
);
},
{
closed = 1;
nodes = (
(430.146,330,ls),
(484.115,371,o),
(506.225,387,o),
(541.225,387,cs),
(551.225,387,ls),
(558.225,387,o),
(564.197,392,o),
(565.752,400,cs),
(571,427,ls),
(572.75,436,o),
(568.527,440,o),
(560.527,440,cs),
(364.527,440,ls),
(355.527,440,o),
(350.75,436,o),
(349,427,cs),
(343.752,400,ls),
(342.197,392,o),
(345.225,387,o),
(352.225,387,cs),
(379.225,387,ls),
(391.225,387,o),
(395.253,382,o),
(394.087,376,cs),
(393.115,371,o),
(390.532,368,o),
(384.56,363,cs),
(204.347,223,l),
(189.185,145,l)
);
}
);
width = 565;
}
);
metricLeft = k;
metricRight = k;
unicode = 312;
},
{
glyphname = l;
kernLeft = h;
kernRight = a;
lastChange = "2025-02-26 16:27:39 +0000";
layers = (
{
anchors = (
{
name = bottom;
pos = (82,0);
},
{
name = middle;
pos = (357.232,279);
},
{
name = top;
pos = (217.734,688);
}
);
hints = (
{
horizontal = 1;
place = (704,-20);
target = down;
type = TopGhost;
}
);
layerId = m003;
shapes = (
{
closed = 1;
nodes = (
(186.415,33,ls),
(143.415,33,o),
(125.719,50,o),
(134.855,97,cs),
(252.649,703,ls),
(252.844,704,o),
(251.844,704,o),
(250.844,704,cs),
(249.844,704,ls),
(247.844,704,o),
(245.649,703,o),
(241.872,699,cs),
(203.902,658,o),
(163.015,638,o),
(120.71,621,cs),
(113.127,618,o),
(106.933,617,o),
(105.572,610,cs),
(103.628,600,ls),
(102.462,594,o),
(103.49,589,o),
(112.296,588,cs),
(159.324,583,o),
(157.881,555,o),
(148.356,506,cs),
(68.661,96,ls),
(59.525,49,o),
(35.415,33,o),
(-7.585,33,cs),
(-9.585,33,ls),
(-17.585,33,o),
(-23.557,28,o),
(-25.112,20,cs),
(-26.473,13,ls),
(-28.222,4,o),
(-23,0,o),
(-14,0,cs),
(181,0,ls),
(190,0,o),
(196.778,4,o),
(198.527,13,cs),
(199.888,20,ls),
(201.443,28,o),
(198.415,33,o),
(189.415,33,cs)
);
}
);
width = 251;
},
{
anchors = (
{
name = bottom;
pos = (109,0);
},
{
name = middle;
pos = (384.232,279);
},
{
name = top;
pos = (244.734,688);
}
);
hints = (
{
horizontal = 1;
place = (704,-20);
target = down;
type = TopGhost;
}
);
layerId = m004;
shapes = (
{
closed = 1;
nodes = (
(244.302,53,ls),
(201.302,53,o),
(187.494,90,o),
(196.63,137,cs),
(306.455,702,ls),
(306.649,703,o),
(305.844,704,o),
(304.844,704,cs),
(303.844,704,ls),
(301.844,704,o),
(301.844,704,o),
(298.455,702,cs),
(240.68,662,o),
(197.015,638,o),
(120.71,621,cs),
(111.321,619,o),
(106.933,617,o),
(105.572,610,cs),
(99.741,580,ls),
(98.574,574,o),
(99.602,569,o),
(108.408,568,cs),
(155.436,563,o),
(150.106,515,o),
(140.581,466,cs),
(76.436,136,ls),
(67.3,89,o),
(39.302,53,o),
(-3.698,53,cs),
(-5.698,53,ls),
(-13.698,53,o),
(-19.67,48,o),
(-21.225,40,cs),
(-26.473,13,ls),
(-28.222,4,o),
(-23,0,o),
(-14,0,cs),
(235,0,ls),
(244,0,o),
(250.778,4,o),
(252.527,13,cs),
(257.775,40,ls),
(259.33,48,o),
(256.302,53,o),
(247.302,53,cs)
);
}
);
width = 305;
}
);
note = l;
unicode = 108;
},
{
glyphname = lslash;
kernLeft = h;
kernRight = lslash;
lastChange = "2025-02-26 16:18:05 +0000";
layers = (
{
hints = (
{
horizontal = 1;
place = (704,-20);
target = down;
type = TopGhost;
}
);
layerId = m003;
shapes = (
{
closed = 1;
nodes = (
(42,293,o),
(42.913,294.197,o),
(45,295,cs),
(267.623,380.633,ls),
(274.731,383.367,o),
(276.623,387.633,o),
(276.623,395.633,cs),
(276.623,426.633,ls),
(276.623,434.633,o),
(273.623,437.633,o),
(267.623,437.633,cs),
(265.623,437.633,o),
(263.708,437.439,o),
(261.623,436.633,cs),
(40,351,ls),
(32.896,348.255,o),
(30,343,o),
(30,336,cs),
(30,306,ls),
(30,298,o),
(34,293,o),
(40,293,cs)
);
},
{
alignment = -1;
pos = (29.649,0);
ref = l;
}
);
width = 306.62;
},
{
hints = (
{
horizontal = 1;
place = (704,-20);
target = down;
type = TopGhost;
}
);
layerId = m004;
shapes = (
{
closed = 1;
nodes = (
(32,253,o),
(33,254,o),
(35,255,cs),
(363,378,ls),
(370,381,o),
(372,385,o),
(372,393,cs),
(372,464,ls),
(372,472,o),
(369,475,o),
(363,475,cs),
(361,475,o),
(359,475,o),
(357,474,cs),
(30,351,ls),
(23,348,o),
(20,343,o),
(20,336,cs),
(20,266,ls),
(20,258,o),
(24,253,o),
(30,253,cs)
);
},
{
pos = (42,0);
ref = l;
}
);
width = 392;
}
);
note = lslash;
unicode = 322;
},
